<svg width="500" height="201" xmlns="http://www.w3.org/2000/svg">

 <g>
  <title>background</title>
  <rect fill="none" id="canvas_background" height="203" width="502" y="-1" x="-1"/>
 </g>
 <g>
  <title>Layer 1</title>
  <path id="svg_12" fill="#bbb8b8" d="m480.012,81.925c14.655,-0.473 15.488,-0.608 15.488,-2.5c0,-1.995 -0.667,-2 -246.333,-2c-135.483,0 -246.521,0.188 -246.75001,0.417c-0.22899,0.229 -0.41699,1.016 -0.41699,1.75c0,1.055 3.33301,1.333 16,1.333l16,0l0,2.326c0,1.279 1.125,3.382 2.5,4.674c2.374,2.23 3.365,5.041 1.75,4.965c-0.412,-0.02 -1.875,-0.679 -3.25,-1.465c-3.625,-2.072 -7.23,-1.94 -6.815,0.25c0.252,1.329 1.654,1.881 5.824,2.296c4.189,0.416 5.017,0.744 3.491,1.384c-1.1,0.462 -3.868,1.634 -6.151,2.605c-4.597,1.955 -5.898,4.392 -4.419,8.281c0.938,2.467 5.656,6.431 6.569,5.519c0.24,-0.24 -0.078,-2.113 -0.707,-4.162c-1.001,-3.259 -0.89,-4.066 0.883,-6.449c2.702,-3.634 5.318,-3.847 9.809,-0.8c3.094,2.101 4.095,2.34 5.873,1.404c2.891,-1.521 3.61,-2.78 3.628,-6.355c0.029,-5.724 -5.362,-9.696 -8.67,-6.388c-1.957,1.957 -5.706,0.611 -6.772,-2.432c-0.4271,-1.219 -0.774,-2.175 -0.5177,-2.925c0.9381,-2.745 9.9538,-2.728 52.6757,-2.728l49.319,0l1.74,2.219c6.162,7.856 14.389,11.964 20.758,10.366c1.479,-0.371 2.482,-0.193 2.482,0.442c0,1.469 -9.898,5.951 -13.168,5.963c-3.874,0.014 -5.783,0.974 -5.162,2.593c1.539,4.009 9.833,0.437 23.992,-10.333c5.411,-4.115 11.286,-8.105 13.056,-8.866c2.237,-0.962 7.54,-1.384 17.394,-1.384l14.176,0l-11.288,8c-6.209,4.4 -12.293,8 -13.522,8c-3.377,0 -5.026,-2.501 -3.646,-5.53c0.924,-2.029 0.857,-2.47 -0.375,-2.47c-0.825,0 -2.044,1.238 -2.708,2.75c-1.542,3.51 -2.851,4.41 -4.465,3.07c-0.939,-0.779 -1.28,-0.696 -1.269,0.308c0.022,1.944 1.187,3.408 3.348,4.207c1.522,0.563 1.637,0.961 0.627,2.177c-1.062,1.28 -0.608,1.488 3.248,1.488c4.647,0 8.629,-2.082 15.547,-8.129c1.806,-1.579 3.666,-2.871 4.133,-2.871c1.416,0 1.956,3.817 1.359,9.606c-0.513,4.971 -0.859,5.61 -3.672,6.786c-5.443,2.276 -6.154,3.983 -3.468,8.33c1.894,3.064 2.405,3.418 2.703,1.872c0.202,-1.048 1.835,-3.417 3.629,-5.265c2.769,-2.851 3.443,-3.14 4.465,-1.908c0.662,0.798 2.523,1.74 4.135,2.094c3.273,0.719 3.845,2.853 1.181,4.405c-1.644,0.957 -1.639,1.021 0.09,1.05c2.352,0.038 5.584,-3.807 5.627,-6.697c0.019,-1.297 -1.011,-2.911 -2.467,-3.865c-3.209,-2.103 -3.147,-2.634 0.5,-4.248c3.218,-1.424 3.938,-3.586 1.506,-4.519c-0.822,-0.316 -1.384,-1.552 -1.25,-2.747c0.134,-1.196 -0.381,-2.394 -1.145,-2.663c-0.789,-0.279 -1.112,-0.041 -0.747,0.549c0.964,1.56 -0.366,4.22 -2.111,4.22c-0.843,0 -2.114,0.788 -2.825,1.75c-2.006,2.715 -3.644,0.247 -3.733,-5.625c-0.086,-5.726 1.742,-8.528 7.023,-10.763c3.788,-1.603 10.891,-1.804 11.799,-0.334c0.35,0.565 -0.37,1.842 -1.6,2.838c-2.574,2.084 -1.859,4.134 1.442,4.134c2.515,0 4.641,-1.717 4.641,-3.748c0,-0.741 -1.191,-2.451 -2.646,-3.8l-2.646,-2.452l10.646,0c8.251,0 10.646,0.303 10.646,1.345c0,1.724 -2.311,3.557 -8.25,6.544c-4.756,2.392 -5.621,3.455 -3.75,4.611c1.716,1.061 1.094,3.5 -0.893,3.5c-1.041,0 -2.152,0.675 -2.469,1.5c-0.316,0.825 -1.302,1.5 -2.19,1.5c-2.618,0 -1.032,2.472 1.803,2.809c3.141,0.374 9.368,-2.67 12.646,-6.183c1.319,-1.413 2.894,-4.523 3.5,-6.911c1.512,-5.953 2.663,-6.076 4.095,-0.436c0.667,2.628 2.292,5.95 3.611,7.382c2.734,2.968 9.341,6.284 12.588,6.317c2.427,0.024 4.354,-2.13 2.468,-2.758c-0.657,-0.219 -1.83,-1.033 -2.605,-1.809c-0.776,-0.776 -2.118,-1.411 -2.983,-1.411c-1.736,0 -2.148,-2.525 -0.571,-3.5c1.871,-1.156 1.006,-2.219 -3.75,-4.611c-5.112,-2.571 -9.25,-5.731 -9.25,-7.063c0,-0.454 5.016,-0.826 11.146,-0.826l11.146,0l-2.646,2.452c-1.455,1.349 -2.646,3.094 -2.646,3.878c0,1.995 2.561,3.901 4.69,3.491c2.576,-0.496 2.834,-3.52 0.367,-4.303c-2.837,-0.9 -2.574,-2.371 0.644,-3.594c5.686,-2.162 17.136,2.958 17.396,7.778c0.456,8.468 -1.151,13.26 -3.418,10.194c-0.653,-0.883 -2.197,-1.926 -3.433,-2.318c-1.338,-0.424 -2.246,-1.518 -2.246,-2.704c0,-1.158 -0.447,-1.716 -1.068,-1.332c-0.588,0.363 -0.805,1.347 -0.483,2.186c0.326,0.85 -0.18,2.086 -1.144,2.791c-1.463,1.07 -1.524,1.512 -0.395,2.873c0.734,0.884 2.18,1.608 3.212,1.608c2.37,0 2.468,2.845 0.128,3.708c-3.994,1.474 -4.354,5.907 -0.754,9.288c1.373,1.29 2.803,2.039 3.177,1.664c0.375,-0.374 -0.151,-1.289 -1.167,-2.032c-1.702,-1.244 -1.421,-1.566 3.549,-4.062c3.463,-1.739 5.531,-2.307 5.772,-1.585c0.206,0.619 1.519,2.186 2.916,3.481c1.571,1.457 2.308,2.963 1.93,3.947c-1.078,2.811 1.222,1.695 2.801,-1.359c2.451,-4.739 1.95,-6.555 -2.344,-8.491c-3.654,-1.648 -3.9,-2.043 -4.421,-7.094c-0.628,-6.081 -0.018,-9.465 1.705,-9.465c0.649,0 2.959,1.837 5.133,4.082c5.747,5.935 9.793,7.635 16.825,7.069c1.541,-0.124 1.654,-0.415 0.638,-1.639c-1.01,-1.216 -0.895,-1.614 0.627,-2.177c3.793,-1.403 4.788,-5.721 1.113,-4.825c-1.755,0.428 -2.625,-0.118 -3.953,-2.48c-0.937,-1.667 -2.455,-3.03 -3.373,-3.03c-1.364,0 -1.443,0.272 -0.435,1.487c1.94,2.337 0.433,6.513 -2.349,6.513c-2.186,0 -5.193,-1.801 -19.198,-11.5l-5.777,-4l13.918,-0.288c7.654,-0.158 14.928,-0.037 16.163,0.269c1.236,0.305 6.979,4.163 12.762,8.571c12.747,9.718 18.92,13.142 22.977,12.744c5.142,-0.505 3.785,-3.197 -1.985,-3.939c-5.384,-0.692 -8.972,-1.97 -11.75,-4.183c-2.611,-2.081 -2.153,-2.537 2,-1.992c5.895,0.774 13.109,-2.415 16.724,-7.392l3.026,-4.168l50.628,-0.061c45.021,-0.054 50.773,0.114 51.942,1.523c0.926,1.116 1.016,2.056 0.305,3.183c-1.969,3.121 -4.076,3.743 -7.946,2.343c-3.323,-1.201 -3.843,-1.141 -5.64,0.657c-2.318,2.317 -2.803,8.306 -0.862,10.645c1.83,2.205 6.403,1.986 8.573,-0.412c2.448,-2.705 6.972,-2.592 8.943,0.223c1.79,2.555 2.027,7.03 0.522,9.843c-1.646,3.076 2.446,2.498 4.962,-0.701c4.256,-5.41 1.431,-11.272 -6.224,-12.913c-5.607,-1.203 -5.371,-1.938 0.788,-2.452c4.67,-0.39 6.065,-0.886 6.324,-2.25c0.427,-2.253 -2.794,-2.329 -6.98,-0.165c-4.211,2.178 -5.824,0.432 -2.51,-2.718c1.371,-1.302 2.651,-3.267 2.845,-4.367c0.331,-1.873 1.34,-2.032 15.842,-2.5zm-332.926,4.541c-2.375,-2.383 -3.199,-3.841 -2.439,-4.319c1.023,-0.644 14.079,-0.626 29.279,0.04l5.426,0.238l-5.643,3.738c-10.483,6.945 -19.896,7.052 -26.623,0.303zm192.959,4.659c-6.404,0 -11.988,-2.138 -17.545,-6.718l-3,-2.472l35.636,-0.01l-2.165,3.04c-3.415,4.797 -6.276,6.16 -12.926,6.16z" clip-rule="evenodd" fill-rule="evenodd"/>
  <path id="svg_13" fill="#bbb8b8" d="m89.024,97.784c-2.298,-1.698 -2.843,-2.731 -2.392,-4.53c0.864,-3.442 -0.263,-2.844 -3.308,1.758c-3.251,4.912 -2.677,6.345 3.842,9.596l4.481,2.235l-0.095,7.979c-0.053,4.389 -0.398,8.282 -0.768,8.652c-0.369,0.369 -3.726,-1.919 -7.458,-5.086c-7.53,-6.388 -11.607,-8.463 -16.627,-8.463c-4.186,0 -5.189,0.902 -2.933,2.635c1.618,1.243 1.592,1.372 -0.392,1.933c-2.248,0.635 -5.158,4.981 -4.066,6.073c0.354,0.354 1.34,0.066 2.192,-0.641c1.806,-1.498 2.121,-1.268 4.338,3.171c1.092,2.187 2.519,3.45 4.159,3.681c2.408,0.339 2.435,0.283 0.75,-1.579c-2.412,-2.665 -2.186,-4.939 0.677,-6.815c2.219,-1.454 2.691,-1.45 5.592,0.05c1.743,0.902 7.604,4.94 13.024,8.973c10.468,7.791 16.095,9.954 22.27,8.562c6.834,-1.541 9.601,-4.596 8.191,-9.041c-0.916,-2.884 -5.446,-3.798 -7.166,-1.445c-1.196,1.635 -1.038,2.105 1.349,4.008c2.696,2.15 2.698,2.16 0.576,3.296c-3.2,1.712 -7.831,1.379 -13.255,-0.954c-6.383,-2.746 -8.424,-6.702 -7.457,-14.449c0.722,-5.778 2.48,-7.143 4.452,-3.458c0.589,1.1 2.006,2 3.149,2c1.74,0 2.006,0.488 1.638,3c-0.242,1.65 -0.084,3 0.351,3c1.124,0 2.917,-3.611 2.166,-4.362c-0.344,-0.344 0.133,-1.463 1.06,-2.487c2.222,-2.456 1.212,-4.755 -2.689,-6.114l-3.164,-1.103l3.244,-2.54c2.259,-1.768 3.245,-3.375 3.245,-5.292c0,-2.921 -3.604,-7.124 -6.064,-7.072c-1.054,0.023 -0.97,0.302 0.314,1.05c2.952,1.719 1.992,3.778 -2.301,4.934c-2.229,0.6 -4.302,1.742 -4.607,2.538c-0.727,1.893 -3.342,1.875 -3.342,-0.022c0,-0.809 -1.339,-2.46 -2.976,-3.671z"/>
  <path id="svg_14" fill="#bbb8b8" d="m412.125,104.099c5.542,-2.644 5.985,-4.179 2.776,-9.617c-2.269,-3.846 -4.438,-4.824 -3.392,-1.529c0.465,1.464 -0.166,2.784 -2.268,4.75c-1.601,1.497 -3.13,3.38 -3.397,4.185c-0.396,1.191 -1.011,1.051 -3.3,-0.75c-1.548,-1.217 -3.628,-2.213 -4.622,-2.213c-0.995,0 -2.439,-0.9 -3.21,-2.001c-1.391,-1.986 -1.414,-1.986 -3.175,-0.04c-2.431,2.686 -1.298,6.596 2.477,8.548c1.643,0.85 2.986,1.752 2.986,2.005c0,0.254 -1.575,1.119 -3.5,1.924c-3.385,1.414 -4.558,3.792 -2.5,5.064c0.55,0.34 1,1.661 1,2.937c0,1.275 0.703,2.902 1.563,3.615c1.369,1.136 1.48,0.967 0.895,-1.362c-0.563,-2.246 -0.257,-2.816 1.963,-3.66c1.447,-0.55 2.892,-1.682 3.212,-2.515c0.76,-1.982 2.989,-1.943 3.76,0.067c0.334,0.87 0.607,4.054 0.607,7.077c0,4.698 -0.41,5.905 -2.829,8.324c-3.955,3.955 -12.919,6.202 -17.589,4.41c-2.217,-0.851 -1.972,-3.135 0.418,-3.893c2.121,-0.673 2.37,-1.373 1.393,-3.918c-0.758,-1.976 -4.746,-2.066 -6.343,-0.142c-0.657,0.791 -1.049,2.704 -0.872,4.25c0.694,6.052 13.526,8.458 21.322,3.997c2.2,-1.259 7.95,-5.304 12.778,-8.988c8.388,-6.401 11.291,-7.569 15.14,-6.092c1.869,0.717 2.12,5.455 0.382,7.193c-0.933,0.933 -0.919,1.2 0.066,1.2c2.497,0 4.916,-1.994 5.567,-4.589c0.572,-2.277 1.056,-2.563 3.509,-2.073c2.482,0.497 2.779,0.311 2.319,-1.449c-0.29,-1.11 -1.601,-2.721 -2.912,-3.58c-1.703,-1.116 -2.096,-1.909 -1.375,-2.777c1.406,-1.695 0.244,-2.532 -3.519,-2.532c-5.047,0 -10.039,2.602 -16.645,8.674l-6.104,5.612l-1.205,-2.393c-0.745,-1.48 -1.023,-4.872 -0.728,-8.893l0.478,-6.5l4.874,-2.326z"/>
  <path id="svg_15" fill="#bbb8b8" d="m395.813,93.608c0.721,0.289 1.584,0.253 1.916,-0.079c0.332,-0.332 -0.258,-0.568 -1.312,-0.525c-1.165,0.048 -1.402,0.285 -0.604,0.604z"/>
  <path id="svg_16" fill="#bbb8b8" d="m60.878,103.425c3.104,0 5.22,-3.258 4.059,-6.25c-1.793,-4.623 -7.359,-1.79 -6.759,3.44c0.252,2.202 0.837,2.81 2.7,2.81z"/>
  <path id="svg_17" fill="#bbb8b8" d="m440.55,101.581c0.341,-1.358 0.116,-3.412 -0.5,-4.563c-2.422,-4.526 -8.177,-1.212 -6.454,3.717c1.326,3.791 6.07,4.369 6.954,0.846z"/>
  <path id="svg_18" fill="#bbb8b8" d="m89,118.591c0,-1.793 -8.472,-11.995 -12.208,-14.702c-5.033,-3.646 -8.068,-3.931 -7.612,-0.714c0.226,1.589 1.851,2.984 5.536,4.75c2.869,1.375 7.257,4.506 9.75,6.958c2.494,2.452 4.534,4.121 4.534,3.708z"/>
  <path id="svg_19" fill="#bbb8b8" d="m423.232,108.425c4.601,-2.202 6.268,-3.532 6.268,-5c0,-3.33 -3.863,-2.998 -8.072,0.693c-4.259,3.735 -11.428,12.488 -11.428,13.952c0,0.532 1.567,-0.746 3.482,-2.839c1.915,-2.093 6.302,-5.156 9.75,-6.806z"/>
  <path id="svg_20" fill="#bbb8b8" d="m251.573,111.454c0.865,-1.32 1.427,-3.618 1.25,-5.106c-0.424,-3.554 -3.99,-5.001 -6.229,-2.527c-2.12,2.342 -2.011,4.759 0.35,7.76c4.129,5.249 -0.678,7.319 -5.444,2.344c-1.581,-1.65 -3.24,-3 -3.687,-3c-1.385,0 -0.893,7.509 0.626,9.559c1.225,1.652 1.744,1.755 3.487,0.691c3.055,-1.865 4.897,-1.519 5.254,0.99c0.462,3.232 3.43,3.45 4.218,0.31c0.642,-2.556 2.943,-3.425 4.102,-1.55c0.739,1.196 4.176,1.333 4.88,0.195c1.114,-1.803 1.445,-9.185 0.44,-9.806c-0.585,-0.362 -2.381,0.753 -3.992,2.477c-4.93,5.275 -9.044,3.445 -5.255,-2.337z"/>
  <path id="svg_21" fill="#bbb8b8" d="m179.014,114.91c-1.383,-0.008 -4.314,-0.664 -6.514,-1.456c-2.2,-0.793 -4.675,-1.416 -5.5,-1.385c-3.002,0.114 -9.18,1.888 -13.629,3.915c-4.241,1.932 -4.638,1.958 -5.787,0.387c-2.817,-3.853 -17.011,-0.438 -16.385,3.942c0.229,1.604 0.902,2.041 2.801,1.818c6.56,-0.77 7.5,-0.673 7.5,0.779c0,0.817 -2.113,2.489 -4.696,3.715c-2.583,1.226 -5.186,3.145 -5.785,4.265c-0.632,1.181 -2.099,2.035 -3.495,2.035c-1.323,0 -2.684,0.45 -3.024,1c-0.918,1.486 6.547,1.224 9.532,-0.334c1.393,-0.727 6.568,-4.494 11.5,-8.372c9.925,-7.802 16.086,-11.294 19.928,-11.294c3.903,0 3.049,1.411 -2.71,4.479c-6.844,3.645 -11.095,7.715 -15.346,14.694c-2.705,4.441 -4.58,6.234 -8.626,8.25c-6.315,3.147 -10.701,3.255 -16.411,0.403c-4.503,-2.249 -6.562,-1.97 -4.43,0.599c3.236,3.898 16.361,4.575 21.64,1.116c1.384,-0.906 2.423,-1.131 2.423,-0.524c0,2.178 -4.609,7.186 -9.229,10.029c-5.285,3.252 -6.065,4.954 -2.271,4.954c3.593,0 9.404,-6.251 14.497,-15.594c7,-12.841 12.624,-20.172 17.31,-22.564c5.106,-2.608 15.889,-3.568 20.193,-1.798c2.897,1.191 2.725,1.275 -5,2.442c-13.208,1.995 -20.539,7.312 -23.972,17.386c-4.274,12.542 0.356,27.128 8.611,27.128l2.21,0l-2.139,-2.277c-1.419,-1.51 -1.946,-3.017 -1.565,-4.474c0.365,-1.396 -0.377,-3.823 -2.035,-6.652c-4.41,-7.525 -3.12,-15.86 3.426,-22.131c3.813,-3.654 4.636,-2.72 1.816,2.06c-4.072,6.902 -1.528,20.476 3.99,21.294c2.146,0.317 2.982,-1.193 1.252,-2.262c-0.498,-0.308 -0.684,-1.409 -0.413,-2.446c0.271,-1.038 0.004,-2.189 -0.594,-2.558c-1.919,-1.186 -1.163,-2.554 1.413,-2.554c2.917,0 3.038,-0.909 1.011,-7.591c-3.234,-10.659 -1.809,-12.162 11.878,-12.525c9.687,-0.257 9.937,-0.207 12.25,2.482c2.896,3.368 2.985,4.634 0.326,4.634c-2.662,0 -6.965,2.851 -6.965,4.615c0,1.819 1.441,1.764 3,-0.115c1.574,-1.896 2.398,-1.88 6.635,0.131c1.89,0.897 3.661,1.406 3.935,1.132c0.82,-0.82 -1.243,-8.616 -2.982,-11.269c-0.889,-1.357 -2.69,-3.17 -4.003,-4.03c-3.39,-2.221 -12.598,-5.461 -15.571,-5.479z"/>
  <path id="svg_22" fill="#bbb8b8" d="m351,116.309c0,2.147 -0.755,2.057 -7.404,-0.884c-8.184,-3.619 -14.169,-3.294 -31.096,1.689c-8.711,2.565 -13.849,7.339 -14.888,13.834c-0.373,2.334 -0.477,4.445 -0.232,4.69c0.246,0.246 1.607,-0.314 3.026,-1.243c2.644,-1.733 7.594,-1.374 7.594,0.549c0,0.54 0.45,0.981 1,0.981c0.55,0 1,-0.663 1,-1.474c0,-1.583 -5.186,-4.716 -7.095,-4.286c-2.237,0.504 -1.959,-2.022 0.55,-5.004c2.531,-3.008 2.556,-3.014 11.291,-2.567c11.688,0.598 13.136,0.977 14.41,3.775c0.836,1.834 0.712,3.495 -0.534,7.151c-2.242,6.581 -2.129,9.405 0.378,9.405c2.146,0 2.682,1.461 0.932,2.542c-0.588,0.363 -0.814,1.322 -0.504,2.132c0.311,0.809 0.101,2.338 -0.467,3.398c-0.848,1.586 -0.698,1.928 0.849,1.928c2.367,0 4.578,-2.522 6.048,-6.899c1.756,-5.227 1.375,-9.365 -1.33,-14.452c-1.359,-2.557 -2.23,-4.649 -1.934,-4.649c1.874,0 4.705,2.655 6.991,6.554c3.665,6.254 3.696,12.569 0.087,18.013c-2.091,3.155 -2.553,4.777 -2.062,7.234c0.48,2.4 0.241,3.319 -0.988,3.791c-2.3,0.882 -2.012,2.408 0.455,2.408c6.276,0 10.985,-11.805 8.997,-22.558c-2.421,-13.096 -10.79,-19.954 -27.074,-22.187c-6.428,-0.881 -6.467,-0.906 -3.5,-2.168c1.92,-0.816 5.655,-1.113 10.371,-0.824c4.708,0.289 6.786,0.124 5.75,-0.455c-3.027,-1.694 -1.788,-3.094 2.259,-2.551c4.096,0.549 14.274,6.958 24.12,15.186c5.673,4.741 11.627,7.127 15.064,6.037c2.741,-0.87 1.407,-2.48 -2.056,-2.48c-1.91,0 -3.069,-0.616 -3.456,-1.836c-0.321,-1.01 -2.826,-2.887 -5.567,-4.171c-3.472,-1.626 -4.985,-2.925 -4.985,-4.281c0,-1.573 0.479,-1.827 2.5,-1.329c1.375,0.34 3.619,0.893 4.988,1.231c3.487,0.861 4.491,-2.08 1.672,-4.899c-2.836,-2.835 -15.16,-3.918 -15.16,-1.331z"/>
  <path id="svg_23" fill="#bbb8b8" d="m240.498,127.583c-1.101,-1.187 -3.299,-3.17 -4.885,-4.408c-4.159,-3.246 -14.868,-3.226 -19.715,0.037c-4.062,2.735 -6.305,6.954 -5.469,10.287c1.01,4.022 4.202,3.136 4.922,-1.366c0.884,-5.532 5.442,-9.564 10.899,-9.645c4.888,-0.072 6.111,1.387 2.638,3.148c-4.659,2.363 -7.809,8.289 -4.407,8.289c0.814,0 1.767,-1.141 2.117,-2.535c0.922,-3.672 5.78,-5.965 9.433,-4.452c4.433,1.836 4.419,3.717 -0.043,5.993c-6.148,3.137 -9.09,11.59 -4.629,13.302c1.079,0.413 1.273,-0.395 0.897,-3.729c-0.422,-3.741 -0.146,-4.52 2.267,-6.418c1.511,-1.189 3.586,-2.161 4.612,-2.161c1.567,0 1.865,0.785 1.865,4.923c0,3.805 -0.573,5.605 -2.523,7.922c-2.96,3.518 -9.972,7.155 -13.793,7.155c-3.21,0 -3.351,-1.268 -0.716,-6.436c2.319,-4.549 1.8,-5.98 -1.827,-5.046c-1.453,0.374 -3.668,0.8 -4.924,0.947c-3.401,0.398 -3.79,1.296 -1.925,4.452c1.531,2.592 1.541,2.976 0.114,4.161c-1.35,1.121 -2.184,0.641 -5.881,-3.386c-4.638,-5.052 -8.296,-6.043 -12.082,-3.274c-2.477,1.811 -2.101,2.119 4.557,3.742c7.037,1.715 7.459,4.035 0.903,4.973c-5.457,0.78 -10.418,3.16 -11.282,5.412c-1.247,3.251 -0.565,6.602 1.834,9c2.861,2.862 4.769,3.088 7.024,0.834c2.47,-2.47 1.495,-4.879 -1.975,-4.879c-3.549,0 -4.536,-2.702 -2.009,-5.494c1.86,-2.056 10.702,-4.528 13.017,-3.64c2.078,0.798 1.856,3.991 -0.421,6.051c-2.202,1.994 -4.646,7.361 -3.757,8.251c1.268,1.268 5.646,-2.833 7.501,-7.028c2.18,-4.928 3.826,-6.379 5.424,-4.781c0.781,0.781 0.555,2.072 -0.804,4.596c-1.535,2.849 -1.65,3.748 -0.611,4.777c1.035,1.025 1.462,0.947 2.226,-0.407c0.52,-0.921 2.517,-2.194 4.438,-2.828c4.07,-1.343 4.344,-2.461 1.242,-5.066c-2.835,-2.382 -1.46,-3.508 5.445,-4.458c8.266,-1.137 13.784,-8.624 13.799,-18.723c0.005,-3.147 0.345,-3.75 2.117,-3.75c2.042,0 2.098,0.356 1.734,11c-0.327,9.548 -0.167,11 1.214,11c1.386,0 1.532,-1.426 1.134,-11.087l-0.457,-11.087l2.382,0.337c2.129,0.301 2.443,0.975 2.96,6.337c0.642,6.67 1.594,8.93 5.17,12.274c2.427,2.27 8.752,4.715 8.752,3.384c0,-0.387 -1.628,-1.58 -3.617,-2.651c-5.676,-3.057 -8.565,-7.526 -8.194,-12.673c0.396,-5.492 2.667,-6.132 6.864,-1.935c2.701,2.701 2.967,3.478 2.34,6.824c-0.643,3.439 -0.558,3.654 0.95,2.405c3.783,-3.134 1.007,-10.248 -4.974,-12.747c-5.356,-2.238 -3.843,-6.381 2.331,-6.381c3.429,0 7.3,2.86 7.3,5.393c0,0.766 0.675,1.652 1.5,1.969c1.007,0.386 1.5,-0.045 1.5,-1.312c0,-3.43 -1.202,-5.107 -4.709,-6.573c-4.54,-1.897 -3.792,-3.999 1.388,-3.903c6.39,0.118 11.321,4.928 11.321,11.043c0,2.044 0.427,2.461 2.25,2.203c1.733,-0.247 2.323,-1.078 2.567,-3.621c0.262,-2.724 -0.372,-3.989 -3.632,-7.25c-3.81,-3.809 -4.186,-3.949 -10.617,-3.949c-7.729,0 -11.349,1.536 -15.045,6.381c-2.565,3.363 -2.624,3.381 -9.302,2.91c-5.208,-0.368 -7.172,-0.961 -8.723,-2.633z"/>
  <path id="svg_24" fill="#bbb8b8" d="m375.304,142.046c-7.442,4.599 -18.249,0.494 -24.641,-9.36c-3.61,-5.565 -10.663,-12.893 -10.663,-11.08c0,0.591 0.689,1.646 1.531,2.345c1.487,1.234 10.522,15.546 13.48,21.355c1.89,3.71 8.608,11.344 11.208,12.736c1.555,0.832 2.368,0.725 3.563,-0.471c1.399,-1.399 1.218,-1.723 -1.866,-3.347c-3.521,-1.854 -12.388,-10.16 -11.643,-10.906c0.231,-0.231 2.05,0.262 4.041,1.094c5.261,2.198 14.439,1.961 18.436,-0.476c1.788,-1.09 3.25,-2.438 3.25,-2.996c0,-1.66 -3.03,-1.16 -6.696,1.106z"/>
  <path id="svg_25" fill="#bbb8b8" d="m103.487,152.516c-2.743,-1.876 -6.244,-5.026 -7.78,-7c-2.867,-3.687 -4.136,-4.325 -5.194,-2.612c-1.546,2.501 3.809,7.743 11.286,11.05c6.645,2.94 7.289,2.391 1.688,-1.438z"/>
  <path id="svg_26" fill="#bbb8b8" d="m108.4,145.765c0.88,-1.257 1.6,-2.635 1.6,-3.063c0,-1.216 -3.466,-0.911 -4.8,0.423c-0.66,0.66 -1.2,2.37 -1.2,3.8c0,2.467 1.573,5 3.106,5c0.389,0 0.479,-0.872 0.2,-1.938c-0.279,-1.065 0.213,-2.966 1.094,-4.222z"/>
  <path id="svg_27" fill="#bbb8b8" d="m283.532,147.516c1.814,-2.769 1.715,-2.879 -3.532,-3.929c-1.375,-0.275 -3.512,-0.814 -4.75,-1.198c-2.889,-0.895 -2.983,1.179 -0.293,6.452c2.179,4.27 1.893,5.055 -1.874,5.147c-2.54,0.063 -2.546,0.079 -0.333,0.968c2.782,1.118 2.868,2.566 0.25,4.201c-2.937,1.834 -2.448,3.465 1.42,4.742c1.881,0.62 3.961,1.78 4.622,2.577c0.662,0.797 1.598,1.449 2.08,1.449c1.465,0 0.981,-4.67 -0.622,-6c-1.792,-1.487 -1.946,-3.606 -0.336,-4.601c1.461,-0.903 5.836,4.033 5.836,6.584c0,1.786 4.314,6.017 6.135,6.017c1.839,0 0.73,-3.894 -2.135,-7.5c-4.981,-6.268 -3.477,-8.225 4.936,-6.42c5.33,1.143 8.447,3.756 7.866,6.596c-0.271,1.324 -1.122,1.744 -3.103,1.534c-3.632,-0.386 -4.657,2.276 -1.929,5.005c4.695,4.694 12.107,-2.497 9.099,-8.828c-1.671,-3.519 -7.082,-6.383 -12.06,-6.385c-2.03,-0.001 -3.95,-0.421 -4.267,-0.934c-0.829,-1.342 3.459,-4.065 6.431,-4.083c3.952,-0.024 5.694,-1.476 4.09,-3.409c-1.828,-2.203 -7.662,-2.011 -9.813,0.323c-0.962,1.044 -2.81,3.069 -4.105,4.5c-1.295,1.43 -2.772,2.601 -3.281,2.601c-1.814,0 -1.99,-2.878 -0.332,-5.409z"/>
  <path id="svg_28" fill="#bbb8b8" d="m392.219,151.142c2.302,-1.887 2.757,-4.807 1.114,-7.152c-1.59,-2.27 -4.352,-2.793 -4.301,-0.815c0.017,0.688 0.645,2.058 1.394,3.046c0.749,0.989 1.107,2.789 0.795,4c-0.49,1.903 -0.354,2.029 0.998,0.921z"/>
  <path id="svg_29" fill="#bbb8b8" d="m396.411,154.194c5.721,-2.12 11.589,-7.261 11.589,-10.154c0,-3.237 -2.099,-2.385 -6.5,2.641c-2.2,2.512 -5.482,5.45 -7.293,6.53c-4.477,2.668 -3.508,3.101 2.204,0.983z"/>
  <path id="svg_30" fill="#bbb8b8" d="m116.116,155.57c0.921,-2.021 0.901,-2.92 -0.091,-4.115c-1.32,-1.591 -5.025,-2.129 -5.025,-0.73c0,0.44 0.485,1.285 1.078,1.878c0.593,0.593 0.931,2.371 0.75,3.95c-0.261,2.29 -0.885,2.936 -3.078,3.188c-3.403,0.392 -3.635,2.924 -0.343,3.75c3.332,0.836 6.849,-1.185 6.11,-3.512c-0.318,-1.003 -0.049,-2.988 0.599,-4.409z"/>
  <path id="svg_31" fill="#bbb8b8" d="m388.79,160.074c-3.991,-0.611 -5.122,-5.02 -2.135,-8.32c1.552,-1.715 1.528,-1.829 -0.378,-1.829c-3.169,0 -4.104,2.051 -3.54,7.763c0.454,4.598 0.84,5.344 3.046,5.897c2.631,0.661 5.556,-0.531 5.391,-2.196c-0.052,-0.53 -1.125,-1.122 -2.384,-1.315z"/>
  <path id="svg_32" fill="#bbb8b8" d="m122.29,162.735c2.258,0.445 4.21,-3.503 2.657,-5.374c-1.556,-1.875 -3.383,-1.821 -5.017,0.148c-1.524,1.837 -0.224,4.717 2.36,5.226z"/>
  <path id="svg_33" fill="#bbb8b8" d="m376.29,162.735c2.258,0.445 4.21,-3.503 2.657,-5.374c-1.556,-1.875 -3.383,-1.821 -5.017,0.148c-1.524,1.837 -0.224,4.717 2.36,5.226z"/>
  <path id="svg_34" fill="#bbb8b8" d="m103.526,158.925c0.811,0 1.474,-0.45 1.474,-1c0,-2.717 -7.717,0.078 -8.906,3.226c-1.762,4.663 2.049,5.332 4.406,0.774c0.853,-1.65 2.215,-3 3.026,-3z"/>
  <path id="svg_35" fill="#bbb8b8" d="m403.526,164.925c2.057,0 1.842,-3.357 -0.342,-5.333c-2.291,-2.074 -8.184,-3.364 -8.184,-1.792c0,0.619 0.888,1.125 1.974,1.125c1.183,0 2.597,1.204 3.526,3c0.853,1.65 2.215,3 3.026,3z"/>
 </g>
</svg>