<?xml version="1.0" encoding="utf-8"?>
<!-- Generator: Adobe Illustrator 27.5.0, SVG Export Plug-In . SVG Version: 6.00 Build 0)  -->
<svg version="1.1" xmlns="http://www.w3.org/2000/svg" xmlns:xlink="http://www.w3.org/1999/xlink" x="0px" y="0px"
	 viewBox="0 0 1122 800" style="enable-background:new 0 0 800 800;" xml:space="preserve">

<g id="Object">
	<g>
		<path d="M918.402,245.512c2.273-3.773,5.054-7.253,6.897-11.503c-1.347,5.067-0.361,9.932,0.583,15.542
			c1.543-1.983,1.086-3.64,1.208-5.157c0.274-3.422-0.546-6.879,0.389-10.289c0.455-1.659-0.614-2.732-1.908-3.348
			c-1.405-0.668-2.443,0.232-3.182,1.386c-1.649,2.577-3.138,5.264-4.907,7.754c-13.649,19.209-32.599,26.492-55.584,24.421
			c-9.406-0.848-18.041-4.376-26.543-8.226c-0.983-0.445-2.18-0.797-2.573-2.639c4.99,1.878,9.665,3.731,14.404,5.404
			c15.549,5.491,31.27,5.474,46.385-0.779c9.969-4.124,18.377-10.995,23.786-20.811c1.477-2.68,2.75-5.467,4.758-7.843
			c1.835-2.172,3.288-2.283,5.198,0.041c6.297,7.663,5.862,16.885,0.994,25.727c-5.924,10.761-15.888,14.619-26.271,17.817
			c-21.931,6.755-44.562,6.764-67.215,5.64c-7.246-0.359-14.479-1.004-21.707-1.64c-1.295-0.114-1.882,0.603-2.556,1.301
			c-9.949,10.321-21.952,18.22-32.608,27.705c-16.204,14.424-33.749,27.189-50.615,40.793c-8.234,6.641-17.271,12.278-25.611,18.797
			c-11.165,8.728-22.701,16.94-34.149,25.27c-15.771,11.475-31.808,22.581-47.748,33.819c-10.624,7.49-21.374,14.811-32.41,21.592
			c-9.515,5.847-18.751,12.206-28.811,17.232c-9.004,4.499-16.965,10.824-25.558,16.091c-12.052,7.387-24.082,14.813-36.471,21.601
			c-26.518,14.529-53.124,28.905-79.834,43.078c-26.63,14.132-54.522,25.566-81.995,37.903c-18.105,8.13-36.828,14.397-55.81,19.933
			c-10.782,3.144-21.949,5.307-33.123,5.655c-14.057,0.437-28.049-1.489-41.252-6.846c-6.447-2.616-11.436-7.018-13.994-13.795
			c-0.576-1.526-0.71-3.045-0.428-4.505c0.712-3.686,0.766-7.402,0.43-11.075c-0.919-10.051,4.815-16.471,11.773-22.273
			c15.267-12.733,34.035-18.696,51.794-26.555c13.65-6.041,27.899-10.822,41.236-17.46c22.382-11.139,45.105-21.553,67.515-32.627
			c14.614-7.222,29.698-13.471,44.41-20.53c12.526-6.01,24.693-12.685,37.09-18.924c10.806-5.439,21.625-10.902,32.093-16.953
			c13.669-7.901,28.175-14.322,41.56-22.583c15.397-9.503,31.702-17.489,46.469-28.035c3.822-2.729,7.984-5.034,12.163-7.199
			c7.383-3.826,13.945-8.922,20.75-13.572c9.169-6.266,18.368-12.509,27.948-18.055c12.133-7.023,23.14-15.742,35.254-22.712
			c28.581-16.444,54.802-36.344,81.833-55.071c9.312-6.451,18.984-12.411,28.113-19.135c8.631-6.358,17.247-12.752,26.405-18.308
			c10.656-6.464,20.863-13.75,32.637-18.262c8.82-3.38,18.5,0.986,23.053,9.304c3.732,6.818,2.579,12.713-0.06,19.272
			c-4.451,11.062-11.3,20.48-19.071,29.299c-2.318,2.631-4.037,5.05-3.25,8.799c0.649,3.094-1.062,6.529,1.262,9.844
			c0.928-3.905,0.06-7.487,0.799-11.049c0.889,3.72,0.121,7.668,1.675,11.407c0-2.88,0-5.76,0-8.639
			c2.484,3.651,0.415,7.837,1.845,11.602c1.133-3.059,0.532-6.197,0.64-9.272c0.085-2.398,0.737-2.99,2.801-1.653
			c-1.025-0.003-1.797,0.454-1.817,1.513c-0.062,3.234-0.022,6.47-0.022,9.705c2.12-2.719,0.832-5.812,2.196-8.519
			c0.325,1.9,0.369,3.78,0.317,5.657c-0.163,5.808,2.071,7.225,8.057,4.807c-4.553-2.358-0.739-7.001-3.514-10.027
			c0,2.859,0,5.719,0,9.052c-1.341-1.071-0.635-2.449-1.608-2.919c-1.113,0.798,0.001,2.407-1.673,3.07
			c0-2.519-0.014-4.87,0.004-7.22c0.015-2.027,0.269-4.133-2.065-5.225c4.889,1.395,9.817,2.678,14.382,4.986
			c-2.447-0.444-1.954,1.388-1.907,2.629c0.093,2.45-0.048,4.745-3.169,6.498c2.297,0,3.678,0.047,5.055-0.016
			c0.925-0.043,1.647-0.82,0.82-1.413c-3.267-2.343-0.585-5.21-0.906-7.785c0.969,1.894-0.018,4.034,0.754,6.245
			c1.522-1.224,0.83-3.139,1.642-4.619c0.19,0.398,0.28,0.501,0.284,0.608c0.291,7.346,0.298,7.464,7.604,6.99
			c6.087-0.395,12.215-0.377,18.243-1.499c0.686-0.128,1.568,0.142,2.065-1.16c-2.886-0.334-3.425-2.527-3.263-5.185
			c-2.233,0.845-1.028,2.504-1.968,3.482c-1.069-0.486-0.286-2.041-1.458-2.99c-0.283,1.556-0.528,2.905-0.798,4.387
			c-1.979-0.82,0.964-2.875-1.167-3.417c-0.743,0.053-0.566,0.675-0.706,1.121c-0.3,0.951,0.739,2.656-1.016,2.673
			c-0.631,0.006-2.448,0.607-2.602-1.29c-0.123-1.514-0.707-3.643,0.987-4.032c3.545-0.814,7.245-0.985,10.89-1.307
			c1.243-0.11,0.619,1.523,1.631,2.01c0.074-3.519,2.953-4.053,5.258-4.025c1.907,0.023,0.115,2.671,1.35,3.774
			c0.039-0.008,0.432-0.045,0.435-0.1c0.402-8.135,8.385-6.341,12.56-10.743c0,3.747,0,6.31,0,9.517
			c-2.056-2.631,1.059-5.281-2.014-8.082c0,3.043-0.018,5.229,0.006,7.413c0.016,1.442-0.569,2.794-1.968,2.81
			c-1.839,0.02-1.403-1.708-1.474-2.923c-0.066-1.118,0.381-2.296-0.489-3.532c-1.628,1.532-0.96,3.556-1.295,5.284
			c-0.198,1.026-0.138,2.213-1.655,1.952c-1.307-0.225-0.87-1.294-0.837-2.152c0.041-1.071,0.416-2.252-0.815-3.085
			c-0.839,1.053-0.464,2.23-0.523,3.299c-0.146,2.664-0.831,4.278-3.521,1.892c-0.926-0.821-1.16-0.238-1.116,0.379
			c0.123,1.729-1.377,1.872-2.407,2.59c6.695,0.514,12.761-1.768,18.887-3.544c4.64-1.346,9.103-3.2,13.155-5.956
			c1.933-1.315,2.835-2.551,0.561-4.667c-1.517,5.962-7.501,5.594-11.411,8.21c-0.787,0.526-1.786-0.069-1.63-1.321
			c0.331-2.659,0.168-5.314,0.138-7.978c-0.014-1.273,1.112-2.315,2.189-2.977c1.604-0.988,1.105,1.808,2.777,1.431
			c-1.223-2.546,0.622-3.788,2.269-5.184c1.135-0.963,2.732-1.42,3.333-2.973c-0.314,3.093-0.793,6.197,0.712,9.135
			c0.057-3.04,2.896-6.343-0.812-9.036c1.232-0.643,1.609-1.927,2.257-3.009c-0.002,3.89-0.696,7.826,0.732,11.655
			c1.263-3.539,1.045-7.153,0.717-10.754C919.891,245.647,919.069,245.513,918.402,245.512z M821.549,265.138
			c1.539,0.785,3.51,3.844,3.845-1.95c0.578,4.168-0.56,7.327,1.234,10.196c1.091-2.216,0.911-4.564,0.66-6.818
			c-0.239-2.145,1.267-5.535-0.871-6.105c-1.681-0.448-3.46,2.766-4.75,4.775c-1.928,2.188,0.208,4.865-0.963,7.106
			c-0.651-0.841,0.12-2.625-1.765-2.955c-0.081,1.158-0.335,2.317-0.197,3.426c0.198,1.581,1.411,2.504,2.899,2.439
			c1.772-0.076,1.159-1.667,1.171-2.688C822.842,270.022,822.78,267.474,821.549,265.138z M800.309,230.05
			c1.488,2.141,2.894,1.524,4.473,0.013c1.745-1.669,3.126-3.967,5.854-4.21c-1.635,2.15-4.297,3.316-5.595,7.118
			c4.484-3.074,8.313-5.236,11.452-8.369c0.806-0.805,1.721-2.085,0.701-3c-1.246-1.117-1.439,0.785-2.152,1.276
			c-0.755,0.52-1.154,1.759-3.02,1.053c2.206-1.866,4.801-3.192,5.359-6.002c-0.72-0.51-1.183-0.252-1.551,0.076
			c-3.023,2.689-6.352,5.089-9.239,7.825c-1.944,1.842-5.112,1.585-6.189,4.323c-2.316-1.401-4.314-1.191-5.86,1.282
			C796.263,230.061,799.525,235.729,800.309,230.05z M493.191,452.702c5.945-1.009,10.13-5.74,15.739-7.488
			c0.419-0.131,0.889-1.058,0.834-1.56c-0.121-1.104-1.36,0.103-2.017-0.419c7.405-4.372,14.459-8.719,21.683-12.763
			c15.677-8.776,30.273-19.224,45.342-28.941c16.569-10.685,33.564-20.722,49.956-31.668c9.465-6.321,18.983-12.625,28.083-19.481
			c2.359-1.777,5.519-2.079,7.401-3.874c7.371-7.033,15.975-12.253,24.338-17.872c1.262-0.848,2.557,0.501,3.788-1.136
			c2.981-3.966,8.067-5.611,11.302-9.515c0.824-0.994,2.278-2.942,4.556-1.709c0.703,0.38,1.555-0.475,1.299-1.351
			c-0.413-1.417,0.707-1.679,1.382-2.368c5.92-6.042,13.375-10.181,19.631-15.849c2.098-1.901,3.952-4.392,6.455-5.638
			c7.72-3.843,14.304-9.474,20.504-15.03c8.994-8.059,18.112-15.958,27.36-23.715c2.575-2.16,2.673-2.044,1.168-5.839
			c-5.678,7.522-13.611,11.994-20.759,17.451c2.525-3.553,6.537-5.541,9.163-9.217c-8.787,4.802-14.939,12.577-23.188,17.918
			c-5.134,3.324-9.888,7.884-14.709,12.009c-1.594,1.364-3.802,1.779-5.175,3.135c-5.534,5.462-10.922,11.023-18.491,13.741
			c-0.821,0.295-2.812,0.821-2.177,1.375c2.223,1.937-0.378,2.281-0.844,2.517c-4.445,2.248-8.335,5.197-11.839,8.704
			c-0.434,0.434-1.056,0.993-1.577,0.979c-3.976-0.111-6.545,2.689-9.395,4.656c-18.986,13.109-37.638,26.713-56.846,39.484
			c-24.383,16.212-49.139,31.865-73.831,47.607c-14.833,9.456-30.111,18.184-45.368,26.94
			c-29.427,16.888-59.718,32.135-89.998,47.402c-9.207,4.642-18.59,8.936-27.891,13.394c-0.738,0.353-1.797,0.339-1.839,1.529
			c-0.026,0.723,1.941-0.32,1.017,1.053c-0.494,0.734-1.314,0.579-1.863-0.24c-0.937-1.4-1.848-0.185-2.623,0.159
			c-5.823,2.587-11.643,5.184-17.399,7.914c-22.822,10.826-46.182,20.383-69.71,29.536c-3.648,1.419-6.268,5.172-10.935,4.407
			c-2.207-0.361-2.165,2.911-4.091,3.589c-3.7,1.302-7.348,2.749-11.02,4.13c-11.372,4.277-23.31,6.827-34.61,11.324
			c-1.235,0.491-2.616,0.763-3.202,2.745c7.537-2.289,15.074-4.578,22.611-6.866c0.033,0.118,0.066,0.237,0.099,0.355
			c-2.984,1.183-5.967,2.367-8.951,3.55c1.08-0.713,2.072,4.52,3.302,0.206c0.238-0.835,2.992-0.953,4.719-1.439
			c-0.619,1.171-2.411,0.664-2.516,2.545c2.422-0.709,6.062-0.754,6.721-2.179c1.408-3.044,4.542-3.569,5.92-3.135
			c4.056,1.277,7.068-1.318,10.26-2.172c9.545-2.553,18.955-5.916,27.733-10.553c8.325-4.398,17.515-6.41,26.032-10.464
			c10.806-5.144,22.325-8.956,33.348-13.758c15.575-6.785,30.827-14.308,46.353-21.209c15.555-6.914,30.363-15.304,45.704-22.644
			c11.263-5.39,22.295-11.285,33.649-16.513c2.071-0.953,4.305-1.664,5.532-3.832L493.191,452.702z M237.249,543.101
			c-0.19,1.041-1.888,0.802-1.801,2.464c5.128-2.033,10.465-3.106,15.01-6.211c2.249,0.007,4.325-0.878,6.066-2.036
			c0.636-0.423,0.151-2.167,1.892-2.833c5.374-2.055,10.784-4.014,16.059-6.371c3.738-1.67,7.311-3.919,12.055-3.56
			c3.3,0.249,6.503-2.621,9.803-3.906c18.306-7.131,35.843-15.942,53.641-24.184c0.688-0.319,1.917-0.977,1.512-1.352
			c-2.071-1.92,0.633-1.784,0.811-1.652c2.233,1.663,3.896-0.3,5.778-0.767c3.061-0.759,4.939-3.726,7.801-4.518
			c3.769-1.043,7.095-2.437,9.588-5.549c0.756-0.944,1.625-2.145,2.986-0.509c0.664,0.798,1.376,0.052,2.024-0.256
			c6.544-3.116,13.155-6.102,19.613-9.386c11.569-5.883,23.3-11.435,34.699-17.676c11.368-6.224,23.116-11.754,34.682-17.621
			c1.925-0.977,5.272-2.005,5.362-3.206c0.265-3.516,3.039-2.332,4.53-3.368c0.621-0.432,1.2-0.925,1.807-1.378
			c2.329-1.736,4.25-3.908,7.862-3.216c1.904,0.365,3.899-1.393,5.712-2.725c-1.086-0.915-2.366-0.229-2.258-0.297
			c4.305-2.722,8.933-4.95,13.07-7.874c3.736-2.64,8.846-2.626,11.859-6.485c0.139-0.178,0.69-0.165,0.99-0.065
			c3.186,1.06,5.162-1.033,6.297-3.207c2.133-4.083,7.43-3.218,9.685-6.821c0.046-0.073,0.297-0.124,0.333-0.083
			c1.952,2.253,3.734-0.035,4.741-0.788c3.289-2.461,6.989-4.164,10.409-6.353c3.539-2.265,7.085-4.534,10.75-6.582
			c2.978-1.664,4.615-5.477,8.697-5.386c0.398,0.009,0.766-0.687,1.222-0.875c6.398-2.637,10.308-8.526,15.911-12.167
			c10.5-6.822,21.056-13.558,31.695-20.16c2.543-1.578,5.495-2.836,7.795-4.517c6.5-4.751,13.444-8.805,20-13.445
			c0.51-0.361,1.083-1.42,1.861-0.669c1.303,1.257,1.993,0.133,2.109-0.702c0.282-2.032,1.909-2.567,3.236-3.473
			c6.683-4.559,13.815-8.429,20.288-13.315c3.245-2.449,6.535-4.861,9.96-7.046c20.811-13.275,39.751-29.277,61.024-41.86
			c3.33-1.97,5.272-5.257,8.456-7.357c8.819-5.818,17.535-11.805,26.072-18.028c2.951-2.151,7.053-3.334,8.545-6.836
			c1.479-3.471,5.875-4.363,6.5-8.317c0.047-0.299,0.96-0.79,1.268-0.671c3.804,1.473,4.151-4.177,7.479-3.58
			c2.28-4.381,6.881-5.771,10.645-8.233c0.744-0.487,1.973-0.931,1.508-1.87c-1.689-3.417,2.353-1.56,2.664-3.046
			c2.654,2.319,4.337-0.456,6.392-1.234c1.537-0.582,3.052-1.25,4.559-1.878c4.132-1.722,8.479-1.592,12.808-1.933
			c-4.722-2.304-9.322-0.263-14.061,0.174c1.837-1.57,4.183-1.526,6.128-2.519c-3.103-0.09-6.003,0.573-8.786,1.943
			c-17.337,8.531-33.336,19.267-49.137,30.257c-22.903,15.931-45.53,32.258-68.3,48.38c-15.814,11.197-31.923,21.958-48.01,32.758
			c-32.708,21.961-65.92,43.139-99.352,63.959c-13.518,8.418-27.176,16.659-40.965,24.641
			c-31.589,18.285-63.916,35.217-96.468,51.71c-31.988,16.207-64.393,31.557-96.875,46.744
			c-26.009,12.16-52.414,23.398-79.072,34.062c-12.628,5.052-25.809,9.158-36.799,17.507c-5.176,3.932-11.72,7.329-12.125,16.187
			c2.266-1.707,3.476-3.361,5.003-4.63c4.644-3.857,10.917-4.836,15.366-8.969c0.175-0.163,0.871,0.348,1.329,0.357
			c4.252,0.091,8.284-0.61,11.728-3.357c-0.339-0.885-1.157-0.38-1.662-0.687c0.421-0.308,0.801-0.716,1.269-0.908
			C232.752,544.83,235.005,543.976,237.249,543.101z M242.608,579.268c5.171,0.07,9.243-3.837,9.332-8.953
			c0.105-6.036-3.806-10.366-9.367-10.369c-5.538-0.003-10.197,4.373-10.383,9.754C232.018,574.68,236.93,579.191,242.608,579.268z
			 M794.243,256.33c6.157,0.004,9.288-3.397,9.226-10.02c-0.038-4.03-4.471-7.754-9.314-7.823c-4.73-0.068-9.21,4.032-9.23,8.447
			C784.9,252.555,788.641,256.327,794.243,256.33z M234.957,604.23c-6.227-1.406-11.951-5.374-18.792-3.843
			c-0.802,0.179-1.361-0.437-1.861-1.086c-2.418-3.136-5.041-5.839-9.58-4.16c-0.745,0.275-1.449,0.121-2.061-0.551
			c-0.643-0.706-1.166-2.451-2.48-0.673c-1.304,1.764,0.332,2.107,1.391,2.663C212.011,602.055,223.141,604.606,234.957,604.23z
			 M212.756,563.099c-2.128-0.004-3.767,0.943-5.441,1.899c-4.518,2.582-4.433,8.438-8.253,11.506
			c-0.113,0.09-0.05,0.663,0.025,0.685c2.905,0.845,2.572,4.218,4.545,5.797c0.83,0.664,1.713,1.475,2.648,0.684
			c1.008-0.853-0.19-1.556-0.631-2.21c-1.363-2.017-2.14-4.154-0.823-6.411c2.056-3.523,4.719-6.46,8.506-8.277
			c0.966-0.464,2.978-0.169,2.482-2.163C215.425,563.044,213.78,563.436,212.756,563.099z M226.704,568.514
			c1.025-0.278,1.872-0.536,2.732-0.736c1.842-0.428,2.634-2.131,2.263-3.391c-0.423-1.436-2.061-0.404-3.255-0.335
			c-1.361,0.078-3.485,2.306-4.15-0.935c-1.433,2.154-3.506,1.526-5.495,1.263c0.003,0.251-0.101,0.593,0.023,0.739
			c1.888,2.206-0.263,2.346-1.485,2.745c-1.673,0.547-3.397,1.043-5.137,1.243c-1.567,0.18-2.443,1.47-2.25,2.325
			c0.401,1.774,1.88,0.558,2.747,0.232c1.676-0.63,3.183-1.224,5.095-0.648c1.469,0.443,3.285-0.232,4.252-1.216
			C223.541,568.282,224.793,567.26,226.704,568.514z M784.55,241.355c1.988-1.567,3.713-3.421,6.08-4.28
			c2.868-1.041,5.721-0.965,8.525,0.256c1.695,0.738,2.617-1.139,4.078-1.22c0.042-0.002,0.208-0.798,0.047-0.964
			c-1.042-1.079-2.071-0.125-3.137,0.055c-0.699,0.118-1.479-0.063-2.192-0.235c-4.556-1.099-8.482,0.318-12.03,3.063
			C784.983,238.757,783.737,239.529,784.55,241.355z M806.351,247.958c-2.471,3.906-4.185,7.059-7.404,8.838
			c-3.36,1.857-7.071,0.718-11.134,0.932C795.746,261.802,805.726,256.879,806.351,247.958z M921.287,260.25
			c1.652-5.727,1.026-11.508,0.503-17.286C920.37,248.696,920.705,254.47,921.287,260.25z M198.116,572.726
			c-0.407-3.078-3.842-1.599-4.981-3.486c-0.65,0.721-1.949,1.046-1.838,2.224c0.196,2.076,1.682,2.979,3.582,3.179
			C196.403,574.802,197.585,574.19,198.116,572.726z M826.092,275.737c6.033,1.645,8.117,0.708,7.667-3.296
			c-3.407,4.665-3.824,0.513-4.964-2.618C827.701,272.403,828.491,274.725,826.092,275.737z M824.306,215.947
			c3.122-1.794,6.171-3.701,7.66-7.23C829.177,210.869,825.809,212.369,824.306,215.947z M815.623,211.007
			c3.419-1.732,7.179-2.797,10.005-5.896C819.811,207.132,818.949,207.618,815.623,211.007z M828.603,267.615
			c0.338,0.038,0.676,0.076,1.013,0.113c0-2.822,0.018-5.644-0.016-8.466c-0.007-0.566,0.115-1.423-0.745-1.446
			c-1.142-0.031-0.96,0.936-0.909,1.642C828.14,262.179,828.381,264.896,828.603,267.615z M650.098,353.947
			c3.497,0.271,4.72-1.937,6.357-3.419C653.937,350.461,652.245,351.846,650.098,353.947z M923.761,258.321
			c1.311-2.377,1.102-4.762,0.374-8.052C922.469,253.473,922.842,255.894,923.761,258.321z"/>
		<path d="M770.519,227.037c-0.075-1.986-1.799-2.012-3.035-2.312c-16.804-4.072-33.587-8.324-50.763-10.513
			c-11.124-1.418-22.314-2.39-33.499-3.242c-34.578-2.632-69.223-1.817-103.837-1.379c-25.027,0.317-50.041,1.689-75.058,2.639
			c-24.653,0.936-49.328,1.689-73.976,0.758c-22.579-0.852-45.195-0.511-67.742-2.19c-18.945-1.411-37.928-2.179-56.83-4.334
			c-15.968-1.821-32.048-2.63-48.059-4.099c-9.757-0.895-19.479-2.174-29.211-3.329c-1.359-0.161-2.692-0.714-4.002,0.262
			c6.285,3.841,132.012,14.122,178.532,15.802c59.911,2.163,119.67-1.655,179.519-2.792c-2.426,1.207-5.036,0.821-7.562,0.814
			c-2.342-0.006-4.15,0.798-4.688,3.053c-0.587,2.464,0.117,4.836,1.909,6.726c0.692,0.73,1.749,0.634,2.534,0.275
			c1.597-0.731,1.344-2.271,1.219-3.652c-0.073-0.813-0.152-1.755,0.843-1.765c1.443-0.014,1.058,1.175,0.841,1.977
			c-0.563,2.081-1.765,4.979,0.673,5.696c1.846,0.543,2.316-2.781,3.225-4.506c0.159-0.303,0.36-0.584,0.61-0.983
			c1.142,6.714,0.989,6.658-4.225,9.142c-1.498,0.714-1.672,0.743-2.142-0.66c-0.62-1.852-2.313-2.775-3.915-2.21
			c-1.843,0.649-1.512,2.609-1.162,4.274c0.574,2.736,0.996,5.009,5.008,4.7c3.629-0.28,0.652,2.399,1.067,3.716
			c-1.24-1.127-2.014-2.89-3.993-2.332c-1.54,0.434-1.644,1.922-1.507,3.166c0.194,1.757,1.266,4.911,1.961,4.505
			c2.351-1.374,4.334,0.696,6.073,0.042c1.822-0.684,1.625-3.285,2.467-4.974c0.257-0.516-0.218-1.271,0.909-1.865
			c0,2.133,0.086,4.041-0.025,5.937c-0.103,1.767-0.103,3.571-2.781,3.674c-1.84,0.071-2.365,2.075-3.318,3.354
			c-0.247-0.153-0.581-0.245-0.608-0.393c-0.341-1.875-0.982-3.746-3.215-3.564c-2.194,0.179-0.174,2.522-1.294,3.428
			c-1.328,1.074,1.333,3.788-0.882,3.68c-1.908-0.093-0.96-2.776-0.908-4.257c0.367-10.454,0.31-20.89-0.764-31.306
			c-0.087-0.843,0.168-1.764-0.734-2.725c-2.001,5.577,0.909,11.351-1.284,16.368c-1.183-5.598-0.362-11.953-3.709-17.495
			c-0.012,3.996,0.208,7.934,0.02,11.882c-0.131,2.745,0.653,5.539-1.145,8.099c-0.437,0.622-0.359,1.772-0.2,2.62
			c2.498,13.322-0.653,25.794-5.605,38.011c-0.071,0.175,0.119,0.457,0.418,1.474c7.78-11.554,8.807-24.328,10.96-37.082
			c0,1.6,0.032,3.201-0.009,4.801c-0.042,1.66-0.16,3.319-0.234,4.978c-0.462,10.373-1.391,9.589,8.577,9.773
			c13.028,0.241,26.065,0.137,39.085,0.576c27.828,0.938,55.685,1.142,83.473,3.101c5.583,0.394,11.144,1.102,16.711,1.839
			c-10.003,0.704-20.13,0.489-29.917-0.916c-15.023-2.157-30.007-1.572-45.021-1.829c-6.129-0.105-12.261-0.035-18.388-0.184
			c-17.236-0.422-34.47-0.893-51.703-1.408c-2.43-0.073-3.296,0.734-4.127,3.225c-1.588,4.761-4.975,8.667-7.736,12.87
			c-7.175,10.921-18.236,13.432-30.096,14.749c-35.666,3.959-71.421,3.362-107.189,2.341c-19.285-0.551-38.575-0.996-57.852-1.758
			c-19.913-0.786-39.824-1.711-59.716-2.918c-21.282-1.292-42.538-2.998-63.807-4.497c-9.045-0.637-18.1-1.14-27.142-1.831
			c-5.706-0.436-5.601-0.604-5.236-6.21c0.596-9.163,1.086-18.337,1.393-27.514c0.316-9.434,1.688-18.816,1.336-28.278
			c-0.066-1.78,0.359-3.828-0.371-5.289c-3.036-6.082,0.736-11.085,2.156-16.468c0.513-1.946,2.013-1.905,3.611-2.035
			c6.323-0.515,12.435,0.995,18.618,1.801c14.544,1.894,29.122,3.427,43.751,4.52c21.758,1.626,43.502,3.444,65.264,5.014
			c10.951,0.79,21.93,1.169,32.892,1.819c8.282,0.49,16.576,0.913,24.827,1.732c9.179,0.911,18.371,0.407,27.546,0.765
			c25.932,1.012,51.845,0.033,77.72-1.188c35.348-1.669,70.699-2.64,106.077-3.136c11.993-0.168,23.947,0.656,35.924,0.578
			c10.969-0.071,21.918,0.496,32.844,1.255c17.184,1.194,34.299,3.109,51.305,5.925c12.841,2.126,25.319,5.771,37.901,8.982
			c0.854,0.218,2.389-0.08,2.379,1.345c-0.007,0.987-1.065,1.302-2.048,1.244L770.519,227.037z M545.985,241.025
			c-32.872-2.742-65.829-3.941-98.768-5.505c-0.029,0.391-0.057,0.782-0.086,1.174c8.968,0.482,17.937,0.965,26.905,1.447
			c-40.901-0.986-81.73-3.207-122.516-6.563c4.575,0,9.149,0,13.724,0c0.003-0.244,0.007-0.488,0.01-0.733
			c-24.375-1.441-48.75-2.881-73.125-4.322c-0.024,0.373-0.049,0.746-0.073,1.118c18.293,1.202,36.586,2.404,54.878,3.607
			c-32.226-0.489-64.319-4.196-96.573-3.987c4.775,1.778,9.772,1.252,14.676,1.721c-17.056,0.693-34.034-1.912-51.124-1.396
			c-0.285-2.95,2.055-3.584,5.195-4.014c-3.891-0.903-3.962-0.922-3.097-4.035c1.928-6.937,3.122-14.105,6.725-20.514
			c-3.151-1.056-6.21,0.196-9.1-1.233c0,1.115,0.311,2.157-0.049,2.849c-2.813,5.409-2.705,10.977-2.472,16.99
			c0.499,12.919-0.147,25.886-0.473,38.83c-0.119,4.714-0.806,9.412-0.983,14.126c-0.332,8.873-0.256,8.875,8.431,9.548
			c0.382,0.03,0.763,0.079,1.145,0.108c18.822,1.395,37.623,3.411,56.471,4.027c24.355,0.795,48.62,3,72.971,3.811
			c11.43,0.381,22.877,0.893,34.311,1.543c28.181,1.602,56.4,2.298,84.648,2.078c23.629-0.184,47.176-0.758,70.539-4.783
			c7.024-1.21,11.664-4.848,13.904-11.44c5.339-15.709,6.333-32.008,5.803-48.404c-0.109-3.361,0.259-7.291-2.519-10.766
			c-1.356,4.148,0.149,7.607,0.225,11.103c0.049,2.272,0.154,4.383-4.202,4.226c3.691,1.104,3.385,4.192,3.05,4.787
			c-1.756,3.121-5.449,1.166-8.503,2.406c2.624,0.942,5.221-0.07,8.278,1.492c-2.256,0.272-3.594,0.434-5.012,0.605
			c0.802,1.608,2.886-0.001,3.595,2.012c-19.971-1.104-39.753-2.198-59.535-3.292C510.864,239.27,528.372,241.413,545.985,241.025z
			 M304.098,223.055c-8.675,3.016-17.498-0.126-26.098,0.449c0.007,0.332,0.014,0.664,0.021,0.996
			c17.66,1.082,35.319,2.164,52.979,3.246c-9.589-2.483-19.559-1.67-29.221-3.99C302.552,223.523,303.325,223.289,304.098,223.055z
			 M423.728,235.749c0.029-0.506,0.058-1.012,0.087-1.518c-18.633-0.557-37.211-2.075-55.81-3.234c-0.022,0.4-0.045,0.8-0.067,1.2
			C386.535,233.381,405.131,234.566,423.728,235.749z M542.61,238.791c-19.118-1.796-38.221-3.444-57.386-3.506
			c-0.013,0.33-0.027,0.66-0.04,0.989C504.326,237.113,523.468,237.952,542.61,238.791z M449.974,233.327
			c0.01,0.352,0.021,0.703,0.031,1.055c10.768,0.58,21.536,1.161,32.304,1.741c0.019-0.375,0.038-0.75,0.057-1.125
			C471.568,234.441,460.771,233.884,449.974,233.327z M216.454,225.879c8.869,1.967,17.863,0.683,26.784,1.29
			C234.333,226.133,225.434,224.932,216.454,225.879z M412.195,231.286c-0.044,0.455-0.089,0.91-0.134,1.365
			c10.25,0.485,20.499,0.97,30.749,1.455C432.686,231.477,422.372,232.758,412.195,231.286z M231.889,221.243
			c0.001,0.389,0.002,0.779,0.002,1.168c9.771,0.44,19.542,0.881,29.313,1.321c0.015-0.356,0.03-0.713,0.045-1.069
			C251.463,222.19,241.676,221.717,231.889,221.243z M373.206,229.091c-0.018,0.321-0.036,0.643-0.054,0.964
			c9.404,0.796,18.808,1.594,28.295,0.874C392.034,230.316,382.62,229.704,373.206,229.091z M270.387,226.209
			c-3.953-1.23-24.553-2.142-27.741-0.962C252.375,225.561,260.975,226.887,270.387,226.209z M220.843,223.768
			c6.748,1.501,13.538,0.839,20.318,0.657C234.379,224.179,227.653,222.733,220.843,223.768z M338.424,225.256
			c-8.429-1.43-16.976-1.031-25.462-1.578C321.421,224.639,329.849,226.079,338.424,225.256z M272.556,225.65
			c-0.022,0.393-0.045,0.786-0.067,1.18c5.529,0,11.058,0,16.586,0C283.604,225.865,278.112,225.094,272.556,225.65z
			 M370.376,229.943c0.064-0.34,0.129-0.681,0.193-1.021c-5.847-0.336-11.693-0.671-17.54-1.007
			c-0.026,0.385-0.053,0.769-0.079,1.154C358.759,229.36,364.568,229.652,370.376,229.943z M336.185,226.897
			c0.004,0.346,0.007,0.691,0.01,1.037c4.337,0.871,8.749,0.408,13.176-0.131C344.976,227.501,340.581,227.199,336.185,226.897z
			 M427.06,234.986c3.319,1.465,6.707,1.777,11.285,0.638C433.922,233.982,430.46,235.113,427.06,234.986z M263.307,223.294
			c4.863,1.403,9.576,1.458,11.685,0C271.014,223.294,267.456,223.294,263.307,223.294z M514.801,235.161
			c-0.013-0.365-0.027-0.731-0.04-1.096c-3.388-0.312-6.774-0.521-10.135,0.643C508.018,234.859,511.409,235.01,514.801,235.161z"/>
		<path d="M770.427,226.928c-4.128,4.193-9.295,6.993-14.049,10.328c-11.265,7.903-22.694,15.57-34.046,23.349
			c-1.636,1.121-3.222,1.392-5.324,1.206c-14.122-1.247-28.262-2.201-42.437-2.807c-27.186-1.161-54.376-1.951-81.583-2.275
			c-1.028-0.012-2.337,0.499-3.097-1.102c1.57-0.841,3.237-0.528,4.787-0.514c18.655,0.172,37.31,0.474,55.966,0.607
			c17.428,0.125,34.804,1.428,52.206,2.123c2.529,0.101,5.038,0.734,7.552,1.151c1.149,0.19,2.435,0.534,3.206-0.524
			c0.57-0.782,2.424-0.09,1.982-1.742c-0.283-1.059-1.255-1.564-2.237-1.921c-5.384-1.96-10.935-3.167-16.662-3.343
			c-1.61-0.049-3.577-1.422-3.755-1.716c-1.964-3.239-5.432-0.294-5.514-0.123c-1.807,3.753-4.44-0.306-6.369,0.805
			c-1.15-2.177-3.937-2.241-5.128-1.816c-4.812,1.715-8.939-1.276-13.419-1.238c-0.242,0.002-0.587-0.295-0.714-0.207
			c-3.608,2.497-7.96-0.082-11.717,1.784c-2.288,1.136-4.549-0.938-6.925-0.667c-0.323,0.037-0.755-0.517-1.025-0.433
			c-4.856,1.507-10.196-0.665-14.915,2.024c-1.434,0.817-2.968,1.216-4.531-0.237c-0.626-0.582-1.922-0.652-2.9-0.615
			c-7.921,0.293-15.804-0.382-23.701-0.753c-2.264-0.106-4.347,0.683-6.293,2.623c-0.903-2.707-0.481-5.115-0.394-7.445
			c0.254-6.755-0.844-13.508,0.02-20.26c0.34-2.659,1.206-4.29,4.179-2.467c0.307,0.188,0.73,0.235,1.105,0.26
			c9.299,0.601,18.628,1.894,27.888,1.51c5.364-0.223,10.598,0.793,15.811,0.408c6.887-0.508,13.69,0.617,20.616,0.033
			c6.182-0.522,12.531,1.248,18.829,1.695c5.95,0.422,12.019,0.39,17.736,1.96c4.307,1.183,9.033,0.405,12.994,2.96
			c1.294,0.834,2.62-0.691,3.597-0.379c4.361,1.391,8.968-0.262,13.179,1.113c2.976,0.971,5.681,0.866,8.419-0.151
			c2.029-0.753,3.782-0.304,5.429,0.715c4.68,2.896,10.122,3.695,14.767,1.76c3.616-1.507,8.338-1.812,10.671-4.318
			c2.335-2.507,4.063-0.595,5.886-1.248C770.519,227.037,770.427,226.928,770.427,226.928z"/>
		<path d="M704.63,215.974c-7.077-0.645-14.177-1.104-21.224-1.982c-8.594-1.071-17.296-0.025-25.866-1.655
			c-4.261-0.81-8.55,0.638-12.93,0.445c-11.048-0.486-22.125-0.394-33.19-0.372c-6.887,0.014-13.773,0.322-20.659,0.5
			c-0.51,0.013-1.013,0.022-1.527-1.105c4.263-0.254,8.336-0.63,12.415-0.718c17.595-0.383,35.174,0.398,52.759,0.779
			c16.061,0.348,32.069,1.416,48.053,2.947c0.928,0.089,1.797,0.104,2.136,1.178L704.63,215.974z"/>
		<path d="M585.931,255.306c-0.675-2.89-0.981-5.739-0.872-8.681c0.405-10.937,0.116-21.871-0.545-32.793
			c-0.058-0.962-0.335-1.8,0.981-1.959c1.858-0.225,1.661,1.147,1.652,2.243c-0.078,8.794-0.18,17.587-0.293,26.381
			C586.791,245.45,586.97,250.416,585.931,255.306z"/>
		<path d="M862.998,272.039c-0.16,0.706,0.113,2.325-0.937,1.701c-1.672-0.994-3.168,2.605-4.456-0.076
			c-0.661-1.376,0.271-2.658,0.565-3.971c-0.058,2.461,3.105-2.269,2.659,1.19c-0.056,0.433,0.062,1.565,0.971,0.547
			C863.108,269.964,862.918,271.217,862.998,272.039z"/>
		<path d="M869.412,274.295c-1.036-1.424,0.147-3.171-1.29-4.077c-0.579-0.365-1.187-0.658-0.661-1.36
			c0.23-0.307,0.867-0.411,1.324-0.424c0.681-0.02,1.193,0.326,1.298,1.079C870.306,271.105,870.309,272.656,869.412,274.295z"/>
		<path d="M704.596,215.99c4.205-1.212,8.234,0.527,12.357,0.677c-4.161,0.856-8.178-0.593-12.301-0.706
			C704.63,215.974,704.596,215.99,704.596,215.99z"/>
		<path d="M493.313,452.619c-2.64-0.144-4.638,1.686-7.073,2.261c3.351-2.413,7.446-3.383,10.963-5.576
			c-0.776,1.76-2.638,2.3-4.005,3.395C493.191,452.702,493.313,452.619,493.313,452.619z"/>
		<path d="M246.878,565.726c3.059,2.175,1.882,4.56,0.975,6.575c-1.187,2.637-3.445,4.098-6.461,3.675
			c-4.304-0.604-6.641-6.278-4.108-9.756c0.368-0.505,0.681-1.227,1.412-0.917c0.627,0.266,0.909,1.081,0.502,1.607
			c-1.793,2.315-2.278,4.633,0.262,6.597c1.75,1.353,3.869,1.158,5.738,0.028C248.168,571.739,247.686,568.949,246.878,565.726z"/>
		<path d="M800.3,247.124c-0.013,3.388-2.762,6.221-5.982,6.167c-3.642-0.061-6.418-2.568-6.386-5.766
			c0.029-2.919,3.448-5.958,6.801-6.046C797.632,241.402,800.311,244.119,800.3,247.124z M794.479,252.281
			c2.744-0.177,4.583-1.635,4.521-4.477c-0.056-2.557-1.459-4.28-4.354-4.546c-3.83-0.352-4.068,2.571-4.282,4.922
			C790.141,250.634,791.87,252.036,794.479,252.281z"/>
		<path d="M254.881,271.909c-5.495,0.778-10.169-0.034-14.955-0.025c0.46,1.452,1.512,0.898,2.401,1.923
			c-4.714,0.062-8.964,0.035-13.952-0.698c2.866-1.327,4.936-0.218,7.014-0.206c1.361,0.008,1.375,0.068,2.268-1.716
			c0.397-0.793,1.092-0.406,1.636-0.43C244.228,270.541,249.124,270.94,254.881,271.909z"/>
		<path d="M525.161,243.55c8.742-0.969,17.406,0.765,26.139,0.841C542.564,245.068,533.899,243.72,525.161,243.55z"/>
		<path d="M311.39,231.938c-7.703-0.492-15.407-0.984-23.11-1.48c7.217-0.842,14.371,0.839,21.576,0.553
			c0.687-0.027,1.212,0.29,1.465,0.968L311.39,231.938z"/>
		<path d="M248.36,230.373c-6.067,0.308-12.009,1.05-17.814-0.93C236.485,229.753,242.423,230.063,248.36,230.373z"/>
		<path d="M324.453,264.611c-6.223-0.347-12.446-0.694-18.669-1.041C312.036,262.607,318.158,263.828,324.453,264.611z"/>
		<path d="M311.32,231.979c6.85-1.082,13.582,0.83,20.391,0.774c-6.806,0.729-13.531-0.464-20.306-0.826
			C311.39,231.938,311.32,231.979,311.32,231.979z"/>
		<path d="M446.605,266.565c5.844-0.913,11.598,0.353,17.389,0.697C458.149,268.22,452.404,266.749,446.605,266.565z"/>
		<path d="M236.497,277.723c-6.011,0.924-12.009,0.251-18.016,0C224.487,277.723,230.492,277.723,236.497,277.723z"/>
		<path d="M383.803,238.209c-6.245,0.184-12.488-1.099-18.806-0.769C371.288,236.557,377.49,237.995,383.803,238.209z"/>
		<path d="M519.844,244.955c5.51,0.122,11.051,0.845,16.626,0.817C530.917,246.367,525.393,246.15,519.844,244.955z"/>
		<path d="M531.822,255.14c5.512-1.031,10.844,0.76,16.279,0.566C542.612,256.799,537.246,254.735,531.822,255.14z"/>
		<path d="M319.556,243.766c-6.361,0.186-11.672-1.474-17.115-0.971C307.869,242.646,313.315,242.078,319.556,243.766z"/>
		<path d="M458.495,265.11c5.177-0.644,10.313-0.539,15.383,0.727C468.714,266.258,463.654,264.793,458.495,265.11z"/>
		<path d="M377.709,235.973c5.1-0.61,10.145-0.228,15.077,0.727C387.762,237.435,382.819,235.186,377.709,235.973z"/>
		<path d="M547.125,276.479c-3.515,0.626-6.933-0.123-10.365-0.759C540.246,275.422,543.733,275.055,547.125,276.479z"/>
		<path d="M239.356,248.591c4.2,0,8.399,0,12.598,0c0.001,0.158,0.002,0.315,0.004,0.473c-4.2,0-8.399,0-12.599,0
			C239.358,248.907,239.357,248.749,239.356,248.591z"/>
		<path d="M236.047,252.896c-4.184,0-8.367,0-12.551,0c-0.002-0.109-0.004-0.217-0.005-0.326c4.128,0,8.256,0,12.383,0
			C235.931,252.678,235.989,252.787,236.047,252.896z"/>
		<path d="M520.546,281.854c-3.438-0.211-6.877-0.422-10.315-0.634c0.001-0.069,0.002-0.139,0.003-0.208c3.428,0,6.856,0,10.284,0
			C520.527,281.293,520.536,281.573,520.546,281.854z"/>
		<path d="M212.293,274.371c3.813,0.302,7.645,0.337,11.46,0.601C219.918,274.975,216.023,275.786,212.293,274.371z"/>
	</g>
</g>
</svg>
