<?xml version="1.0"?>
<svg width="494" height="327" xmlns="http://www.w3.org/2000/svg" xmlns:svg="http://www.w3.org/2000/svg">
 <g class="layer">
  <title>Layer 1</title>
  <path clip-rule="evenodd" d="m478.01,237.93c14.66,-0.48 15.49,-0.61 15.49,-2.5c0,-2 -0.67,-2 -246.33,-2c-135.49,0 -246.52,0.18 -246.75,0.41c-0.23,0.23 -0.42,1.02 -0.42,1.75c0,1.06 3.33,1.34 16,1.34l16,0l0,2.32c0,1.28 1.13,3.38 2.5,4.68c2.37,2.23 3.37,5.04 1.75,4.96c-0.41,-0.02 -1.87,-0.68 -3.25,-1.46c-3.62,-2.08 -7.23,-1.94 -6.82,0.25c0.26,1.32 1.66,1.88 5.83,2.29c4.19,0.42 5.02,0.75 3.49,1.38c-1.1,0.47 -3.87,1.64 -6.15,2.61c-4.6,1.95 -5.9,4.39 -4.42,8.28c0.94,2.47 5.66,6.43 6.57,5.52c0.24,-0.24 -0.08,-2.11 -0.71,-4.16c-1,-3.26 -0.89,-4.07 0.89,-6.45c2.7,-3.64 5.31,-3.85 9.8,-0.8c3.1,2.1 4.1,2.34 5.88,1.4c2.89,-1.52 3.61,-2.78 3.62,-6.35c0.03,-5.73 -5.36,-9.7 -8.67,-6.39c-1.95,1.96 -5.7,0.61 -6.77,-2.43c-0.42,-1.22 -0.77,-2.18 -0.51,-2.93c0.93,-2.74 9.95,-2.72 52.67,-2.72l49.32,0l1.74,2.21c6.16,7.86 14.39,11.97 20.76,10.37c1.48,-0.37 2.48,-0.19 2.48,0.44c0,1.47 -9.9,5.95 -13.17,5.96c-3.87,0.02 -5.78,0.98 -5.16,2.6c1.54,4.01 9.83,0.43 23.99,-10.33c5.41,-4.12 11.29,-8.11 13.06,-8.87c2.24,-0.96 7.54,-1.38 17.39,-1.38l14.18,0l-11.29,8c-6.21,4.39 -12.29,8 -13.52,8c-3.38,0 -5.03,-2.51 -3.65,-5.53c0.93,-2.03 0.86,-2.47 -0.37,-2.47c-0.83,0 -2.05,1.23 -2.71,2.75c-1.54,3.51 -2.85,4.41 -4.47,3.07c-0.94,-0.78 -1.28,-0.7 -1.27,0.3c0.03,1.95 1.19,3.41 3.35,4.21c1.52,0.56 1.64,0.96 0.63,2.18c-1.06,1.28 -0.61,1.49 3.25,1.49c4.64,0 8.63,-2.09 15.54,-8.13c1.81,-1.58 3.67,-2.87 4.14,-2.87c1.41,0 1.95,3.81 1.36,9.6c-0.52,4.97 -0.86,5.61 -3.68,6.79c-5.44,2.27 -6.15,3.98 -3.46,8.33c1.89,3.06 2.4,3.41 2.7,1.87c0.2,-1.05 1.84,-3.42 3.63,-5.27c2.77,-2.85 3.44,-3.14 4.46,-1.9c0.67,0.79 2.53,1.74 4.14,2.09c3.27,0.72 3.84,2.85 1.18,4.41c-1.64,0.95 -1.64,1.02 0.09,1.04c2.35,0.04 5.58,-3.8 5.63,-6.69c0.02,-1.3 -1.01,-2.91 -2.47,-3.87c-3.21,-2.1 -3.15,-2.63 0.5,-4.25c3.22,-1.42 3.94,-3.58 1.51,-4.51c-0.83,-0.32 -1.39,-1.56 -1.25,-2.75c0.13,-1.2 -0.38,-2.39 -1.15,-2.66c-0.79,-0.28 -1.11,-0.04 -0.75,0.55c0.97,1.55 -0.36,4.22 -2.11,4.22c-0.84,0 -2.11,0.78 -2.82,1.75c-2.01,2.71 -3.65,0.24 -3.74,-5.63c-0.08,-5.73 1.75,-8.53 7.03,-10.76c3.79,-1.61 10.89,-1.81 11.8,-0.34c0.35,0.57 -0.37,1.84 -1.6,2.84c-2.58,2.09 -1.86,4.14 1.44,4.14c2.51,0 4.64,-1.72 4.64,-3.75c0,-0.74 -1.19,-2.45 -2.65,-3.8l-2.64,-2.45l10.64,0c8.25,0 10.65,0.3 10.65,1.34c0,1.72 -2.31,3.56 -8.25,6.54c-4.76,2.4 -5.62,3.46 -3.75,4.62c1.72,1.06 1.09,3.5 -0.89,3.5c-1.04,0 -2.15,0.67 -2.47,1.5c-0.32,0.82 -1.3,1.5 -2.19,1.5c-2.62,0 -1.03,2.47 1.8,2.8c3.14,0.38 9.37,-2.67 12.65,-6.18c1.32,-1.41 2.89,-4.52 3.5,-6.91c1.51,-5.95 2.66,-6.08 4.09,-0.44c0.67,2.63 2.29,5.95 3.61,7.39c2.74,2.96 9.34,6.28 12.59,6.31c2.43,0.03 4.36,-2.13 2.47,-2.76c-0.66,-0.21 -1.83,-1.03 -2.61,-1.8c-0.77,-0.78 -2.11,-1.41 -2.98,-1.41c-1.74,0 -2.15,-2.53 -0.57,-3.5c1.87,-1.16 1.01,-2.22 -3.75,-4.62c-5.11,-2.57 -9.25,-5.73 -9.25,-7.06c0,-0.45 5.02,-0.82 11.15,-0.82l11.14,0l-2.64,2.45c-1.46,1.35 -2.65,3.09 -2.65,3.87c0,2 2.56,3.91 4.69,3.5c2.58,-0.5 2.83,-3.52 0.37,-4.31c-2.84,-0.9 -2.58,-2.37 0.64,-3.59c5.69,-2.16 17.14,2.96 17.4,7.78c0.45,8.47 -1.15,13.26 -3.42,10.19c-0.65,-0.88 -2.2,-1.92 -3.43,-2.32c-1.34,-0.42 -2.25,-1.51 -2.25,-2.7c0,-1.16 -0.45,-1.72 -1.07,-1.33c-0.59,0.36 -0.8,1.34 -0.48,2.18c0.32,0.85 -0.18,2.09 -1.14,2.79c-1.47,1.07 -1.53,1.52 -0.4,2.88c0.73,0.88 2.18,1.61 3.21,1.61c2.37,0 2.47,2.84 0.13,3.7c-3.99,1.48 -4.35,5.91 -0.75,9.29c1.37,1.29 2.8,2.04 3.17,1.66c0.38,-0.37 -0.15,-1.28 -1.16,-2.03c-1.71,-1.24 -1.43,-1.56 3.55,-4.06c3.46,-1.74 5.53,-2.31 5.77,-1.58c0.2,0.61 1.52,2.18 2.91,3.48c1.57,1.45 2.31,2.96 1.93,3.94c-1.07,2.81 1.22,1.7 2.8,-1.35c2.46,-4.74 1.95,-6.56 -2.34,-8.5c-3.65,-1.64 -3.9,-2.04 -4.42,-7.09c-0.63,-6.08 -0.02,-9.46 1.7,-9.46c0.65,0 2.96,1.83 5.14,4.08c5.74,5.93 9.79,7.63 16.82,7.07c1.54,-0.13 1.66,-0.42 0.64,-1.64c-1.01,-1.22 -0.89,-1.62 0.63,-2.18c3.79,-1.4 4.79,-5.72 1.11,-4.82c-1.75,0.42 -2.62,-0.12 -3.95,-2.48c-0.94,-1.67 -2.46,-3.03 -3.38,-3.03c-1.36,0 -1.44,0.27 -0.43,1.48c1.94,2.34 0.43,6.52 -2.35,6.52c-2.19,0 -5.19,-1.81 -19.2,-11.5l-5.77,-4l13.91,-0.29c7.66,-0.16 14.93,-0.04 16.17,0.27c1.23,0.3 6.98,4.16 12.76,8.57c12.74,9.71 18.92,13.14 22.98,12.74c5.14,-0.5 3.78,-3.2 -1.99,-3.94c-5.38,-0.69 -8.97,-1.97 -11.75,-4.18c-2.61,-2.08 -2.15,-2.54 2,-1.99c5.89,0.77 13.11,-2.42 16.72,-7.39l3.03,-4.17l50.63,-0.06c45.02,-0.06 50.77,0.11 51.94,1.52c0.93,1.12 1.02,2.05 0.31,3.18c-1.97,3.12 -4.08,3.75 -7.95,2.34c-3.32,-1.2 -3.84,-1.14 -5.64,0.66c-2.32,2.32 -2.8,8.31 -0.86,10.65c1.83,2.2 6.4,1.98 8.57,-0.41c2.45,-2.71 6.97,-2.6 8.94,0.22c1.79,2.55 2.03,7.03 0.52,9.84c-1.64,3.08 2.45,2.5 4.97,-0.7c4.25,-5.41 1.43,-11.27 -6.23,-12.91c-5.6,-1.21 -5.37,-1.94 0.79,-2.45c4.67,-0.4 6.07,-0.89 6.32,-2.25c0.43,-2.26 -2.79,-2.33 -6.98,-0.17c-4.21,2.18 -5.82,0.43 -2.51,-2.72c1.38,-1.3 2.66,-3.26 2.85,-4.36c0.33,-1.88 1.34,-2.04 15.84,-2.5zm-332.92,4.54c-2.38,-2.39 -3.2,-3.84 -2.44,-4.32c1.02,-0.65 14.08,-0.63 29.28,0.04l5.42,0.24l-5.64,3.73c-10.48,6.95 -19.9,7.06 -26.62,0.31zm192.96,4.66c-6.41,0 -11.99,-2.14 -17.55,-6.72l-3,-2.47l35.64,-0.01l-2.17,3.04c-3.41,4.79 -6.28,6.16 -12.92,6.16z" fill="#754827" fill-rule="evenodd" id="svg_12"/>
  <path d="m87.02,253.78c-2.29,-1.69 -2.84,-2.73 -2.39,-4.53c0.87,-3.44 -0.26,-2.84 -3.31,1.76c-3.25,4.91 -2.67,6.35 3.85,9.6l4.48,2.23l-0.1,7.98c-0.05,4.39 -0.4,8.28 -0.77,8.65c-0.36,0.37 -3.72,-1.91 -7.45,-5.08c-7.53,-6.39 -11.61,-8.46 -16.63,-8.46c-4.19,0 -5.19,0.9 -2.93,2.63c1.61,1.24 1.59,1.37 -0.4,1.93c-2.24,0.64 -5.15,4.98 -4.06,6.08c0.35,0.35 1.34,0.06 2.19,-0.64c1.81,-1.5 2.12,-1.27 4.34,3.17c1.09,2.18 2.52,3.45 4.16,3.68c2.41,0.34 2.43,0.28 0.75,-1.58c-2.42,-2.67 -2.19,-4.94 0.67,-6.82c2.22,-1.45 2.69,-1.45 5.6,0.05c1.74,0.9 7.6,4.94 13.02,8.98c10.47,7.79 16.1,9.95 22.27,8.56c6.83,-1.54 9.6,-4.6 8.19,-9.04c-0.92,-2.89 -5.44,-3.8 -7.17,-1.45c-1.19,1.64 -1.03,2.11 1.35,4.01c2.7,2.15 2.7,2.16 0.58,3.3c-3.2,1.71 -7.83,1.38 -13.26,-0.96c-6.38,-2.74 -8.42,-6.7 -7.45,-14.45c0.72,-5.77 2.48,-7.14 4.45,-3.45c0.59,1.09 2.01,2 3.15,2c1.74,0 2.01,0.48 1.64,3c-0.24,1.64 -0.09,3 0.35,3c1.12,0 2.92,-3.62 2.16,-4.37c-0.34,-0.34 0.14,-1.46 1.06,-2.48c2.23,-2.46 1.22,-4.76 -2.69,-6.12l-3.16,-1.1l3.24,-2.54c2.26,-1.77 3.25,-3.38 3.25,-5.29c0,-2.92 -3.6,-7.13 -6.06,-7.07c-1.06,0.02 -0.97,0.3 0.31,1.04c2.95,1.72 1.99,3.78 -2.3,4.94c-2.23,0.6 -4.3,1.74 -4.61,2.54c-0.73,1.89 -3.34,1.87 -3.34,-0.03c0,-0.8 -1.34,-2.45 -2.98,-3.67z" fill="#754827" id="svg_13"/>
  <path d="m410.13,260.1c5.54,-2.65 5.98,-4.18 2.77,-9.62c-2.27,-3.84 -4.44,-4.82 -3.39,-1.53c0.46,1.47 -0.17,2.79 -2.27,4.75c-1.6,1.5 -3.13,3.38 -3.4,4.19c-0.39,1.19 -1.01,1.05 -3.3,-0.75c-1.54,-1.22 -3.62,-2.21 -4.62,-2.21c-0.99,0 -2.44,-0.9 -3.21,-2.01c-1.39,-1.98 -1.41,-1.98 -3.17,-0.04c-2.43,2.69 -1.3,6.6 2.47,8.55c1.65,0.85 2.99,1.75 2.99,2.01c0,0.25 -1.57,1.12 -3.5,1.92c-3.38,1.41 -4.56,3.79 -2.5,5.07c0.55,0.33 1,1.66 1,2.93c0,1.28 0.7,2.9 1.56,3.62c1.37,1.13 1.48,0.96 0.9,-1.36c-0.57,-2.25 -0.26,-2.82 1.96,-3.67c1.45,-0.55 2.89,-1.68 3.21,-2.51c0.76,-1.98 2.99,-1.94 3.76,0.07c0.34,0.87 0.61,4.05 0.61,7.07c0,4.7 -0.41,5.91 -2.83,8.33c-3.95,3.95 -12.92,6.2 -17.59,4.41c-2.21,-0.85 -1.97,-3.14 0.42,-3.89c2.12,-0.68 2.37,-1.38 1.39,-3.92c-0.76,-1.98 -4.74,-2.07 -6.34,-0.14c-0.66,0.79 -1.05,2.7 -0.87,4.25c0.69,6.05 13.52,8.45 21.32,3.99c2.2,-1.26 7.95,-5.3 12.78,-8.99c8.39,-6.4 11.29,-7.56 15.14,-6.09c1.87,0.72 2.12,5.46 0.38,7.2c-0.93,0.93 -0.92,1.2 0.07,1.2c2.49,0 4.91,-2 5.56,-4.59c0.57,-2.28 1.06,-2.57 3.51,-2.08c2.48,0.5 2.78,0.31 2.32,-1.45c-0.29,-1.11 -1.6,-2.72 -2.91,-3.58c-1.7,-1.11 -2.1,-1.91 -1.38,-2.77c1.41,-1.7 0.25,-2.53 -3.52,-2.53c-5.04,0 -10.03,2.6 -16.64,8.67l-6.1,5.61l-1.21,-2.39c-0.74,-1.48 -1.02,-4.87 -0.73,-8.89l0.48,-6.5l4.88,-2.33z" fill="#754827" id="svg_14"/>
  <path d="m393.81,249.61c0.72,0.29 1.59,0.25 1.92,-0.08c0.33,-0.33 -0.26,-0.57 -1.31,-0.53c-1.17,0.05 -1.41,0.29 -0.61,0.61z" fill="#754827" id="svg_15"/>
  <path d="m58.88,259.43c3.1,0 5.22,-3.26 4.06,-6.25c-1.8,-4.63 -7.36,-1.8 -6.76,3.44c0.25,2.2 0.84,2.81 2.7,2.81z" fill="#754827" id="svg_16"/>
  <path d="m438.55,257.58c0.34,-1.36 0.12,-3.41 -0.5,-4.56c-2.42,-4.53 -8.18,-1.21 -6.45,3.72c1.32,3.79 6.07,4.36 6.95,0.84z" fill="#754827" id="svg_17"/>
  <path d="m87,274.59c0,-1.79 -8.47,-11.99 -12.21,-14.7c-5.03,-3.65 -8.07,-3.93 -7.61,-0.71c0.23,1.58 1.85,2.98 5.54,4.75c2.86,1.37 7.25,4.5 9.75,6.95c2.49,2.45 4.53,4.12 4.53,3.71z" fill="#754827" id="svg_18"/>
  <path d="m421.23,264.43c4.6,-2.21 6.27,-3.54 6.27,-5c0,-3.33 -3.86,-3 -8.07,0.69c-4.26,3.73 -11.43,12.49 -11.43,13.95c0,0.53 1.57,-0.75 3.48,-2.84c1.92,-2.09 6.3,-5.16 9.75,-6.8z" fill="#754827" id="svg_19"/>
  <path d="m249.57,267.45c0.87,-1.32 1.43,-3.61 1.25,-5.1c-0.42,-3.56 -3.99,-5 -6.23,-2.53c-2.12,2.34 -2.01,4.76 0.35,7.76c4.13,5.25 -0.67,7.32 -5.44,2.35c-1.58,-1.66 -3.24,-3 -3.69,-3c-1.38,0 -0.89,7.5 0.63,9.55c1.22,1.66 1.74,1.76 3.49,0.7c3.05,-1.87 4.89,-1.52 5.25,0.99c0.46,3.23 3.43,3.45 4.22,0.31c0.64,-2.56 2.94,-3.43 4.1,-1.55c0.74,1.19 4.18,1.33 4.88,0.19c1.11,-1.8 1.44,-9.18 0.44,-9.81c-0.58,-0.36 -2.38,0.76 -3.99,2.48c-4.93,5.28 -9.05,3.45 -5.26,-2.34z" fill="#754827" id="svg_20"/>
  <path d="m177.01,270.91c-1.38,-0.01 -4.31,-0.66 -6.51,-1.46c-2.2,-0.79 -4.68,-1.41 -5.5,-1.38c-3,0.11 -9.18,1.89 -13.63,3.91c-4.24,1.94 -4.64,1.96 -5.79,0.39c-2.81,-3.85 -17.01,-0.44 -16.38,3.94c0.23,1.61 0.9,2.04 2.8,1.82c6.56,-0.77 7.5,-0.67 7.5,0.78c0,0.82 -2.11,2.49 -4.7,3.72c-2.58,1.22 -5.18,3.14 -5.78,4.26c-0.63,1.18 -2.1,2.04 -3.5,2.04c-1.32,0 -2.68,0.45 -3.02,1c-0.92,1.48 6.55,1.22 9.53,-0.34c1.4,-0.73 6.57,-4.49 11.5,-8.37c9.93,-7.8 16.09,-11.29 19.93,-11.29c3.9,0 3.05,1.41 -2.71,4.47c-6.84,3.65 -11.09,7.72 -15.35,14.7c-2.7,4.44 -4.58,6.23 -8.62,8.25c-6.32,3.15 -10.7,3.25 -16.41,0.4c-4.51,-2.25 -6.56,-1.97 -4.43,0.6c3.23,3.9 16.36,4.58 21.64,1.12c1.38,-0.91 2.42,-1.14 2.42,-0.53c0,2.18 -4.61,7.19 -9.23,10.03c-5.28,3.25 -6.06,4.96 -2.27,4.96c3.59,0 9.4,-6.26 14.5,-15.6c7,-12.84 12.62,-20.17 17.31,-22.56c5.1,-2.61 15.89,-3.57 20.19,-1.8c2.9,1.19 2.72,1.27 -5,2.44c-13.21,2 -20.54,7.31 -23.97,17.39c-4.28,12.54 0.35,27.13 8.61,27.13l2.21,0l-2.14,-2.28c-1.42,-1.51 -1.95,-3.02 -1.56,-4.48c0.36,-1.39 -0.38,-3.82 -2.04,-6.65c-4.41,-7.52 -3.12,-15.86 3.43,-22.13c3.81,-3.65 4.63,-2.72 1.81,2.06c-4.07,6.9 -1.53,20.48 3.99,21.3c2.15,0.31 2.98,-1.2 1.25,-2.27c-0.49,-0.3 -0.68,-1.41 -0.41,-2.44c0.27,-1.04 0.01,-2.19 -0.59,-2.56c-1.92,-1.19 -1.17,-2.55 1.41,-2.55c2.92,0 3.04,-0.91 1.01,-7.6c-3.23,-10.65 -1.81,-12.16 11.88,-12.52c9.69,-0.26 9.94,-0.21 12.25,2.48c2.89,3.37 2.98,4.64 0.33,4.64c-2.67,0 -6.97,2.85 -6.97,4.61c0,1.82 1.44,1.76 3,-0.11c1.57,-1.9 2.4,-1.88 6.63,0.13c1.9,0.89 3.67,1.4 3.94,1.13c0.82,-0.82 -1.24,-8.62 -2.98,-11.27c-0.89,-1.36 -2.69,-3.17 -4,-4.03c-3.4,-2.22 -12.6,-5.46 -15.58,-5.48z" fill="#754827" id="svg_21"/>
  <path d="m349,272.31c0,2.15 -0.75,2.06 -7.4,-0.88c-8.19,-3.62 -14.17,-3.3 -31.1,1.68c-8.71,2.57 -13.85,7.34 -14.89,13.84c-0.37,2.33 -0.48,4.44 -0.23,4.69c0.25,0.24 1.61,-0.32 3.03,-1.25c2.64,-1.73 7.59,-1.37 7.59,0.55c0,0.54 0.45,0.99 1,0.99c0.55,0 1,-0.67 1,-1.48c0,-1.58 -5.19,-4.71 -7.1,-4.28c-2.23,0.5 -1.95,-2.03 0.55,-5.01c2.54,-3.01 2.56,-3.01 11.3,-2.57c11.68,0.6 13.13,0.98 14.41,3.78c0.83,1.83 0.71,3.49 -0.54,7.15c-2.24,6.58 -2.13,9.41 0.38,9.41c2.15,0 2.68,1.46 0.93,2.54c-0.59,0.36 -0.81,1.32 -0.5,2.13c0.31,0.81 0.1,2.34 -0.47,3.4c-0.85,1.58 -0.7,1.93 0.85,1.93c2.37,0 4.58,-2.53 6.05,-6.9c1.75,-5.23 1.37,-9.37 -1.33,-14.46c-1.36,-2.55 -2.23,-4.64 -1.94,-4.64c1.88,0 4.71,2.65 6.99,6.55c3.67,6.25 3.7,12.57 0.09,18.01c-2.09,3.16 -2.55,4.78 -2.06,7.24c0.48,2.4 0.24,3.32 -0.99,3.79c-2.3,0.88 -2.01,2.41 0.46,2.41c6.27,0 10.98,-11.81 8.99,-22.56c-2.42,-13.1 -10.79,-19.96 -27.07,-22.19c-6.43,-0.88 -6.47,-0.91 -3.5,-2.17c1.92,-0.81 5.65,-1.11 10.37,-0.82c4.71,0.29 6.79,0.12 5.75,-0.46c-3.03,-1.69 -1.79,-3.09 2.26,-2.55c4.1,0.55 14.27,6.96 24.12,15.19c5.67,4.74 11.63,7.13 15.06,6.03c2.75,-0.86 1.41,-2.47 -2.05,-2.47c-1.91,0 -3.07,-0.62 -3.46,-1.84c-0.32,-1.01 -2.82,-2.89 -5.56,-4.17c-3.48,-1.63 -4.99,-2.93 -4.99,-4.28c0,-1.58 0.48,-1.83 2.5,-1.33c1.38,0.34 3.62,0.89 4.99,1.23c3.49,0.86 4.49,-2.08 1.67,-4.9c-2.84,-2.83 -15.16,-3.92 -15.16,-1.33z" fill="#754827" id="svg_22"/>
  <path d="m238.5,283.58c-1.1,-1.18 -3.3,-3.17 -4.89,-4.4c-4.16,-3.25 -14.86,-3.23 -19.71,0.03c-4.06,2.74 -6.31,6.96 -5.47,10.29c1.01,4.02 4.2,3.13 4.92,-1.37c0.89,-5.53 5.44,-9.56 10.9,-9.64c4.89,-0.07 6.11,1.39 2.64,3.15c-4.66,2.36 -7.81,8.29 -4.41,8.29c0.81,0 1.77,-1.15 2.12,-2.54c0.92,-3.67 5.78,-5.96 9.43,-4.45c4.43,1.83 4.42,3.71 -0.04,5.99c-6.15,3.14 -9.09,11.59 -4.63,13.3c1.08,0.42 1.27,-0.39 0.9,-3.73c-0.43,-3.74 -0.15,-4.52 2.26,-6.41c1.51,-1.19 3.59,-2.16 4.61,-2.16c1.57,0 1.87,0.78 1.87,4.92c0,3.8 -0.57,5.6 -2.52,7.92c-2.96,3.52 -9.98,7.16 -13.8,7.16c-3.21,0 -3.35,-1.27 -0.71,-6.44c2.32,-4.55 1.8,-5.98 -1.83,-5.05c-1.45,0.38 -3.67,0.8 -4.92,0.95c-3.4,0.4 -3.79,1.3 -1.93,4.45c1.53,2.59 1.54,2.98 0.12,4.16c-1.35,1.12 -2.19,0.64 -5.88,-3.38c-4.64,-5.06 -8.3,-6.05 -12.09,-3.28c-2.47,1.81 -2.1,2.12 4.56,3.74c7.04,1.72 7.46,4.04 0.9,4.98c-5.45,0.78 -10.41,3.16 -11.28,5.41c-1.25,3.25 -0.56,6.6 1.84,9c2.86,2.86 4.76,3.09 7.02,0.83c2.47,-2.47 1.49,-4.87 -1.98,-4.87c-3.54,0 -4.53,-2.71 -2,-5.5c1.85,-2.05 10.7,-4.53 13.01,-3.64c2.08,0.8 1.86,3.99 -0.42,6.05c-2.2,2 -4.65,7.36 -3.76,8.25c1.27,1.27 5.65,-2.83 7.51,-7.03c2.17,-4.92 3.82,-6.37 5.42,-4.78c0.78,0.78 0.55,2.08 -0.8,4.6c-1.54,2.85 -1.65,3.75 -0.62,4.78c1.04,1.02 1.47,0.94 2.23,-0.41c0.52,-0.92 2.52,-2.19 4.44,-2.83c4.07,-1.34 4.34,-2.46 1.24,-5.06c-2.84,-2.39 -1.46,-3.51 5.44,-4.46c8.27,-1.14 13.79,-8.63 13.8,-18.72c0.01,-3.15 0.35,-3.75 2.12,-3.75c2.04,0 2.1,0.35 1.73,11c-0.32,9.54 -0.16,11 1.22,11c1.38,0 1.53,-1.43 1.13,-11.09l-0.45,-11.09l2.38,0.34c2.13,0.3 2.44,0.97 2.96,6.34c0.64,6.67 1.59,8.93 5.17,12.27c2.43,2.27 8.75,4.71 8.75,3.38c0,-0.38 -1.63,-1.58 -3.62,-2.65c-5.67,-3.05 -8.56,-7.52 -8.19,-12.67c0.4,-5.49 2.67,-6.13 6.86,-1.94c2.7,2.7 2.97,3.48 2.34,6.83c-0.64,3.44 -0.56,3.65 0.95,2.4c3.79,-3.13 1.01,-10.24 -4.97,-12.74c-5.36,-2.24 -3.84,-6.38 2.33,-6.38c3.43,0 7.3,2.86 7.3,5.39c0,0.76 0.68,1.65 1.5,1.97c1.01,0.38 1.5,-0.05 1.5,-1.31c0,-3.43 -1.2,-5.11 -4.71,-6.58c-4.54,-1.9 -3.79,-4 1.39,-3.9c6.39,0.12 11.32,4.93 11.32,11.04c0,2.05 0.43,2.46 2.25,2.21c1.73,-0.25 2.32,-1.08 2.57,-3.63c0.26,-2.72 -0.38,-3.99 -3.63,-7.25c-3.81,-3.81 -4.19,-3.94 -10.62,-3.94c-7.73,0 -11.35,1.53 -15.05,6.38c-2.56,3.36 -2.62,3.38 -9.3,2.91c-5.21,-0.37 -7.17,-0.97 -8.72,-2.64z" fill="#754827" id="svg_23"/>
  <path d="m373.3,298.05c-7.44,4.59 -18.24,0.49 -24.64,-9.36c-3.61,-5.57 -10.66,-12.9 -10.66,-11.08c0,0.59 0.69,1.64 1.53,2.34c1.49,1.24 10.52,15.55 13.48,21.36c1.89,3.71 8.61,11.34 11.21,12.73c1.55,0.83 2.37,0.73 3.56,-0.47c1.4,-1.4 1.22,-1.72 -1.86,-3.35c-3.53,-1.85 -12.39,-10.16 -11.65,-10.9c0.23,-0.23 2.05,0.26 4.04,1.09c5.26,2.2 14.44,1.96 18.44,-0.47c1.79,-1.09 3.25,-2.44 3.25,-3c0,-1.66 -3.03,-1.16 -6.7,1.11z" fill="#754827" id="svg_24"/>
  <path d="m101.49,308.52c-2.75,-1.88 -6.25,-5.03 -7.78,-7c-2.87,-3.69 -4.14,-4.33 -5.2,-2.62c-1.54,2.5 3.81,7.75 11.29,11.05c6.64,2.94 7.29,2.4 1.69,-1.43z" fill="#754827" id="svg_25"/>
  <path d="m106.4,301.76c0.88,-1.25 1.6,-2.63 1.6,-3.06c0,-1.21 -3.47,-0.91 -4.8,0.43c-0.66,0.66 -1.2,2.37 -1.2,3.8c0,2.46 1.57,5 3.11,5c0.39,0 0.47,-0.88 0.2,-1.94c-0.28,-1.07 0.21,-2.97 1.09,-4.23z" fill="#754827" id="svg_26"/>
  <path d="m281.53,303.52c1.82,-2.77 1.72,-2.88 -3.53,-3.93c-1.37,-0.28 -3.51,-0.82 -4.75,-1.2c-2.89,-0.9 -2.98,1.18 -0.29,6.45c2.18,4.27 1.89,5.06 -1.88,5.15c-2.54,0.06 -2.54,0.08 -0.33,0.97c2.78,1.11 2.87,2.56 0.25,4.2c-2.94,1.83 -2.45,3.46 1.42,4.74c1.88,0.62 3.96,1.78 4.62,2.58c0.66,0.79 1.6,1.45 2.08,1.45c1.47,0 0.98,-4.68 -0.62,-6c-1.79,-1.49 -1.95,-3.61 -0.34,-4.61c1.47,-0.9 5.84,4.04 5.84,6.59c0,1.78 4.31,6.02 6.13,6.02c1.84,0 0.74,-3.9 -2.13,-7.5c-4.98,-6.27 -3.48,-8.23 4.94,-6.43c5.33,1.15 8.44,3.76 7.86,6.6c-0.27,1.33 -1.12,1.75 -3.1,1.53c-3.63,-0.38 -4.66,2.28 -1.93,5.01c4.69,4.69 12.11,-2.5 9.1,-8.83c-1.67,-3.52 -7.08,-6.38 -12.06,-6.38c-2.03,0 -3.95,-0.42 -4.27,-0.94c-0.83,-1.34 3.46,-4.06 6.43,-4.08c3.96,-0.02 5.7,-1.48 4.09,-3.41c-1.82,-2.2 -7.66,-2.01 -9.81,0.32c-0.96,1.05 -2.81,3.07 -4.11,4.5c-1.29,1.43 -2.77,2.61 -3.28,2.61c-1.81,0 -1.99,-2.88 -0.33,-5.41z" fill="#754827" id="svg_27"/>
  <path d="m390.22,307.14c2.3,-1.89 2.76,-4.81 1.11,-7.15c-1.59,-2.27 -4.35,-2.79 -4.3,-0.81c0.02,0.68 0.65,2.05 1.4,3.04c0.75,0.99 1.1,2.79 0.79,4c-0.49,1.9 -0.35,2.03 1,0.92z" fill="#754827" id="svg_28"/>
  <path d="m394.41,310.19c5.72,-2.12 11.59,-7.26 11.59,-10.15c0,-3.24 -2.1,-2.39 -6.5,2.64c-2.2,2.51 -5.48,5.45 -7.29,6.53c-4.48,2.67 -3.51,3.1 2.2,0.98z" fill="#754827" id="svg_29"/>
  <path d="m114.12,311.57c0.92,-2.02 0.9,-2.92 -0.09,-4.12c-1.33,-1.59 -5.03,-2.12 -5.03,-0.72c0,0.44 0.48,1.28 1.08,1.87c0.59,0.6 0.93,2.37 0.75,3.95c-0.26,2.29 -0.89,2.94 -3.08,3.19c-3.4,0.39 -3.64,2.93 -0.34,3.75c3.33,0.84 6.85,-1.18 6.11,-3.51c-0.32,-1 -0.05,-2.99 0.6,-4.41z" fill="#754827" id="svg_30"/>
  <path d="m386.79,316.07c-3.99,-0.61 -5.12,-5.02 -2.14,-8.32c1.56,-1.71 1.53,-1.82 -0.37,-1.82c-3.17,0 -4.11,2.05 -3.54,7.76c0.45,4.6 0.84,5.34 3.04,5.89c2.63,0.67 5.56,-0.53 5.39,-2.19c-0.05,-0.53 -1.12,-1.12 -2.38,-1.32z" fill="#754827" id="svg_31"/>
  <path d="m120.29,318.74c2.26,0.44 4.21,-3.51 2.66,-5.38c-1.56,-1.87 -3.39,-1.82 -5.02,0.15c-1.52,1.84 -0.22,4.72 2.36,5.23z" fill="#754827" id="svg_32"/>
  <path d="m374.29,318.74c2.26,0.44 4.21,-3.51 2.66,-5.38c-1.56,-1.87 -3.39,-1.82 -5.02,0.15c-1.52,1.84 -0.22,4.72 2.36,5.23z" fill="#754827" id="svg_33"/>
  <path d="m101.53,314.93c0.81,0 1.47,-0.45 1.47,-1c0,-2.72 -7.72,0.07 -8.91,3.22c-1.76,4.66 2.05,5.33 4.41,0.78c0.85,-1.66 2.22,-3 3.03,-3z" fill="#754827" id="svg_34"/>
  <path d="m401.53,320.93c2.05,0 1.84,-3.36 -0.35,-5.34c-2.29,-2.07 -8.18,-3.36 -8.18,-1.79c0,0.62 0.89,1.13 1.97,1.13c1.19,0 2.6,1.2 3.53,3c0.85,1.64 2.21,3 3.03,3z" fill="#754827" id="svg_35"/>
  <path d="m195.96,6.27c3.62,0.72 4.71,-0.72 2.99,-3.94c-1.65,-3.08 -4.39,-3.06 -7.49,0.05c-2.72,2.71 -3.19,7 -1.08,9.78c1.82,2.4 7.83,4.77 12.09,4.77c2.5,0 3.53,0.44 3.53,1.52c0,1.68 -3.84,3.48 -7.44,3.48c-1.28,0 -2.87,0.66 -3.55,1.48c-1.02,1.23 -0.77,1.66 1.45,2.5c4.63,1.76 6.54,1.14 10.75,-3.48c2.26,-2.48 4.66,-4.5 5.34,-4.5c1.94,0 2.45,2.61 0.91,4.65c-2.1,2.78 -1.74,4.35 0.99,4.35c1.35,0 3.61,0.52 5.03,1.17c4.08,1.86 5.1,-0.11 2.6,-5.02c-2.63,-5.15 -2.61,-6.15 0.11,-6.15c2.15,0 2.15,-0.04 0.25,-1.53c-1.91,-1.5 -1.9,-1.56 0.31,-3.12c3.2,-2.27 2.79,-4.02 -1.24,-5.35c-1.92,-0.64 -3.92,-1.91 -4.44,-2.83c-0.77,-1.36 -1.19,-1.44 -2.23,-0.4c-1.03,1.02 -1.04,1.63 -0.06,3c2.05,2.86 2.46,4.15 1.85,5.75c-0.89,2.33 -4.29,-0.21 -6.01,-4.51c-1.84,-4.59 -5.27,-7.77 -6.77,-6.27c-0.8,0.8 -0.24,2.36 2.03,5.73c4.97,7.37 3.74,9.34 -4.67,7.46c-5.61,-1.26 -8.21,-3.38 -8.21,-6.72c0,-2.2 0.32,-2.4 2.96,-1.87z" fill="#71421F" id="svg_36"/>
  <path d="m306,7.34c0,-1.18 -0.93,-3.33 -2.07,-4.78c-2.52,-3.2 -6.26,-3.43 -8.3,-0.52c-2.15,3.07 -1.07,4.92 2.46,4.22c2.61,-0.52 2.91,-0.32 2.91,1.97c0,3.4 -2.26,5.48 -6.78,6.24c-6.49,1.09 -9.23,0.86 -9.19,-0.79c0.01,-0.69 1.36,-3.02 3,-5.18c2.65,-3.5 3.94,-7.58 2.4,-7.58c-2.06,0 -4.82,2.76 -6.36,6.34c-2.19,5.11 -4.68,7.46 -6.25,5.89c-1.15,-1.15 -0.78,-2.46 1.63,-5.73c0.96,-1.32 1.16,-2.51 0.56,-3.48c-0.77,-1.25 -1.25,-1.16 -3.21,0.57c-1.26,1.12 -3.6,2.59 -5.19,3.26l-2.88,1.24l2.36,2.51c2.8,2.98 1.94,3.87 -4.69,4.87c-8.01,1.2 -13.4,8.23 -13.4,17.49c0,4.78 -0.14,5.04 -2.63,5.04l-2.63,0l0.46,-10.99c0.39,-9.59 0.24,-11 -1.14,-11c-1.38,0 -1.54,1.45 -1.22,11c0.37,10.64 0.31,10.99 -1.73,10.99c-1.77,0 -2.11,-0.6 -2.12,-3.75c-0.01,-9.3 -6.17,-18.29 -12.46,-18.2l-3.03,0.04l3.63,1.92c6.03,3.19 8.87,7.37 8.87,13.07c0,5.34 -0.56,5.72 -4.98,3.44c-3.35,-1.74 -4.43,-4.36 -3.52,-8.54c0.82,-3.71 -1.06,-4.03 -2.69,-0.45c-1.72,3.77 1.03,8.85 6.25,11.5c3.99,2.04 4.07,2.18 2.38,4.04c-3.19,3.52 -11.44,1.52 -11.44,-2.77c0,-0.58 -0.67,-1.61 -1.49,-2.28c-1.2,-1.01 -1.6,-0.93 -2.11,0.38c-0.89,2.32 2.24,6.58 5.72,7.8c4.32,1.5 2.95,3.32 -2.46,3.24c-5.76,-0.07 -9.3,-3.05 -10.95,-9.21c-0.92,-3.47 -1.54,-4.25 -3.18,-4.02c-2.95,0.43 -3.09,4.67 -0.29,8.83c5.83,8.66 18.75,9.1 26.7,0.91c3.7,-3.82 4.05,-3.95 10.48,-3.95c6.44,0 6.78,0.13 10.37,3.9c8.15,8.56 22.39,7.55 27.23,-1.93c1.6,-3.15 1.8,-4.43 0.94,-6.04c-1.63,-3.04 -4.27,-1.97 -5.09,2.06c-0.43,2.12 -2.13,4.78 -4.34,6.81c-2.97,2.72 -4.29,3.26 -7.33,3.01c-4.69,-0.39 -4.77,-2.28 -0.2,-4.56c2.81,-1.4 3.56,-2.41 3.82,-5.1c0.23,-2.44 -0.04,-3.24 -1,-2.92c-0.72,0.24 -1.46,1.4 -1.64,2.59c-0.85,5.77 -13.18,7.27 -13.18,1.61c0,-0.65 1.37,-1.75 3.03,-2.44c6.02,-2.49 9.1,-9.97 5.39,-13.05c-1.41,-1.17 -1.51,-0.91 -0.9,2.35c0.61,3.2 0.32,4.03 -2.34,6.69c-1.66,1.66 -3.96,3.02 -5.1,3.02c-1.76,0 -2.08,-0.61 -2.08,-4.05c0,-2.22 0.64,-5.29 1.43,-6.81c2.71,-5.25 12.78,-10.42 17.07,-8.77c1.37,0.52 1.32,1.07 -0.47,4.57c-2.01,3.94 -2.63,7.07 -1.4,7.07c0.56,0 6.16,-1.44 10.23,-2.63c1.09,-0.32 1.03,-0.9 -0.33,-2.97c-1.73,-2.65 -1.46,-5.4 0.55,-5.4c0.62,0 3.06,2.09 5.41,4.65c3.97,4.33 4.52,4.6 8.01,4.04c2.06,-0.34 3.97,-0.83 4.25,-1.11c1.2,-1.2 -0.9,-3.58 -3.15,-3.58c-3.74,0 -7.6,-1.77 -7.6,-3.48c0,-1.08 1.03,-1.52 3.53,-1.52c7.13,0 13.47,-4.52 13.47,-9.59z" fill="#71421F" id="svg_37"/>
  <path d="m101.48,11.92c-1.38,-0.53 -2.95,-2.09 -3.47,-3.48c-1.07,-2.81 -3.48,-3.34 -4.39,-0.96c-0.91,2.37 3.73,6.45 7.33,6.45c3.71,0 3.9,-0.73 0.53,-2.01z" fill="#71421F" id="svg_38"/>
  <path d="m160.44,8.35c0.86,-0.63 1.56,-1.43 1.56,-1.79c0,-1.01 -2.28,-0.72 -4.9,0.63c-4.51,2.32 -6.36,6.07 -6.85,13.92c-1.04,16.83 8.22,27.44 25.66,29.39c5.71,0.64 6.21,0.87 4.56,2.07c-2.16,1.58 -10.49,1.78 -15.41,0.37c-4.38,-1.25 -5.07,-0.63 -1.19,1.09c3.49,1.54 3.16,2.89 -0.7,2.89c-3.51,0 -12.59,-5.42 -22.67,-13.54c-8.07,-6.51 -12.77,-8.72 -16.47,-7.75c-2.63,0.68 -1.59,2.29 1.49,2.29c1.4,0 2.87,0.86 3.5,2.04c0.6,1.12 3.2,3.04 5.78,4.27c2.59,1.22 4.7,2.89 4.7,3.71c0,1.45 -0.94,1.55 -7.5,0.78c-3.47,-0.41 -4.09,3.55 -0.83,5.29c5.74,3.08 14.83,3.19 14.83,0.18c0,-1.02 0.54,-1.25 1.75,-0.74c7.97,3.34 12.16,4.61 15.66,4.75c6.1,0.24 19.28,-2.93 26.23,-6.31c6.53,-3.17 8.52,-5.84 9.89,-13.22c0.77,-4.16 -0.48,-4.86 -3.97,-2.21c-2.68,2.02 -5.19,1.83 -6.84,-0.53c-1.3,-1.85 -2.72,-1.77 -2.72,0.16c0,1.77 4.12,4.83 6.5,4.83c3.23,0 3.19,2 -0.08,5.08c-2.41,2.26 -3.19,2.4 -11.75,2.09c-13.69,-0.5 -15.31,-2.18 -12.16,-12.57c2.03,-6.69 1.91,-7.59 -1.01,-7.59c-2.58,0 -3.15,-0.9 -1.63,-2.56c0.47,-0.52 1.14,-2.44 1.49,-4.26c0.56,-3.01 0.41,-3.29 -1.62,-3c-5.72,0.81 -8.21,15.08 -3.86,22.12c2.99,4.84 1.28,4.72 -3.19,-0.23c-5.26,-5.82 -6.21,-15.6 -1.97,-20.31c0.86,-0.95 1.69,-3.64 1.86,-5.97c0.17,-2.38 0.98,-4.73 1.86,-5.37z" fill="#71421F" id="svg_39"/>
  <path d="m344.36,23.97c0.1,-8.54 -1.72,-13.68 -5.71,-16.12c-3.54,-2.16 -4.29,-2.31 -5.09,-1.03c-0.3,0.49 0.14,1.16 0.98,1.48c1,0.39 1.46,1.71 1.33,3.86c-0.24,3.79 0.87,7.77 2.16,7.77c0.49,0 1.37,1.77 1.96,3.95c1.47,5.47 -0.36,12.23 -4.5,16.62c-4.25,4.52 -6.08,4.38 -2.96,-0.22c4.06,-5.97 2.44,-18.7 -2.74,-21.46c-2.62,-1.41 -2.75,-1.13 -1.79,4.1c0.91,4.97 0.5,6.41 -1.6,5.6c-1.88,-0.72 -1.83,2.93 0.1,8.4c1.92,5.44 1.89,6.31 -0.31,9.02c-1.64,2.02 -2.82,2.27 -12.02,2.48c-10.2,0.25 -10.21,0.24 -12.69,-2.7c-1.36,-1.62 -2.48,-3.28 -2.48,-3.7c0,-0.41 1.64,-1.16 3.65,-1.67c3.74,-0.95 6.41,-3.7 4.98,-5.12c-0.44,-0.44 -1.37,-0.01 -2.07,0.95c-1.56,2.13 -4.51,2.25 -7.12,0.28c-3.11,-2.35 -3.74,-1.81 -3.03,2.62c1.34,8.39 6.03,12.69 16.8,15.4c3.46,0.87 8.58,2.22 11.39,3.01c5.82,1.65 11.83,0.89 19.63,-2.45c4.4,-1.89 4.79,-1.91 5.68,-0.32c1.27,2.27 9.4,2.16 13.9,-0.18c2.46,-1.28 3.23,-2.3 3,-3.92c-0.31,-2.23 -0.76,-2.32 -7.81,-1.49c-4.24,0.5 -2.91,-2.51 2.18,-4.94c2.57,-1.23 4.96,-3.14 5.32,-4.25c0.44,-1.4 1.51,-2.02 3.51,-2.02c3.46,0 4.8,-1.61 2.05,-2.47c-3.56,-1.14 -9.5,1.35 -15.57,6.53c-9.87,8.4 -20.46,14.94 -24.19,14.94c-3.59,0 -4.44,-1.5 -1.4,-2.46c5.9,-1.88 13.94,-8.57 18.38,-15.3c3.86,-5.86 5.57,-7.51 10.2,-9.77c6.14,-3 12.14,-3.02 15.43,-0.05c2.02,1.83 6.45,2.15 5.87,0.42c-1.42,-4.24 -14.94,-6.35 -20.92,-3.26c-1.68,0.86 -3.27,1.35 -3.53,1.08c-1.5,-1.49 4.32,-7.46 10.61,-10.9c3.33,-1.81 3.33,-3.75 0,-3.75c-3.55,0 -9.46,6.73 -15.95,18.18c-7.83,13.81 -12.52,19.13 -18.73,21.24c-5.67,1.93 -15.22,2.05 -17.72,0.23c-1.63,-1.2 -1.08,-1.43 4.9,-2.04c16.25,-1.66 25.72,-11.37 25.92,-26.57z" fill="#71421F" id="svg_40"/>
  <path d="m397.47,13.52c3.12,-0.78 5.53,-3.25 5.53,-5.67c0,-2.9 -2.75,-2.31 -4.43,0.95c-0.82,1.58 -2.52,3.18 -3.78,3.56c-3,0.92 -0.55,1.97 2.68,1.16z" fill="#71421F" id="svg_41"/>
  <path d="m113.52,10.87c0.38,-1.2 -0.1,-2.19 -1.41,-2.88c-2.06,-1.11 -2.46,-1.13 -5.36,-0.38c-2.74,0.72 -2.05,3.15 1,3.5c2.15,0.25 2.82,0.91 3.06,3.02c0.17,1.48 -0.18,3.62 -0.78,4.75c-0.93,1.73 -0.81,2.05 0.81,2.05c3.15,0 4.66,-2.61 3.28,-5.65c-0.65,-1.42 -0.92,-3.41 -0.6,-4.41z" fill="#71421F" id="svg_42"/>
  <path d="m386.77,11.11c2.57,-0.37 2.99,-2.68 0.65,-3.58c-3.88,-1.49 -6.05,0.75 -6.82,7.03c-0.66,5.33 0.01,6.37 4.14,6.37c1.34,0 1.3,-0.3 -0.27,-2.04c-2.39,-2.64 -1.01,-7.31 2.3,-7.78z" fill="#71421F" id="svg_43"/>
  <path d="m122.93,14.06c0.58,-1.1 0.8,-2.66 0.49,-3.49c-1.5,-3.89 -6.86,-1.83 -6.26,2.41c0.44,3.18 4.26,3.89 5.77,1.08z" fill="#71421F" id="svg_44"/>
  <path d="m376.36,15.62c2.28,-0.88 2.08,-5.39 -0.29,-6.66c-2.48,-1.33 -2.59,-1.31 -4.03,0.42c-2.44,2.94 0.79,7.59 4.32,6.24z" fill="#71421F" id="svg_45"/>
  <path d="m146,33.49c-3.03,-5.42 -7.7,-12.27 -10.4,-15.22c-4.65,-5.09 -7.74,-6.55 -9.11,-4.34c-0.34,0.56 0.87,1.8 2.7,2.75c4.15,2.19 10.81,8.84 10.81,10.81c0,1.3 -0.29,1.29 -2.31,-0.04c-5.17,-3.38 -16.01,-3.16 -20.67,0.43c-3.79,2.91 -1.54,3.7 3.53,1.23c5.51,-2.68 9.71,-2.74 14.95,-0.22c5.47,2.63 6.61,3.7 10.69,10.03c3.75,5.83 6.43,8.57 11.31,11.6c2.39,1.48 2.09,0.94 -1.5,-2.65c-2.47,-2.48 -6.97,-8.95 -10,-14.38z" fill="#71421F" id="svg_46"/>
  <path d="m103.08,17.38c1.6,-0.83 2.92,-1.72 2.92,-1.98c0,-1.02 -1.93,-0.35 -8.05,2.78c-7.15,3.65 -11.12,7.98 -9.14,9.96c0.95,0.95 2.32,0.07 6.28,-4.02c2.78,-2.87 6.38,-5.9 7.99,-6.74z" fill="#71421F" id="svg_47"/>
  <path d="m406,27.12c0,-2.61 -5.74,-7.75 -11.33,-10.13c-5.75,-2.46 -7.11,-2.57 -3.67,-0.33c1.38,0.9 4.82,4.03 7.66,6.95c5.43,5.59 7.34,6.5 7.34,3.51z" fill="#71421F" id="svg_48"/>
  <path d="m106.42,25.85c-1,-0.82 -1.44,-2.36 -1.18,-4.12c0.48,-3.23 -0.69,-3.7 -2.21,-0.87c-2.16,4.04 -0.58,8.07 3.17,8.07c2.22,0 2.32,-1.33 0.22,-3.08z" fill="#71421F" id="svg_49"/>
  <path d="m389.02,28.93c3,0 4.49,-4.58 2.48,-7.64c-2.07,-3.17 -2.5,-2.99 -2.5,1.08c0,1.89 -0.45,3.72 -1,4.06c-1.7,1.05 -1.11,2.5 1.02,2.5z" fill="#71421F" id="svg_50"/>
  <path d="m118.07,44.8c1.64,-3.07 -0.29,-6.65 -4.54,-8.43c-7.69,-3.21 -16.25,-0.64 -26.53,7.97c-3.03,2.53 -7.83,5.82 -10.68,7.31c-5.08,2.66 -5.21,2.68 -7.25,0.84c-2.5,-2.26 -2.63,-4.29 -0.41,-6.74c1.53,-1.7 1.53,-1.83 0,-1.83c-2.04,0 -5.66,3.49 -5.66,5.45c0,2.13 -1.69,2.79 -3.98,1.57c-1.19,-0.64 -2.02,-0.69 -2.02,-0.13c0,2.34 1.48,4.35 3.89,5.27c2.4,0.91 2.47,1.1 0.88,2.27c-2.31,1.69 -1.22,2.58 3.15,2.55c4.34,-0.02 10.52,-2.8 14.58,-6.54c1.65,-1.52 4.22,-3.88 5.72,-5.25l2.71,-2.49l1,2.62c0.55,1.45 0.73,5.48 0.41,8.97c-0.59,6.32 -0.6,6.34 -5.21,8.77c-2.54,1.35 -4.76,3.17 -4.92,4.06c-0.33,1.75 3.76,8.77 5.15,8.84c0.47,0.03 0.57,-1.08 0.23,-2.47c-0.51,-2.01 -0.15,-2.73 1.78,-3.61c1.32,-0.6 2.91,-2.2 3.53,-3.55l1.12,-2.46l2.54,2c1.39,1.1 3.86,2.29 5.49,2.65c3.28,0.72 3.88,2.87 1.21,4.36c-0.96,0.54 -1.4,1.31 -0.99,1.73c0.96,0.96 6.39,-4.2 7.04,-6.69c0.58,-2.22 -2.79,-6.92 -4.97,-6.92c-2.3,0 -1.01,-2.37 1.64,-2.99c3.56,-0.84 4.97,-3.79 2.65,-5.52c-1.04,-0.76 -1.63,-2.04 -1.32,-2.84c0.3,-0.8 -0.32,-2.25 -1.39,-3.21c-1.88,-1.71 -1.92,-1.67 -1.31,1.36c0.55,2.73 0.31,3.19 -1.92,3.75c-1.4,0.35 -2.79,1.27 -3.09,2.04c-1.06,2.78 -3.33,1.44 -3.96,-2.34c-1.51,-9.12 0.44,-13.07 8.09,-16.35c5.11,-2.18 8.13,-2.37 11.72,-0.73c2.42,1.1 3.48,2.83 1.74,2.83c-2,0 -4.26,2.66 -3.64,4.28c0.98,2.54 6.09,2.27 7.52,-0.4z" fill="#71421F" id="svg_51"/>
  <path d="m408.5,45.17c-4.4,-3.31 -9.79,-6.97 -11.99,-8.14c-6.06,-3.21 -14.19,-2.52 -18.74,1.6c-3.63,3.29 -1.31,8.79 3.42,8.12c3.02,-0.43 3.69,-3.78 0.9,-4.51c-4.37,-1.15 -1.1,-5.32 4.17,-5.32c4.22,0 11.68,3.12 13.74,5.73c2.63,3.35 2.92,14.98 0.4,15.95c-0.88,0.34 -1.95,0.06 -2.37,-0.62c-0.42,-0.68 -1.83,-1.78 -3.15,-2.45c-1.49,-0.75 -2.35,-2.04 -2.3,-3.43c0.05,-1.23 -0.4,-2.07 -1,-1.87c-0.59,0.21 -1.09,1.29 -1.11,2.42c-0.02,1.12 -0.63,2.77 -1.36,3.65c-1.47,1.76 -0.87,4.46 1.12,5.05c2.72,0.82 4.05,1.18 4.18,1.8c0.14,0.6 -0.84,1.45 -2.75,3.19c-2.01,1.85 -3.66,3.99 -3.66,4.77c0,1.42 5.97,7.81 7.3,7.81c1.63,0 0.53,-1.81 -1.41,-2.31c-2.88,-0.75 -1.9,-2.97 1.86,-4.21c1.7,-0.57 4.1,-1.92 5.32,-3c1.87,-1.66 2.3,-1.74 2.74,-0.48c0.29,0.83 1.83,2.73 3.43,4.23c2.1,1.96 2.73,3.28 2.27,4.75c-1.05,3.31 1.02,2.31 3.93,-1.89c3.4,-4.9 2.49,-7.18 -3.82,-9.59l-4.4,-1.68l-0.46,-6.66c-0.28,-4 0,-7.58 0.7,-8.96c1.15,-2.29 1.21,-2.27 7.53,3.37c7.24,6.47 11.21,8.43 16.98,8.43c4.07,0 4.9,-0.73 2.98,-2.65c-0.74,-0.73 -0.28,-1.55 1.5,-2.72c3.16,-2.07 3.68,-6.3 0.57,-4.64c-1.71,0.92 -2.16,0.61 -3.41,-2.37c-0.78,-1.88 -2.4,-3.73 -3.59,-4.11c-2.63,-0.84 -3.82,0.09 -2.2,1.71c1.83,1.84 1.39,5.6 -0.8,6.77c-2.76,1.48 -6.79,-0.4 -16.52,-7.74z" fill="#71421F" id="svg_52"/>
  <path d="m254.59,49.88c-3.05,1.63 -5.59,0.76 -5.59,-1.92c0,-1.12 -0.6,-2.04 -1.33,-2.04c-1.83,0 -2.67,1 -2.67,3.17c0,2.13 -2.14,2.37 -5.07,0.58c-1.75,-1.06 -2.27,-0.96 -3.49,0.7c-1.63,2.19 -1.97,9.55 -0.45,9.55c0.55,0 2.2,-1.34 3.67,-3c5,-5.61 8.42,-2.79 4.63,3.82c-1.41,2.45 -1.5,3.43 -0.52,5.58c1.26,2.76 4.03,3.4 6.03,1.4c1.69,-1.68 1.49,-5.93 -0.39,-8.62c-1.73,-2.47 -1.27,-5.18 0.87,-5.18c0.74,0 2.64,1.35 4.22,3c4.26,4.45 5.59,3.98 4.85,-1.75c-0.77,-6 -1.64,-6.96 -4.76,-5.29z" fill="#71421F" id="svg_53"/>
  <path clip-rule="evenodd" d="m203.52,57.98c-0.34,-1.08 -1.47,-2.22 -2.51,-2.55c-1.23,-0.39 -2,-1.72 -2.2,-3.8l-0.31,-3.21l-2.35,3.98c-2.75,4.65 -2.22,6.17 3.03,8.79c3.32,1.65 3.58,2.14 4.16,7.72c0.65,6.21 0.16,9.01 -1.59,9.01c-0.56,0 -3.02,-1.84 -5.46,-4.08c-5.44,-5.02 -12.52,-8.33 -15.97,-7.46c-1.94,0.49 -2.25,0.92 -1.39,1.96c0.85,1.02 0.52,1.72 -1.41,2.98c-1.39,0.91 -2.52,2.41 -2.52,3.33c0,1.3 0.27,1.41 1.2,0.47c1.86,-1.86 2.82,-1.44 3.92,1.72c0.56,1.61 1.73,3.2 2.59,3.53c2.16,0.82 2.83,-0.09 1.36,-1.86c-0.9,-1.09 -0.93,-1.98 -0.1,-3.52c2.11,-3.96 5.91,-2.48 19.16,7.47c2.95,2.22 6.5,4.55 7.87,5.18c2.02,0.93 -0.34,1.16 -12.29,1.22c-17.15,0.08 -17.55,-0.06 -30.96,-10.24c-4.53,-3.45 -9.82,-7.23 -11.75,-8.4c-3.9,-2.37 -10.27,-3.86 -11.98,-2.8c-1.99,1.22 0.98,3.5 4.58,3.5c3.43,0 12.4,3.77 12.4,5.2c0,0.44 -1.41,0.8 -3.13,0.8c-7.33,0 -13.71,3.68 -19.59,11.27c-1.07,1.39 -6.94,1.59 -50.51,1.69c-53.75,0.12 -53.76,0.12 -52.42,-5.23c0.76,-3.02 3.74,-4.29 6.55,-2.78c4.92,2.63 9.1,-0.22 9.1,-6.2c0,-6.21 -5.12,-8.83 -9.44,-4.83c-2.08,1.93 -3.59,2.42 -6.86,2.2c-2.72,-0.18 -5.19,-6.75 -3.74,-9.94c1.59,-3.49 -0.08,-4.65 -3.18,-2.22c-6.03,4.75 -4.04,11.02 4.17,13.13c2.78,0.71 5.05,1.63 5.05,2.05c0,0.42 -2.36,0.9 -5.24,1.06c-4.05,0.24 -5.32,0.7 -5.57,2.05c-0.24,1.27 0.32,1.75 2.04,1.75c1.3,0 2.8,-0.39 3.32,-0.88c0.52,-0.49 1.96,-1.2 3.2,-1.57c3.08,-0.93 2.97,1.43 -0.2,4.4c-1.34,1.27 -2.58,3.26 -2.75,4.43c-0.29,2.05 -0.85,2.14 -16.12,2.4c-14.35,0.25 -15.79,0.44 -15.49,2c0.32,1.63 14.27,1.72 246.82,1.72c245.82,0 246.49,0 246.49,-2c0,-1.89 -0.83,-2.02 -15.41,-2.5c-14.44,-0.46 -15.42,-0.62 -15.69,-2.5c-0.16,-1.09 -1.52,-2.98 -3.03,-4.18c-2.32,-1.85 -2.53,-2.41 -1.43,-3.75c0.95,-1.13 0.98,-1.57 0.12,-1.57c-2.43,0 0.05,-1.79 3.33,-2.41c8.19,-1.54 11.24,-8.24 5.96,-13.13c-3.72,-3.46 -4.4,-3.09 -3.7,2.02c1.11,8.12 -4.16,12.49 -9.57,7.94c-4.41,-3.71 -8.11,-3.09 -9.92,1.66c-2.35,6.19 1.4,10.97 7.06,9c1.69,-0.59 3.68,-1.08 4.41,-1.08c1.9,0 4.53,4.42 3.79,6.36c-0.58,1.5 -5.28,1.64 -51.78,1.63l-51.14,-0.01l-2.24,-3.46c-2.81,-4.34 -9.14,-7.64 -16.14,-8.42l-5.38,-0.6l4.23,-2.37c2.33,-1.3 6.55,-2.65 9.38,-3c3.63,-0.44 5.15,-1.07 5.15,-2.13c0,-2.27 -4.85,-2.38 -9.71,-0.21c-2.36,1.04 -8.11,4.82 -12.79,8.4c-8.51,6.5 -12.13,9.44 -16.26,10.75c-3.74,1.18 -7.89,1.04 -16.47,1c-10.49,-0.04 -15.01,-0.37 -13.51,-0.97c1.24,-0.5 6.35,-3.85 11.36,-7.45c5.01,-3.59 10.19,-6.81 11.51,-7.14c4.2,-1.05 7.13,3.46 4.17,6.42c-0.93,0.94 -0.81,1.2 0.55,1.2c0.96,0 2.51,-1.36 3.45,-3.03c1.33,-2.36 2.2,-2.9 3.95,-2.47c3.08,0.75 2.96,-1.79 -0.2,-4.28c-1.68,-1.32 -2.12,-2.24 -1.41,-2.95c2.99,-3 -6.68,-2.53 -11.38,0.54c-1.43,0.93 -4.66,3.45 -7.2,5.59c-2.54,2.14 -4.93,3.57 -5.32,3.17c-0.4,-0.39 -0.72,-3.71 -0.73,-7.37l-0.01,-6.66l4.25,-2.34c4.67,-2.57 5.3,-4.67 2.63,-8.73c-1.74,-2.67 -3.67,-3.38 -2.76,-1.02c0.32,0.85 -0.91,2.91 -2.95,4.95c-2.98,2.98 -3.69,3.29 -4.71,2.06c-0.66,-0.8 -2.05,-1.46 -3.08,-1.46c-1.03,0 -2.74,-0.85 -3.78,-1.9c-2.22,-2.21 -4.1,-1.05 -4.1,2.53c0,2.26 2.36,5.37 4.07,5.37c1.89,0 0.85,2.08 -1.47,2.97c-3.12,1.19 -3.89,2.53 -2.71,4.74c0.53,0.99 1.3,2.7 1.71,3.79c0.73,1.94 0.77,1.93 1.14,-0.2c0.21,-1.21 1.37,-2.51 2.57,-2.89c1.2,-0.38 2.74,-1.42 3.42,-2.3c1.09,-1.42 1.35,-1.43 2.24,-0.11c1.34,2.02 1.3,9.33 -0.09,12.36c-2.27,5 -14.07,7.88 -17.64,4.31c-1.64,-1.64 -1.61,-1.76 0.56,-2.32c3.42,-0.9 2.41,-3.85 -1.31,-3.85c-2.36,0 -3.06,0.49 -3.32,2.31c-0.37,2.61 1.29,5.03 4.29,6.24c1.25,0.51 -2.56,0.85 -9.83,0.89l-11.87,0.06l1.46,-2.25c0.81,-1.23 3.85,-3.46 6.75,-4.95c6.47,-3.32 6.69,-3.53 5.21,-5.01c-1.79,-1.79 -1.42,-3.79 0.71,-3.79c1.04,0 2.16,-0.67 2.47,-1.5c0.32,-0.82 1.3,-1.5 2.19,-1.5c2.63,0 1.03,-2.47 -1.81,-2.81c-6.76,-0.8 -14.9,6.67 -16.7,15.31c-0.91,4.37 -2.14,3.69 -3.58,-1.96c-0.87,-3.41 -2.36,-5.97 -4.77,-8.18c-3.74,-3.43 -10.51,-6.02 -13.12,-5.02c-2.01,0.77 -2.04,2.66 -0.04,2.66c0.84,0 1.79,0.68 2.11,1.5c0.32,0.83 1.43,1.5 2.47,1.5c2.01,0 2.6,2.45 0.84,3.53c-1.6,1 0.75,3.29 6.2,6.05c2.63,1.33 5.26,3.32 5.85,4.42c1.04,1.95 0.77,2 -10.72,1.96c-10.88,-0.03 -11.58,-0.15 -9.1,-1.49c3.56,-1.93 4.49,-5.06 2.26,-7.54c-2.14,-2.36 -2.83,-2.39 -4.97,-0.25c-1.56,1.56 -1.51,1.79 0.68,3.49c2,1.55 2.13,1.97 0.85,2.81c-2.17,1.44 -8.53,1.25 -12.4,-0.37c-5.97,-2.49 -8.14,-8.42 -5.57,-15.17c0.92,-2.44 1.19,-2.56 2.75,-1.22c0.94,0.81 2.51,1.76 3.47,2.1c0.96,0.34 1.75,1.54 1.75,2.65c0,1.12 0.45,2.03 1,2.03c0.55,0 1,-1.06 1,-2.37c0,-1.31 0.69,-2.95 1.53,-3.65c1.36,-1.13 1.34,-1.46 -0.16,-3.12c-0.92,-1.02 -2.51,-1.86 -3.53,-1.86c-2.63,0 -2.27,-1.88 0.57,-2.96c3.43,-1.3 4.24,-4.69 1.88,-7.84c-1.05,-1.41 -2.46,-2.68 -3.13,-2.81c-0.66,-0.13 -0.75,-0.01 -0.19,0.27c2.12,1.05 0.91,3.5 -2.4,4.88c-1.89,0.79 -3.72,1.89 -4.06,2.45c-0.99,1.6 -2.32,1.19 -2.99,-0.93zm-61.97,30.83c-0.92,-0.92 7.3,-8.72 9.67,-9.18c7.76,-1.48 12.9,-0.24 20.41,4.93c2.95,2.03 5.25,3.81 5.11,3.96c-0.51,0.51 -34.68,0.8 -35.19,0.29zm181.28,-4.01c3.37,-2.27 7.61,-4.49 9.4,-4.95c4.27,-1.07 11.56,-0.29 14.36,1.54c1.22,0.8 3.19,2.82 4.38,4.49l2.17,3.04l-36.45,0l6.14,-4.12z" fill="#71421F" fill-rule="evenodd" id="svg_54"/>
  <path d="m428,68.05c0,-2.33 -1.41,-3.49 -6.41,-5.25c-2.15,-0.75 -6.19,-3.4 -8.98,-5.88c-4.94,-4.39 -5.01,-4.41 -2.96,-1.12c1.16,1.86 4.48,5.79 7.38,8.75c3.93,4.01 6,5.37 8.12,5.37c2.12,0 2.85,-0.48 2.85,-1.87z" fill="#71421F" id="svg_55"/>
  <path d="m67.18,67.68c-0.85,5.95 8.92,0.25 15.63,-9.13c3.48,-4.86 2.84,-6.54 -0.75,-1.98c-1.14,1.46 -4.89,4.05 -8.32,5.76c-4.52,2.24 -6.33,3.72 -6.56,5.35z" fill="#71421F" id="svg_56"/>
  <path d="m59.87,76.92c2.82,0 4.24,-6.48 1.93,-8.8c-1.31,-1.3 -4.07,-1.59 -5.13,-0.53c-2.03,2.03 0.48,9.33 3.2,9.33z" fill="#71421F" id="svg_57"/>
  <path d="m437,75.42c2.4,-2.17 2.66,-7.03 0.42,-7.89c-2.37,-0.91 -3.12,-0.76 -4.85,0.97c-2.13,2.13 -1.97,4.75 0.43,6.92c1.93,1.75 2.07,1.75 4,0z" fill="#71421F" id="svg_58"/>
  <path d="m462.76,79.96c3.35,1.87 6.47,1.42 6.04,-0.87c-0.23,-1.18 -1.55,-1.76 -4.56,-1.97c-4.89,-0.36 -5.41,0.64 -1.48,2.84z" fill="#71421F" id="svg_59"/>
 </g>
</svg>