<svg width="494" height="327" viewBox="0 0 494 327" fill="none" xmlns="http://www.w3.org/2000/svg">
<path d="M0 140.692V138.653H20.0978C23.9814 138.653 27.0641 139.187 29.3457 140.255C31.6273 141.323 33.2536 142.731 34.2245 144.479C35.244 146.226 35.7537 148.168 35.7537 150.304V152.27C35.7537 154.794 34.9527 156.979 33.3507 158.824C31.7973 160.62 29.5156 161.906 26.5058 162.683C30.1953 163.314 33.0109 164.625 34.9527 166.615C36.9431 168.606 37.9383 171.106 37.9383 174.116V176.154C37.9383 178.339 37.4285 180.354 36.4091 182.198C35.3896 183.995 33.6905 185.451 31.3118 186.567C28.9816 187.635 25.8504 188.169 21.9183 188.169H0V186.131L4.005 185.621C4.78173 185.524 5.24291 185.33 5.38854 185.038C5.53418 184.698 5.607 183.703 5.607 182.053V144.77C5.607 143.119 5.53418 142.148 5.38854 141.857C5.24291 141.517 4.78173 141.299 4.005 141.202L0 140.692ZM20.0978 141.202H14.3452V161.591H20.0978C22.1853 161.591 23.763 160.887 24.831 159.479C25.899 158.023 26.433 155.741 26.433 152.634V150.304C26.433 147.149 25.899 144.843 24.831 143.386C23.763 141.93 22.1853 141.202 20.0978 141.202ZM21.9183 164.139H14.3452V185.621H21.9183C24.1028 185.621 25.7534 184.893 26.8699 183.436C28.035 181.931 28.6175 179.504 28.6175 176.154V173.751C28.6175 167.343 26.3844 164.139 21.9183 164.139Z" fill="#D8D8D8"/>
<path d="M55.3571 186.131V188.169H41.3033V186.131L45.3082 185.621C45.8422 185.524 46.2306 185.427 46.4733 185.33C46.7161 185.184 46.9345 184.868 47.1287 184.383C47.3229 183.897 47.5899 183.121 47.9297 182.053L61.838 138.653H68.1003L82.0814 182.053C82.4212 183.121 82.6882 183.897 82.8824 184.383C83.0766 184.868 83.295 185.184 83.5378 185.33C83.829 185.427 84.2174 185.524 84.7029 185.621L88.7079 186.131V188.169H68.6101V186.131L72.6151 185.621C73.3918 185.524 73.8044 185.33 73.853 185.038C73.9501 184.698 73.7316 183.703 73.1976 182.053L70.4305 173.023H53.6095L50.7696 182.053C50.2842 183.703 50.0657 184.698 50.1142 185.038C50.1628 185.33 50.5754 185.524 51.3522 185.621L55.3571 186.131ZM54.4833 170.475H69.6295L62.1292 146.299L54.4833 170.475Z" fill="#D8D8D8"/>
<path d="M91.3782 140.692V138.653H113.369C118.467 138.653 122.399 139.794 125.166 142.076C127.933 144.357 129.316 147.416 129.316 151.251V152.925C129.316 155.838 128.516 158.314 126.914 160.353C125.312 162.392 123.006 163.848 119.996 164.722L129.098 182.053C129.681 183.121 130.117 183.897 130.409 184.383C130.7 184.868 130.967 185.184 131.21 185.33C131.501 185.427 131.889 185.524 132.375 185.621L135.652 186.131V188.169H122.035L111.039 165.596H105.723V182.053C105.723 183.703 105.796 184.698 105.942 185.038C106.088 185.33 106.549 185.524 107.325 185.621L111.33 186.131V188.169H91.3782V186.131L95.3832 185.621C96.16 185.524 96.6212 185.33 96.7668 185.038C96.9124 184.698 96.9852 183.703 96.9852 182.053V144.77C96.9852 143.119 96.9124 142.148 96.7668 141.857C96.6212 141.517 96.16 141.299 95.3832 141.202L91.3782 140.692ZM113.369 141.202H105.723V163.047H113.369C115.505 163.047 117.132 162.392 118.248 161.081C119.413 159.722 119.996 157.246 119.996 153.654V150.522C119.996 146.93 119.413 144.479 118.248 143.168C117.132 141.857 115.505 141.202 113.369 141.202Z" fill="#D8D8D8"/>
<path d="M138.81 140.692V138.653H158.907C162.791 138.653 165.874 139.187 168.155 140.255C170.437 141.323 172.063 142.731 173.034 144.479C174.054 146.226 174.563 148.168 174.563 150.304V152.27C174.563 154.794 173.762 156.979 172.16 158.824C170.607 160.62 168.325 161.906 165.315 162.683C169.005 163.314 171.82 164.625 173.762 166.615C175.753 168.606 176.748 171.106 176.748 174.116V176.154C176.748 178.339 176.238 180.354 175.219 182.198C174.199 183.995 172.5 185.451 170.121 186.567C167.791 187.635 164.66 188.169 160.728 188.169H138.81V186.131L142.815 185.621C143.591 185.524 144.053 185.33 144.198 185.038C144.344 184.698 144.417 183.703 144.417 182.053V144.77C144.417 143.119 144.344 142.148 144.198 141.857C144.053 141.517 143.591 141.299 142.815 141.202L138.81 140.692ZM158.907 141.202H153.155V161.591H158.907C160.995 161.591 162.573 160.887 163.641 159.479C164.709 158.023 165.243 155.741 165.243 152.634V150.304C165.243 147.149 164.709 144.843 163.641 143.386C162.573 141.93 160.995 141.202 158.907 141.202ZM160.728 164.139H153.155V185.621H160.728C162.912 185.621 164.563 184.893 165.679 183.436C166.845 181.931 167.427 179.504 167.427 176.154V173.751C167.427 167.343 165.194 164.139 160.728 164.139Z" fill="#D8D8D8"/>
<path d="M217.687 175.645H219.726V188.169H183.681V186.131L187.686 185.621C188.463 185.524 188.924 185.33 189.069 185.038C189.215 184.698 189.288 183.703 189.288 182.053V144.77C189.288 143.119 189.215 142.148 189.069 141.857C188.924 141.517 188.463 141.299 187.686 141.202L183.681 140.692V138.653H218.998V151.178H216.959L214.629 143.095C214.483 142.512 214.313 142.1 214.119 141.857C213.973 141.566 213.658 141.396 213.172 141.347C212.687 141.25 211.862 141.202 210.696 141.202H198.026V161.882H206.327C207.492 161.882 208.318 161.858 208.803 161.809C209.289 161.712 209.604 161.542 209.75 161.3C209.944 161.008 210.114 160.571 210.26 159.989L211.862 154.091H213.9V172.222H211.862L210.26 166.324C210.114 165.741 209.944 165.329 209.75 165.086C209.604 164.795 209.289 164.625 208.803 164.576C208.318 164.479 207.492 164.431 206.327 164.431H198.026V185.621H211.425C212.59 185.621 213.415 185.597 213.9 185.548C214.386 185.451 214.701 185.281 214.847 185.038C215.041 184.747 215.211 184.31 215.357 183.728L217.687 175.645Z" fill="#D8D8D8"/>
<path d="M227.557 140.692V138.653H249.548C254.645 138.653 258.577 139.794 261.344 142.076C264.111 144.357 265.495 147.416 265.495 151.251V152.925C265.495 155.838 264.694 158.314 263.092 160.353C261.49 162.392 259.184 163.848 256.174 164.722L265.277 182.053C265.859 183.121 266.296 183.897 266.587 184.383C266.879 184.868 267.146 185.184 267.388 185.33C267.68 185.427 268.068 185.524 268.553 185.621L271.83 186.131V188.169H258.213L247.218 165.596H241.902V182.053C241.902 183.703 241.975 184.698 242.12 185.038C242.266 185.33 242.727 185.524 243.504 185.621L247.509 186.131V188.169H227.557V186.131L231.562 185.621C232.338 185.524 232.8 185.33 232.945 185.038C233.091 184.698 233.164 183.703 233.164 182.053V144.77C233.164 143.119 233.091 142.148 232.945 141.857C232.8 141.517 232.338 141.299 231.562 141.202L227.557 140.692ZM249.548 141.202H241.902V163.047H249.548C251.684 163.047 253.31 162.392 254.427 161.081C255.592 159.722 256.174 157.246 256.174 153.654V150.522C256.174 146.93 255.592 144.479 254.427 143.168C253.31 141.857 251.684 141.202 249.548 141.202Z" fill="#D8D8D8"/>
<path d="M291.273 140.692V138.653H313.264C318.361 138.653 322.293 139.794 325.06 142.076C327.827 144.357 329.211 147.416 329.211 151.251V152.925C329.211 155.838 328.41 158.314 326.808 160.353C325.206 162.392 322.9 163.848 319.89 164.722L328.992 182.053C329.575 183.121 330.012 183.897 330.303 184.383C330.594 184.868 330.861 185.184 331.104 185.33C331.395 185.427 331.784 185.524 332.269 185.621L335.546 186.131V188.169H321.929L310.933 165.596H305.618V182.053C305.618 183.703 305.691 184.698 305.836 185.038C305.982 185.33 306.443 185.524 307.22 185.621L311.225 186.131V188.169H291.273V186.131L295.278 185.621C296.054 185.524 296.515 185.33 296.661 185.038C296.807 184.698 296.88 183.703 296.88 182.053V144.77C296.88 143.119 296.807 142.148 296.661 141.857C296.515 141.517 296.054 141.299 295.278 141.202L291.273 140.692ZM313.264 141.202H305.618V163.047H313.264C315.4 163.047 317.026 162.392 318.142 161.081C319.308 159.722 319.89 157.246 319.89 153.654V150.522C319.89 146.93 319.308 144.479 318.142 143.168C317.026 141.857 315.4 141.202 313.264 141.202Z" fill="#D8D8D8"/>
<path d="M379.846 161.081V165.669C379.846 173.145 378.171 178.897 374.822 182.927C371.521 186.907 366.618 188.898 360.112 188.898C353.607 188.898 348.68 186.907 345.33 182.927C342.029 178.897 340.379 173.145 340.379 165.669V161.081C340.379 153.605 342.029 147.877 345.33 143.896C348.68 139.915 353.607 137.925 360.112 137.925C366.618 137.925 371.521 139.915 374.822 143.896C378.171 147.877 379.846 153.605 379.846 161.081ZM370.525 157.44C370.525 153.168 370.161 149.819 369.433 147.391C368.705 144.915 367.564 143.144 366.011 142.076C364.506 141.008 362.54 140.474 360.112 140.474C357.734 140.474 355.768 141.008 354.214 142.076C352.661 143.144 351.52 144.915 350.792 147.391C350.064 149.819 349.699 153.168 349.699 157.44V169.31C349.699 173.533 350.064 176.883 350.792 179.358C351.52 181.834 352.661 183.63 354.214 184.747C355.768 185.815 357.734 186.349 360.112 186.349C362.54 186.349 364.506 185.815 366.011 184.747C367.564 183.63 368.705 181.834 369.433 179.358C370.161 176.883 370.525 173.533 370.525 169.31V157.44Z" fill="#D8D8D8"/>
<path d="M428.913 161.081V165.669C428.913 173.145 427.238 178.897 423.889 182.927C420.588 186.907 415.684 188.898 409.179 188.898C402.674 188.898 397.747 186.907 394.397 182.927C391.096 178.897 389.446 173.145 389.446 165.669V161.081C389.446 153.605 391.096 147.877 394.397 143.896C397.747 139.915 402.674 137.925 409.179 137.925C415.684 137.925 420.588 139.915 423.889 143.896C427.238 147.877 428.913 153.605 428.913 161.081ZM419.592 157.44C419.592 153.168 419.228 149.819 418.5 147.391C417.772 144.915 416.631 143.144 415.078 142.076C413.573 141.008 411.607 140.474 409.179 140.474C406.801 140.474 404.835 141.008 403.281 142.076C401.728 143.144 400.587 144.915 399.859 147.391C399.13 149.819 398.766 153.168 398.766 157.44V169.31C398.766 173.533 399.13 176.883 399.859 179.358C400.587 181.834 401.728 183.63 403.281 184.747C404.835 185.815 406.801 186.349 409.179 186.349C411.607 186.349 413.573 185.815 415.078 184.747C416.631 183.63 417.772 181.834 418.5 179.358C419.228 176.883 419.592 173.533 419.592 169.31V157.44Z" fill="#D8D8D8"/>
<path d="M494 186.131V188.169H474.048V186.131L478.053 185.621C478.83 185.524 479.291 185.33 479.436 185.038C479.582 184.698 479.655 183.703 479.655 182.053V144.624L466.329 182.344H458.538L445.357 144.843V182.053C445.357 183.703 445.43 184.698 445.576 185.038C445.722 185.33 446.183 185.524 446.959 185.621L450.964 186.131V188.169H436.838V186.131L440.843 185.621C441.619 185.524 442.081 185.33 442.226 185.038C442.372 184.698 442.445 183.703 442.445 182.053V144.77C442.445 143.119 442.372 142.148 442.226 141.857C442.081 141.517 441.619 141.299 440.843 141.202L436.838 140.692V138.653H452.202L465.528 176.519L479.072 138.653H494V140.692L489.995 141.202C489.218 141.299 488.757 141.517 488.611 141.857C488.466 142.148 488.393 143.119 488.393 144.77V182.053C488.393 183.703 488.466 184.698 488.611 185.038C488.757 185.33 489.218 185.524 489.995 185.621L494 186.131Z" fill="#D8D8D8"/>
<path d="M49.161 228.42C49.908 229.166 491.941 229.317 492.687 228.571C493.043 228.216 393.283 227.925 271 227.925C148.717 227.925 48.889 228.148 49.161 228.42Z" fill="#754827"/>
<path fill-rule="evenodd" clip-rule="evenodd" d="M478.012 237.925C492.667 237.452 493.5 237.317 493.5 235.425C493.5 233.43 492.833 233.425 247.167 233.425C111.684 233.425 0.645996 233.613 0.416992 233.842C0.188004 234.071 0 234.858 0 235.592C0 236.647 3.33301 236.925 16 236.925H32V239.251C32 240.53 33.125 242.633 34.5 243.925C36.874 246.155 37.865 248.966 36.25 248.89C35.838 248.87 34.375 248.211 33 247.425C29.375 245.353 25.77 245.485 26.185 247.675C26.437 249.004 27.839 249.556 32.009 249.971C36.198 250.387 37.026 250.715 35.5 251.355C34.4 251.817 31.632 252.989 29.349 253.96C24.752 255.915 23.451 258.352 24.93 262.241C25.868 264.708 30.586 268.672 31.499 267.76C31.739 267.52 31.421 265.647 30.792 263.598C29.791 260.339 29.902 259.532 31.675 257.149C34.377 253.515 36.993 253.302 41.484 256.349C44.578 258.45 45.579 258.689 47.357 257.753C50.248 256.232 50.967 254.973 50.985 251.398C51.014 245.674 45.623 241.702 42.315 245.01C40.358 246.967 36.609 245.621 35.543 242.578C35.1159 241.359 34.769 240.403 35.0253 239.653C35.9634 236.908 44.9791 236.925 87.701 236.925H137.02L138.76 239.144C144.922 247 153.149 251.108 159.518 249.51C160.997 249.139 162 249.317 162 249.952C162 251.421 152.102 255.903 148.832 255.915C144.958 255.929 143.049 256.889 143.67 258.508C145.209 262.517 153.503 258.945 167.662 248.175C173.073 244.06 178.948 240.07 180.718 239.309C182.955 238.347 188.258 237.925 198.112 237.925H212.288L201 245.925C194.791 250.325 188.707 253.925 187.478 253.925C184.101 253.925 182.452 251.424 183.832 248.395C184.756 246.366 184.689 245.925 183.457 245.925C182.632 245.925 181.413 247.163 180.749 248.675C179.207 252.185 177.898 253.085 176.284 251.745C175.345 250.966 175.004 251.049 175.015 252.053C175.037 253.997 176.202 255.461 178.363 256.26C179.885 256.823 180 257.221 178.99 258.437C177.928 259.717 178.382 259.925 182.238 259.925C186.885 259.925 190.867 257.843 197.785 251.796C199.591 250.217 201.451 248.925 201.918 248.925C203.334 248.925 203.874 252.742 203.277 258.531C202.764 263.502 202.418 264.141 199.605 265.317C194.162 267.593 193.451 269.3 196.137 273.647C198.031 276.711 198.542 277.065 198.84 275.519C199.042 274.471 200.675 272.102 202.469 270.254C205.238 267.403 205.912 267.114 206.934 268.346C207.596 269.144 209.457 270.086 211.069 270.44C214.342 271.159 214.914 273.293 212.25 274.845C210.606 275.802 210.611 275.866 212.34 275.895C214.692 275.933 217.924 272.088 217.967 269.198C217.986 267.901 216.956 266.287 215.5 265.333C212.291 263.23 212.353 262.699 216 261.085C219.218 259.661 219.938 257.499 217.506 256.566C216.684 256.25 216.122 255.014 216.256 253.819C216.39 252.623 215.875 251.425 215.111 251.156C214.322 250.877 213.999 251.115 214.364 251.705C215.328 253.265 213.998 255.925 212.253 255.925C211.41 255.925 210.139 256.713 209.428 257.675C207.422 260.39 205.784 257.922 205.695 252.05C205.609 246.324 207.437 243.522 212.718 241.287C216.506 239.684 223.609 239.483 224.517 240.953C224.867 241.518 224.147 242.795 222.917 243.791C220.343 245.875 221.058 247.925 224.359 247.925C226.874 247.925 229 246.208 229 244.177C229 243.436 227.809 241.726 226.354 240.377L223.708 237.925H234.354C242.605 237.925 245 238.228 245 239.27C245 240.994 242.689 242.827 236.75 245.814C231.994 248.206 231.129 249.269 233 250.425C234.716 251.486 234.094 253.925 232.107 253.925C231.066 253.925 229.955 254.6 229.638 255.425C229.322 256.25 228.336 256.925 227.448 256.925C224.83 256.925 226.416 259.397 229.251 259.734C232.392 260.108 238.619 257.064 241.897 253.551C243.216 252.138 244.791 249.028 245.397 246.64C246.909 240.687 248.06 240.564 249.492 246.204C250.159 248.832 251.784 252.154 253.103 253.586C255.837 256.554 262.444 259.87 265.691 259.903C268.118 259.927 270.045 257.773 268.159 257.145C267.502 256.926 266.329 256.112 265.554 255.336C264.778 254.56 263.436 253.925 262.571 253.925C260.835 253.925 260.423 251.4 262 250.425C263.871 249.269 263.006 248.206 258.25 245.814C253.138 243.243 249 240.083 249 238.751C249 238.297 254.016 237.925 260.146 237.925H271.292L268.646 240.377C267.191 241.726 266 243.471 266 244.255C266 246.25 268.561 248.156 270.69 247.746C273.266 247.25 273.524 244.226 271.057 243.443C268.22 242.543 268.483 241.072 271.701 239.849C277.387 237.687 288.837 242.807 289.097 247.627C289.553 256.095 287.946 260.887 285.679 257.821C285.026 256.938 283.482 255.895 282.246 255.503C280.908 255.079 280 253.985 280 252.799C280 251.641 279.553 251.083 278.932 251.467C278.344 251.83 278.127 252.814 278.449 253.653C278.775 254.503 278.269 255.739 277.305 256.444C275.842 257.514 275.781 257.956 276.91 259.317C277.644 260.201 279.09 260.925 280.122 260.925C282.492 260.925 282.59 263.77 280.25 264.633C276.256 266.107 275.896 270.54 279.496 273.921C280.869 275.211 282.299 275.96 282.673 275.585C283.048 275.211 282.522 274.296 281.506 273.553C279.804 272.309 280.085 271.987 285.055 269.491C288.518 267.752 290.586 267.184 290.827 267.906C291.033 268.525 292.346 270.092 293.743 271.387C295.314 272.844 296.051 274.35 295.673 275.334C294.595 278.145 296.895 277.029 298.474 273.975C300.925 269.236 300.424 267.42 296.13 265.484C292.476 263.836 292.23 263.441 291.709 258.39C291.081 252.309 291.691 248.925 293.414 248.925C294.063 248.925 296.373 250.762 298.547 253.007C304.294 258.942 308.34 260.642 315.372 260.076C316.913 259.952 317.026 259.661 316.01 258.437C315 257.221 315.115 256.823 316.637 256.26C320.43 254.857 321.425 250.539 317.75 251.435C315.995 251.863 315.125 251.317 313.797 248.955C312.86 247.288 311.342 245.925 310.424 245.925C309.06 245.925 308.981 246.197 309.989 247.412C311.929 249.749 310.422 253.925 307.64 253.925C305.454 253.925 302.447 252.124 288.442 242.425L282.665 238.425L296.583 238.137C304.237 237.979 311.511 238.1 312.746 238.406C313.982 238.711 319.725 242.569 325.508 246.977C338.255 256.695 344.428 260.119 348.485 259.721C353.627 259.216 352.27 256.524 346.5 255.782C341.116 255.09 337.528 253.812 334.75 251.599C332.139 249.518 332.597 249.062 336.75 249.607C342.645 250.381 349.859 247.192 353.474 242.215L356.5 238.047L407.128 237.986C452.149 237.932 457.901 238.1 459.07 239.509C459.996 240.625 460.086 241.565 459.375 242.692C457.406 245.813 455.299 246.435 451.429 245.035C448.106 243.834 447.586 243.894 445.789 245.692C443.471 248.009 442.986 253.998 444.927 256.337C446.757 258.542 451.33 258.323 453.5 255.925C455.948 253.22 460.472 253.333 462.443 256.148C464.233 258.703 464.47 263.178 462.965 265.991C461.319 269.067 465.411 268.489 467.927 265.29C472.183 259.88 469.358 254.018 461.703 252.377C456.096 251.174 456.332 250.439 462.491 249.925C467.161 249.535 468.556 249.039 468.815 247.675C469.242 245.422 466.021 245.346 461.835 247.51C457.624 249.688 456.011 247.942 459.325 244.792C460.696 243.49 461.976 241.525 462.17 240.425C462.501 238.552 463.51 238.393 478.012 237.925ZM145.086 242.466C142.711 240.083 141.887 238.625 142.647 238.147C143.67 237.503 156.726 237.521 171.926 238.187L177.352 238.425L171.709 242.163C161.226 249.108 151.813 249.215 145.086 242.466ZM338.045 247.125C331.641 247.125 326.057 244.987 320.5 240.407L317.5 237.935L353.136 237.925L350.971 240.965C347.556 245.762 344.695 247.125 338.045 247.125Z" fill="#754827"/>
<path d="M87.024 253.784C84.726 252.086 84.181 251.053 84.632 249.254C85.496 245.812 84.369 246.41 81.324 251.012C78.073 255.924 78.647 257.357 85.166 260.608L89.647 262.843L89.552 270.822C89.499 275.211 89.154 279.104 88.784 279.474C88.415 279.843 85.058 277.555 81.326 274.388C73.796 268 69.719 265.925 64.699 265.925C60.513 265.925 59.51 266.827 61.766 268.56C63.384 269.803 63.358 269.932 61.374 270.493C59.126 271.128 56.216 275.474 57.308 276.566C57.662 276.92 58.648 276.632 59.5 275.925C61.306 274.427 61.621 274.657 63.838 279.096C64.93 281.283 66.357 282.546 67.997 282.777C70.405 283.116 70.432 283.06 68.747 281.198C66.335 278.533 66.561 276.259 69.424 274.383C71.643 272.929 72.115 272.933 75.016 274.433C76.759 275.335 82.62 279.373 88.04 283.406C98.508 291.197 104.135 293.36 110.31 291.968C117.144 290.427 119.911 287.372 118.501 282.927C117.585 280.043 113.055 279.129 111.335 281.482C110.139 283.117 110.297 283.587 112.684 285.49C115.38 287.64 115.382 287.65 113.26 288.786C110.06 290.498 105.429 290.165 100.005 287.832C93.622 285.086 91.581 281.13 92.548 273.383C93.27 267.605 95.028 266.24 97 269.925C97.589 271.025 99.006 271.925 100.149 271.925C101.889 271.925 102.155 272.413 101.787 274.925C101.545 276.575 101.703 277.925 102.138 277.925C103.262 277.925 105.055 274.314 104.304 273.563C103.96 273.219 104.437 272.1 105.364 271.076C107.586 268.62 106.576 266.321 102.675 264.962L99.511 263.859L102.755 261.319C105.014 259.551 106 257.944 106 256.027C106 253.106 102.396 248.903 99.936 248.955C98.882 248.978 98.966 249.257 100.25 250.005C103.202 251.724 102.242 253.783 97.949 254.939C95.72 255.539 93.647 256.681 93.342 257.477C92.615 259.37 90 259.352 90 257.455C90 256.646 88.661 254.995 87.024 253.784Z" fill="#754827"/>
<path d="M410.125 260.099C415.667 257.455 416.11 255.92 412.901 250.482C410.632 246.636 408.463 245.658 409.509 248.953C409.974 250.417 409.343 251.737 407.241 253.703C405.64 255.2 404.111 257.083 403.844 257.888C403.448 259.079 402.833 258.939 400.544 257.138C398.996 255.921 396.916 254.925 395.922 254.925C394.927 254.925 393.483 254.025 392.712 252.924C391.321 250.938 391.298 250.938 389.537 252.884C387.106 255.57 388.239 259.48 392.014 261.432C393.657 262.282 395 263.184 395 263.437C395 263.691 393.425 264.556 391.5 265.361C388.115 266.775 386.942 269.153 389 270.425C389.55 270.765 390 272.086 390 273.362C390 274.637 390.703 276.264 391.563 276.977C392.932 278.113 393.043 277.944 392.458 275.615C391.895 273.369 392.201 272.799 394.421 271.955C395.868 271.405 397.313 270.273 397.633 269.44C398.393 267.458 400.622 267.497 401.393 269.507C401.727 270.377 402 273.561 402 276.584C402 281.282 401.59 282.489 399.171 284.908C395.216 288.863 386.252 291.11 381.582 289.318C379.365 288.467 379.61 286.183 382 285.425C384.121 284.752 384.37 284.052 383.393 281.507C382.635 279.531 378.647 279.441 377.05 281.365C376.393 282.156 376.001 284.069 376.178 285.615C376.872 291.667 389.704 294.073 397.5 289.612C399.7 288.353 405.45 284.308 410.278 280.624C418.666 274.223 421.569 273.055 425.418 274.532C427.287 275.249 427.538 279.987 425.8 281.725C424.867 282.658 424.881 282.925 425.866 282.925C428.363 282.925 430.782 280.931 431.433 278.336C432.005 276.059 432.489 275.773 434.942 276.263C437.424 276.76 437.721 276.574 437.261 274.814C436.971 273.704 435.66 272.093 434.349 271.234C432.646 270.118 432.253 269.325 432.974 268.457C434.38 266.762 433.218 265.925 429.455 265.925C424.408 265.925 419.416 268.527 412.81 274.599L406.706 280.211L405.501 277.818C404.756 276.338 404.478 272.946 404.773 268.925L405.251 262.425L410.125 260.099Z" fill="#754827"/>
<path d="M393.813 249.608C394.534 249.897 395.397 249.861 395.729 249.529C396.061 249.197 395.471 248.961 394.417 249.004C393.252 249.052 393.015 249.289 393.813 249.608Z" fill="#754827"/>
<path d="M58.878 259.425C61.982 259.425 64.098 256.167 62.937 253.175C61.144 248.552 55.578 251.385 56.178 256.615C56.43 258.817 57.015 259.425 58.878 259.425Z" fill="#754827"/>
<path d="M438.55 257.581C438.891 256.223 438.666 254.169 438.05 253.018C435.628 248.492 429.873 251.806 431.596 256.735C432.922 260.526 437.666 261.104 438.55 257.581Z" fill="#754827"/>
<path d="M87 274.591C87 272.798 78.528 262.596 74.792 259.889C69.759 256.243 66.724 255.958 67.18 259.175C67.406 260.764 69.031 262.159 72.716 263.925C75.585 265.3 79.973 268.431 82.466 270.883C84.96 273.335 87 275.004 87 274.591Z" fill="#754827"/>
<path d="M421.232 264.425C425.833 262.223 427.5 260.893 427.5 259.425C427.5 256.095 423.637 256.427 419.428 260.118C415.169 263.853 408 272.606 408 274.07C408 274.602 409.567 273.324 411.482 271.231C413.397 269.138 417.784 266.075 421.232 264.425Z" fill="#754827"/>
<path d="M249.573 267.454C250.438 266.134 251 263.836 250.823 262.348C250.399 258.794 246.833 257.347 244.594 259.821C242.474 262.163 242.583 264.58 244.944 267.581C249.073 272.83 244.266 274.9 239.5 269.925C237.919 268.275 236.26 266.925 235.813 266.925C234.428 266.925 234.92 274.434 236.439 276.484C237.664 278.136 238.183 278.239 239.926 277.175C242.981 275.31 244.823 275.656 245.18 278.165C245.642 281.397 248.61 281.615 249.398 278.475C250.04 275.919 252.341 275.05 253.5 276.925C254.239 278.121 257.676 278.258 258.38 277.12C259.494 275.317 259.825 267.935 258.82 267.314C258.235 266.952 256.439 268.067 254.828 269.791C249.898 275.066 245.784 273.236 249.573 267.454Z" fill="#754827"/>
<path d="M177.014 270.91C175.631 270.902 172.7 270.246 170.5 269.454C168.3 268.661 165.825 268.038 165 268.069C161.998 268.183 155.82 269.957 151.371 271.984C147.13 273.916 146.733 273.942 145.584 272.371C142.767 268.518 128.573 271.933 129.199 276.313C129.428 277.917 130.101 278.354 132 278.131C138.56 277.361 139.5 277.458 139.5 278.91C139.5 279.727 137.387 281.399 134.804 282.625C132.221 283.851 129.618 285.77 129.019 286.89C128.387 288.071 126.92 288.925 125.524 288.925C124.201 288.925 122.84 289.375 122.5 289.925C121.582 291.411 129.047 291.149 132.032 289.591C133.425 288.864 138.6 285.097 143.532 281.219C153.457 273.417 159.618 269.925 163.46 269.925C167.363 269.925 166.509 271.336 160.75 274.404C153.906 278.049 149.655 282.119 145.404 289.098C142.699 293.539 140.824 295.332 136.778 297.348C130.463 300.495 126.077 300.603 120.367 297.751C115.864 295.502 113.805 295.781 115.937 298.35C119.173 302.248 132.298 302.925 137.577 299.466C138.961 298.56 140 298.335 140 298.942C140 301.12 135.391 306.128 130.771 308.971C125.486 312.223 124.706 313.925 128.5 313.925C132.093 313.925 137.904 307.674 142.997 298.331C149.997 285.49 155.621 278.159 160.307 275.767C165.413 273.159 176.196 272.199 180.5 273.969C183.397 275.16 183.225 275.244 175.5 276.411C162.292 278.406 154.961 283.723 151.528 293.797C147.254 306.339 151.884 320.925 160.139 320.925H162.349L160.21 318.648C158.791 317.138 158.264 315.631 158.645 314.174C159.01 312.778 158.268 310.351 156.61 307.522C152.2 299.997 153.49 291.662 160.036 285.391C163.849 281.737 164.672 282.671 161.852 287.451C157.78 294.353 160.324 307.927 165.842 308.745C167.988 309.062 168.824 307.552 167.094 306.483C166.596 306.175 166.41 305.074 166.681 304.037C166.952 302.999 166.685 301.848 166.087 301.479C164.168 300.293 164.924 298.925 167.5 298.925C170.417 298.925 170.538 298.016 168.511 291.334C165.277 280.675 166.702 279.172 180.389 278.809C190.076 278.552 190.326 278.602 192.639 281.291C195.535 284.659 195.624 285.925 192.965 285.925C190.303 285.925 186 288.776 186 290.54C186 292.359 187.441 292.304 189 290.425C190.574 288.529 191.398 288.545 195.635 290.556C197.525 291.453 199.296 291.962 199.57 291.688C200.39 290.868 198.327 283.072 196.588 280.419C195.699 279.062 193.898 277.249 192.585 276.389C189.195 274.168 179.987 270.928 177.014 270.91Z" fill="#754827"/>
<path d="M349 272.309C349 274.456 348.245 274.366 341.596 271.425C333.412 267.806 327.427 268.131 310.5 273.114C301.789 275.679 296.651 280.453 295.612 286.948C295.239 289.282 295.135 291.393 295.38 291.638C295.626 291.884 296.987 291.324 298.406 290.395C301.05 288.662 306 289.021 306 290.944C306 291.484 306.45 291.925 307 291.925C307.55 291.925 308 291.262 308 290.451C308 288.868 302.814 285.735 300.905 286.165C298.668 286.669 298.946 284.143 301.455 281.161C303.986 278.153 304.011 278.147 312.746 278.594C324.434 279.192 325.882 279.571 327.156 282.369C327.992 284.203 327.868 285.864 326.622 289.52C324.38 296.101 324.493 298.925 327 298.925C329.146 298.925 329.682 300.386 327.932 301.467C327.344 301.83 327.118 302.789 327.428 303.599C327.739 304.408 327.529 305.937 326.961 306.997C326.113 308.583 326.263 308.925 327.81 308.925C330.177 308.925 332.388 306.403 333.858 302.026C335.614 296.799 335.233 292.661 332.528 287.574C331.169 285.017 330.298 282.925 330.594 282.925C332.468 282.925 335.299 285.58 337.585 289.479C341.25 295.733 341.281 302.048 337.672 307.492C335.581 310.647 335.119 312.269 335.61 314.726C336.09 317.126 335.851 318.045 334.622 318.517C332.322 319.399 332.61 320.925 335.077 320.925C341.353 320.925 346.062 309.12 344.074 298.367C341.653 285.271 333.284 278.413 317 276.18C310.572 275.299 310.533 275.274 313.5 274.012C315.42 273.196 319.155 272.899 323.871 273.188C328.579 273.477 330.657 273.312 329.621 272.733C326.594 271.039 327.833 269.639 331.88 270.182C335.976 270.731 346.154 277.14 356 285.368C361.673 290.109 367.627 292.495 371.064 291.405C373.805 290.535 372.471 288.925 369.008 288.925C367.098 288.925 365.939 288.309 365.552 287.089C365.231 286.079 362.726 284.202 359.985 282.918C356.513 281.292 355 279.993 355 278.637C355 277.064 355.479 276.81 357.5 277.308C358.875 277.648 361.119 278.201 362.488 278.539C365.975 279.4 366.979 276.459 364.16 273.64C361.324 270.805 349 269.722 349 272.309Z" fill="#754827"/>
<path d="M238.498 283.583C237.397 282.396 235.199 280.413 233.613 279.175C229.454 275.929 218.745 275.949 213.898 279.212C209.836 281.947 207.593 286.166 208.429 289.499C209.439 293.521 212.631 292.635 213.351 288.133C214.235 282.601 218.793 278.569 224.25 278.488C229.138 278.416 230.361 279.875 226.888 281.636C222.229 283.999 219.079 289.925 222.481 289.925C223.295 289.925 224.248 288.784 224.598 287.39C225.52 283.718 230.378 281.425 234.031 282.938C238.464 284.774 238.45 286.655 233.988 288.931C227.84 292.068 224.898 300.521 229.359 302.233C230.438 302.646 230.632 301.838 230.256 298.504C229.834 294.763 230.11 293.984 232.523 292.086C234.034 290.897 236.109 289.925 237.135 289.925C238.702 289.925 239 290.71 239 294.848C239 298.653 238.427 300.453 236.477 302.77C233.517 306.288 226.505 309.925 222.684 309.925C219.474 309.925 219.333 308.657 221.968 303.489C224.287 298.94 223.768 297.509 220.141 298.443C218.688 298.817 216.473 299.243 215.217 299.39C211.816 299.788 211.427 300.686 213.292 303.842C214.823 306.434 214.833 306.818 213.406 308.003C212.056 309.124 211.222 308.644 207.525 304.617C202.887 299.565 199.229 298.574 195.443 301.343C192.966 303.154 193.342 303.462 200 305.085C207.037 306.8 207.459 309.12 200.903 310.058C195.446 310.838 190.485 313.218 189.621 315.47C188.374 318.721 189.056 322.072 191.455 324.47C194.316 327.332 196.224 327.558 198.479 325.304C200.949 322.834 199.974 320.425 196.504 320.425C192.955 320.425 191.968 317.723 194.495 314.931C196.355 312.875 205.197 310.403 207.512 311.291C209.59 312.089 209.368 315.282 207.091 317.342C204.889 319.336 202.445 324.703 203.334 325.593C204.602 326.861 208.98 322.76 210.835 318.565C213.015 313.637 214.661 312.186 216.259 313.784C217.04 314.565 216.814 315.856 215.455 318.38C213.92 321.229 213.805 322.128 214.844 323.157C215.879 324.182 216.306 324.104 217.07 322.75C217.59 321.829 219.587 320.556 221.508 319.922C225.578 318.579 225.852 317.461 222.75 314.856C219.915 312.474 221.29 311.348 228.195 310.398C236.461 309.261 241.979 301.774 241.994 291.675C241.999 288.528 242.339 287.925 244.111 287.925C246.153 287.925 246.209 288.281 245.845 298.925C245.518 308.473 245.678 309.925 247.059 309.925C248.445 309.925 248.591 308.499 248.193 298.838L247.736 287.751L250.118 288.088C252.247 288.389 252.561 289.063 253.078 294.425C253.72 301.095 254.672 303.355 258.248 306.699C260.675 308.969 267 311.414 267 310.083C267 309.696 265.372 308.503 263.383 307.432C257.707 304.375 254.818 299.906 255.189 294.759C255.585 289.267 257.856 288.627 262.053 292.824C264.754 295.525 265.02 296.302 264.393 299.648C263.75 303.087 263.835 303.302 265.343 302.053C269.126 298.919 266.35 291.805 260.369 289.306C255.013 287.068 256.526 282.925 262.7 282.925C266.129 282.925 270 285.785 270 288.318C270 289.084 270.675 289.97 271.5 290.287C272.507 290.673 273 290.242 273 288.975C273 285.545 271.798 283.868 268.291 282.402C263.751 280.505 264.499 278.403 269.679 278.499C276.069 278.617 281 283.427 281 289.542C281 291.586 281.427 292.003 283.25 291.745C284.983 291.498 285.573 290.667 285.817 288.124C286.079 285.4 285.445 284.135 282.185 280.874C278.375 277.065 277.999 276.925 271.568 276.925C263.839 276.925 260.219 278.461 256.523 283.306C253.958 286.669 253.899 286.687 247.221 286.216C242.013 285.848 240.049 285.255 238.498 283.583Z" fill="#754827"/>
<path d="M373.304 298.046C365.862 302.645 355.055 298.54 348.663 288.686C345.053 283.121 338 275.793 338 277.606C338 278.197 338.689 279.252 339.531 279.951C341.018 281.185 350.053 295.497 353.011 301.306C354.901 305.016 361.619 312.65 364.219 314.042C365.774 314.874 366.587 314.767 367.782 313.571C369.181 312.172 369 311.848 365.916 310.224C362.395 308.37 353.528 300.064 354.273 299.318C354.504 299.087 356.323 299.58 358.314 300.412C363.575 302.61 372.753 302.373 376.75 299.936C378.538 298.846 380 297.498 380 296.94C380 295.28 376.97 295.78 373.304 298.046Z" fill="#754827"/>
<path d="M101.487 308.516C98.744 306.64 95.243 303.49 93.707 301.516C90.84 297.829 89.571 297.191 88.513 298.904C86.967 301.405 92.322 306.647 99.799 309.954C106.444 312.894 107.088 312.345 101.487 308.516Z" fill="#754827"/>
<path d="M106.4 301.765C107.28 300.508 108 299.13 108 298.702C108 297.486 104.534 297.791 103.2 299.125C102.54 299.785 102 301.495 102 302.925C102 305.392 103.573 307.925 105.106 307.925C105.495 307.925 105.585 307.053 105.306 305.987C105.027 304.922 105.519 303.021 106.4 301.765Z" fill="#754827"/>
<path d="M281.532 303.516C283.346 300.747 283.247 300.637 278 299.587C276.625 299.312 274.488 298.773 273.25 298.389C270.361 297.494 270.267 299.568 272.957 304.841C275.136 309.111 274.85 309.896 271.083 309.988C268.543 310.051 268.537 310.067 270.75 310.956C273.532 312.074 273.618 313.522 271 315.157C268.063 316.991 268.552 318.622 272.42 319.899C274.301 320.519 276.381 321.679 277.042 322.476C277.704 323.273 278.64 323.925 279.122 323.925C280.587 323.925 280.103 319.255 278.5 317.925C276.708 316.438 276.554 314.319 278.164 313.324C279.625 312.421 284 317.357 284 319.908C284 321.694 288.314 325.925 290.135 325.925C291.974 325.925 290.865 322.031 288 318.425C283.019 312.157 284.523 310.2 292.936 312.005C298.266 313.148 301.383 315.761 300.802 318.601C300.531 319.925 299.68 320.345 297.699 320.135C294.067 319.749 293.042 322.411 295.77 325.14C300.465 329.834 307.877 322.643 304.869 316.312C303.198 312.793 297.787 309.929 292.809 309.927C290.779 309.926 288.859 309.506 288.542 308.993C287.713 307.651 292.001 304.928 294.973 304.91C298.925 304.886 300.667 303.434 299.063 301.501C297.235 299.298 291.401 299.49 289.25 301.824C288.288 302.868 286.44 304.893 285.145 306.324C283.85 307.754 282.373 308.925 281.864 308.925C280.05 308.925 279.874 306.047 281.532 303.516Z" fill="#754827"/>
<path d="M390.219 307.142C392.521 305.255 392.976 302.335 391.333 299.99C389.743 297.72 386.981 297.197 387.032 299.175C387.049 299.863 387.677 301.233 388.426 302.221C389.175 303.21 389.533 305.01 389.221 306.221C388.731 308.124 388.867 308.25 390.219 307.142Z" fill="#754827"/>
<path d="M394.411 310.194C400.132 308.074 406 302.933 406 300.04C406 296.803 403.901 297.655 399.5 302.681C397.3 305.193 394.018 308.131 392.207 309.211C387.73 311.879 388.699 312.312 394.411 310.194Z" fill="#754827"/>
<path d="M114.116 311.57C115.037 309.549 115.017 308.65 114.025 307.455C112.705 305.864 109 305.326 109 306.725C109 307.165 109.485 308.01 110.078 308.603C110.671 309.196 111.009 310.974 110.828 312.553C110.567 314.843 109.943 315.489 107.75 315.741C104.347 316.133 104.115 318.665 107.407 319.491C110.739 320.327 114.256 318.306 113.517 315.979C113.199 314.976 113.468 312.991 114.116 311.57Z" fill="#754827"/>
<path d="M386.79 316.074C382.799 315.463 381.668 311.054 384.655 307.754C386.207 306.039 386.183 305.925 384.277 305.925C381.108 305.925 380.173 307.976 380.737 313.688C381.191 318.286 381.577 319.032 383.783 319.585C386.414 320.246 389.339 319.054 389.174 317.389C389.122 316.859 388.049 316.267 386.79 316.074Z" fill="#754827"/>
<path d="M120.29 318.735C122.548 319.18 124.5 315.232 122.947 313.361C121.391 311.486 119.564 311.54 117.93 313.509C116.406 315.346 117.706 318.226 120.29 318.735Z" fill="#754827"/>
<path d="M374.29 318.735C376.548 319.18 378.5 315.232 376.947 313.361C375.391 311.486 373.564 311.54 371.93 313.509C370.406 315.346 371.706 318.226 374.29 318.735Z" fill="#754827"/>
<path d="M101.526 314.925C102.337 314.925 103 314.475 103 313.925C103 311.208 95.283 314.003 94.094 317.151C92.332 321.814 96.143 322.483 98.5 317.925C99.353 316.275 100.715 314.925 101.526 314.925Z" fill="#754827"/>
<path d="M401.526 320.925C403.583 320.925 403.368 317.568 401.184 315.592C398.893 313.518 393 312.228 393 313.8C393 314.419 393.888 314.925 394.974 314.925C396.157 314.925 397.571 316.129 398.5 317.925C399.353 319.575 400.715 320.925 401.526 320.925Z" fill="#754827"/>
<path d="M195.961 6.267C199.579 6.991 200.673 5.54996 198.949 2.32999C197.302 -0.748011 194.564 -0.730066 191.455 2.37992C188.742 5.09196 188.273 9.38395 190.384 12.164C192.2 14.5559 198.213 16.925 202.468 16.925C204.966 16.925 206 17.371 206 18.45C206 20.131 202.159 21.925 198.557 21.925C197.285 21.925 195.691 22.5929 195.014 23.408C193.992 24.639 194.238 25.065 196.456 25.908C201.09 27.67 203.003 27.0509 207.212 22.425C209.465 19.95 211.865 17.925 212.547 17.925C214.489 17.925 215.005 20.543 213.463 22.5779C211.359 25.355 211.716 26.925 214.453 26.925C215.802 26.925 218.064 27.4529 219.48 28.0979C223.56 29.9569 224.582 27.986 222.081 23.084C219.451 17.928 219.469 16.925 222.191 16.925C224.337 16.925 224.342 16.893 222.441 15.398C220.533 13.897 220.538 13.8439 222.75 12.2759C225.948 10.0089 225.541 8.25895 221.508 6.92801C219.587 6.29398 217.59 5.02091 217.07 4.10001C216.302 2.73893 215.882 2.66495 214.835 3.70292C213.807 4.72098 213.796 5.32999 214.779 6.70292C216.827 9.56193 217.242 10.851 216.63 12.4479C215.735 14.7799 212.342 12.236 210.623 7.94498C208.785 3.35294 205.352 0.17301 203.853 1.67191C203.054 2.47098 203.607 4.03495 205.877 7.39799C210.853 14.7709 209.618 16.7439 201.208 14.8589C195.596 13.602 193 11.4779 193 8.14493C193 5.94095 193.319 5.73893 195.961 6.267Z" fill="#71421F"/>
<path d="M306 7.33695C306 6.15897 305.067 4.00895 303.927 2.55997C301.412 -0.638025 297.672 -0.872034 295.632 2.03995C293.483 5.10892 294.563 6.96195 298.09 6.25699C300.696 5.736 301 5.94193 301 8.22892C301 11.6299 298.739 13.711 294.218 14.472C287.725 15.565 284.991 15.3279 285.028 13.675C285.043 12.988 286.393 10.657 288.028 8.49698C290.675 4.99894 291.969 0.924963 290.434 0.924963C288.371 0.924963 285.607 3.67692 284.071 7.25992C281.881 12.368 279.391 14.716 277.825 13.1499C276.672 11.997 277.042 10.691 279.446 7.41898C280.414 6.10099 280.609 4.90995 280.013 3.94498C279.24 2.69498 278.764 2.77897 276.803 4.50992C275.536 5.62797 273.201 7.09696 271.614 7.77494L268.728 9.00602L271.088 11.518C273.889 14.4999 273.029 15.394 266.405 16.387C258.389 17.589 253 24.623 253 33.8849C253 38.6599 252.862 38.925 250.372 38.925H247.743L248.196 27.925C248.591 18.345 248.444 16.925 247.059 16.925C245.678 16.925 245.518 18.377 245.845 27.925C246.209 38.569 246.153 38.925 244.111 38.925C242.339 38.925 241.999 38.3219 241.994 35.175C241.981 25.8689 235.824 16.877 229.529 16.9689L226.5 17.013L230.129 18.9309C236.162 22.1189 239 26.3009 239 32.002C239 37.336 238.441 37.721 234.021 35.4359C230.67 33.7029 229.588 31.0769 230.505 26.903C231.32 23.19 229.435 22.8749 227.806 26.451C226.088 30.2229 228.845 35.295 234.059 37.955C238.048 39.9899 238.128 40.126 236.438 41.993C233.251 45.5149 225 43.514 225 39.2189C225 38.642 224.33 37.6139 223.512 36.935C222.306 35.934 221.906 36.007 221.402 37.32C220.512 39.6399 223.638 43.903 227.119 45.117C231.443 46.6239 230.073 48.435 224.665 48.3629C218.901 48.2859 215.362 45.308 213.714 39.1459C212.788 35.683 212.167 34.8999 210.532 35.1339C207.581 35.5569 207.442 39.8 210.242 43.9589C216.072 52.621 228.987 53.0629 236.935 44.872C240.64 41.055 240.985 40.925 247.423 40.925C253.859 40.925 254.204 41.055 257.79 44.821C265.939 53.3789 280.182 52.3689 285.018 42.8899C286.624 39.742 286.823 38.4639 285.96 36.85C284.335 33.814 281.692 34.8849 280.868 38.915C280.435 41.032 278.738 43.6929 276.53 45.717C273.559 48.44 272.235 48.9839 269.202 48.7329C264.515 48.3429 264.432 46.451 269 44.1719C271.805 42.772 272.564 41.7589 272.821 39.0679C273.054 36.6349 272.779 35.831 271.821 36.1459C271.095 36.386 270.357 37.555 270.182 38.7449C269.333 44.508 257 46.006 257 40.346C257 39.6979 258.365 38.602 260.034 37.9109C266.046 35.4209 269.132 27.94 265.419 24.8579C264.011 23.689 263.913 23.945 264.525 27.206C265.127 30.413 264.836 31.242 262.183 33.8959C260.517 35.5619 258.219 36.925 257.077 36.925C255.316 36.925 255 36.308 255 32.8749C255 30.648 255.644 27.581 256.43 26.06C259.144 20.8109 269.207 15.639 273.5 17.2859C274.874 17.814 274.818 18.362 273.03 21.8649C271.023 25.8 270.405 28.925 271.634 28.925C272.186 28.925 277.791 27.486 281.858 26.3009C282.952 25.982 282.889 25.4049 281.532 23.334C279.795 20.6819 280.072 17.925 282.077 17.925C282.704 17.925 285.138 20.018 287.487 22.576C291.465 26.908 292.013 27.185 295.502 26.618C297.562 26.284 299.473 25.7859 299.747 25.5109C300.946 24.3119 298.848 21.925 296.596 21.925C292.858 21.925 289 20.1599 289 18.45C289 17.371 290.034 16.925 292.532 16.925C299.658 16.925 306 12.4099 306 7.33695Z" fill="#71421F"/>
<path d="M101.482 11.918C100.097 11.392 98.533 9.82792 98.007 8.44291C96.937 5.62894 94.53 5.10099 93.617 7.48099C92.708 9.85001 97.348 13.925 100.955 13.925C104.658 13.925 104.849 13.1979 101.482 11.918Z" fill="#71421F"/>
<path d="M160.441 8.34501C161.298 7.71793 162 6.91691 162 6.56498C162 5.55301 159.715 5.84391 157.096 7.18998C152.585 9.50797 150.741 13.2599 150.255 21.1089C149.214 37.939 158.471 48.5459 175.909 50.501C181.621 51.1409 182.117 51.366 180.468 52.5719C178.306 54.153 169.979 54.3529 165.06 52.9419C160.68 51.6859 159.994 52.3119 163.87 54.028C167.36 55.5719 167.032 56.925 163.168 56.925C159.66 56.925 150.579 51.497 140.5 43.376C132.429 36.873 127.729 34.6599 124.035 35.626C121.4 36.315 122.442 37.925 125.524 37.925C126.92 37.925 128.387 38.779 129.019 39.96C129.618 41.08 132.221 42.9989 134.804 44.225C137.387 45.451 139.5 47.123 139.5 47.94C139.5 49.392 138.56 49.4889 132 48.7189C128.534 48.3119 127.91 52.2709 131.166 54.014C136.908 57.0869 146 57.1969 146 54.1929C146 53.168 146.54 52.938 147.75 53.446C155.718 56.7919 159.906 58.063 163.412 58.199C169.515 58.4359 182.685 55.268 189.64 51.8899C196.169 48.7189 198.163 46.055 199.528 38.675C200.299 34.512 199.052 33.815 195.559 36.4569C192.877 38.485 190.371 38.293 188.717 35.9309C187.419 34.0779 186 34.162 186 36.092C186 37.862 190.119 40.925 192.5 40.925C195.726 40.925 195.694 42.925 192.419 46.001C190.008 48.2649 189.23 48.403 180.669 48.09C166.979 47.59 165.357 45.912 168.511 35.5159C170.538 28.834 170.417 27.925 167.5 27.925C164.923 27.925 164.353 27.034 165.868 25.3749C166.345 24.852 167.015 22.9319 167.356 21.107C167.92 18.096 167.77 17.8179 165.739 18.107C160.02 18.919 157.531 33.194 161.881 40.232C164.873 45.074 163.159 44.951 158.689 40.003C153.426 34.1769 152.476 24.398 156.717 19.6929C157.576 18.7399 158.414 16.053 158.58 13.722C158.75 11.337 159.563 8.986 160.441 8.34501Z" fill="#71421F"/>
<path d="M344.355 23.9739C344.464 15.4269 342.645 10.289 338.647 7.85099C335.105 5.69193 334.356 5.53995 333.565 6.81998C333.26 7.3129 333.699 7.97892 334.538 8.30094C335.542 8.68595 335.996 10.008 335.865 12.1559C335.632 15.9519 336.738 19.925 338.029 19.925C338.521 19.925 339.402 21.704 339.988 23.8789C341.46 29.3479 339.632 36.1129 335.494 40.4999C331.235 45.0159 329.409 44.8839 332.53 40.2849C336.588 34.3059 334.967 21.5829 329.794 18.815C327.165 17.408 327.04 17.694 327.997 22.9159C328.908 27.889 328.497 29.33 326.399 28.5249C324.523 27.805 324.567 31.445 326.5 36.925C328.417 42.3579 328.387 43.226 326.187 45.9429C324.551 47.9629 323.374 48.206 314.167 48.425C303.972 48.6669 303.959 48.664 301.481 45.72C300.116 44.0979 299 42.435 299 42.0249C299 41.6139 300.643 40.861 302.652 40.351C306.387 39.404 309.061 36.652 307.633 35.225C307.195 34.7869 306.261 35.215 305.558 36.1769C303.998 38.31 301.045 38.4259 298.441 36.4569C295.334 34.106 294.701 34.654 295.409 39.084C296.751 47.471 301.442 51.768 312.215 54.477C315.672 55.347 320.794 56.704 323.598 57.4949C329.422 59.136 335.433 58.3849 343.226 55.043C347.634 53.153 348.016 53.131 348.907 54.721C350.179 56.993 358.312 56.8849 362.812 54.537C365.269 53.256 366.043 52.2439 365.812 50.617C365.495 48.387 365.051 48.303 358 49.131C353.762 49.6289 355.087 46.622 360.178 44.189C362.751 42.96 365.144 41.0469 365.495 39.939C365.941 38.5359 367.006 37.925 369.008 37.925C372.471 37.925 373.805 36.315 371.064 35.445C367.496 34.3129 361.559 36.8009 355.486 41.975C345.624 50.376 335.028 56.925 331.296 56.925C327.706 56.925 326.857 55.423 329.9 54.4569C335.801 52.584 343.843 45.889 348.277 39.158C352.14 33.295 353.854 31.654 358.483 29.3899C364.618 26.388 370.623 26.3689 373.906 29.34C375.932 31.173 380.356 31.493 379.78 29.7649C378.364 25.518 364.837 23.4059 358.857 26.4989C357.184 27.3639 355.594 27.8529 355.326 27.584C353.831 26.0889 359.646 20.117 365.939 16.684C369.27 14.867 369.272 12.925 365.944 12.925C362.394 12.925 356.48 19.665 349.991 31.106C342.157 44.9159 337.466 50.237 331.263 52.351C325.594 54.283 316.039 54.4049 313.541 52.5779C311.908 51.3849 312.465 51.154 318.439 50.5409C334.69 48.877 344.161 39.1669 344.355 23.9739Z" fill="#71421F"/>
<path d="M397.473 13.5209C400.592 12.738 403 10.269 403 7.85392C403 4.95194 400.252 5.5369 398.566 8.79801C397.749 10.378 396.05 11.9829 394.79 12.3649C391.785 13.2759 394.238 14.3329 397.473 13.5209Z" fill="#71421F"/>
<path d="M113.517 10.871C113.898 9.67191 113.417 8.68302 112.114 7.986C110.054 6.88297 109.653 6.85599 106.75 7.61393C104.007 8.33097 104.702 10.758 107.75 11.1089C109.896 11.355 110.568 12.018 110.812 14.126C110.983 15.611 110.63 17.748 110.026 18.876C109.099 20.6089 109.224 20.925 110.842 20.925C113.991 20.925 115.502 18.321 114.116 15.2799C113.468 13.8589 113.199 11.8739 113.517 10.871Z" fill="#71421F"/>
<path d="M386.77 11.105C389.338 10.737 389.756 8.42899 387.418 7.53202C383.54 6.04398 381.371 8.27799 380.596 14.5609C379.938 19.887 380.613 20.925 384.737 20.925C386.081 20.925 386.043 20.6289 384.473 18.8949C382.081 16.252 383.459 11.58 386.77 11.105Z" fill="#71421F"/>
<path d="M122.929 14.058C123.514 12.965 123.735 11.397 123.419 10.575C121.923 6.67594 116.556 8.73795 117.155 12.981C117.603 16.157 121.424 16.8699 122.929 14.058Z" fill="#71421F"/>
<path d="M376.364 15.616C378.645 14.7399 378.443 10.232 376.066 8.96C373.589 7.63395 373.476 7.64591 372.04 9.37699C369.6 12.3169 372.827 16.9729 376.364 15.616Z" fill="#71421F"/>
<path d="M146 33.4949C142.975 28.066 138.297 21.217 135.605 18.2749C130.947 13.184 127.865 11.716 126.494 13.934C126.151 14.4889 127.362 15.727 129.185 16.684C133.34 18.866 140 25.5209 140 27.4899C140 28.788 139.713 28.783 137.685 27.454C132.519 24.069 121.682 24.2919 117.015 27.878C113.226 30.7909 115.477 31.5779 120.549 29.1139C126.065 26.433 130.257 26.371 135.5 28.892C140.971 31.522 142.106 32.5889 146.187 38.925C149.936 44.747 152.615 47.493 157.5 50.518C159.891 51.9989 159.587 51.4619 156 47.871C153.525 45.393 149.025 38.923 146 33.4949Z" fill="#71421F"/>
<path d="M103.077 17.3849C104.684 16.554 106 15.6599 106 15.399C106 14.383 104.067 15.049 97.951 18.175C90.803 21.8279 86.833 26.158 88.815 28.1399C89.761 29.086 91.128 28.212 95.089 24.123C97.874 21.2489 101.469 18.217 103.077 17.3849Z" fill="#71421F"/>
<path d="M406 27.121C406 24.507 400.259 19.373 394.667 16.987C388.92 14.5349 387.561 14.4159 391 16.665C392.375 17.564 395.824 20.69 398.664 23.612C404.093 29.1979 406 30.11 406 27.121Z" fill="#71421F"/>
<path d="M106.415 25.8539C105.423 25.0309 104.984 23.4889 105.242 21.732C105.716 18.497 104.547 18.034 103.035 20.8589C100.872 24.8999 102.452 28.925 106.2 28.925C108.423 28.925 108.516 27.5979 106.415 25.8539Z" fill="#71421F"/>
<path d="M389.025 28.925C392.024 28.925 393.509 24.351 391.504 21.29C389.425 18.118 389 18.3009 389 22.366C389 24.2589 388.55 26.085 388 26.425C386.301 27.475 386.895 28.925 389.025 28.925Z" fill="#71421F"/>
<path d="M118.068 44.799C119.707 41.735 117.775 38.147 113.53 36.373C105.843 33.1609 97.281 35.731 87 44.336C83.975 46.868 79.17 50.1599 76.321 51.652C71.238 54.314 71.105 54.33 69.071 52.4899C66.569 50.225 66.444 48.1969 68.655 45.7539C70.195 44.0519 70.195 43.925 68.655 43.925C66.618 43.925 63 47.4059 63 49.366C63 51.496 61.312 52.162 59.021 50.9359C57.829 50.298 57 50.246 57 50.808C57 53.1549 58.476 55.1559 60.886 56.076C63.286 56.993 63.358 57.179 61.766 58.3489C59.457 60.044 60.549 60.93 64.917 60.903C69.26 60.876 75.44 58.105 79.5 54.362C81.15 52.841 83.722 50.476 85.216 49.106L87.932 46.616L88.931 49.243C89.48 50.688 89.664 54.721 89.338 58.206C88.748 64.529 88.738 64.545 84.127 66.9829C81.587 68.326 79.373 70.1499 79.207 71.0359C78.88 72.7909 82.969 79.814 84.358 79.883C84.831 79.9059 84.933 78.795 84.586 77.414C84.082 75.402 84.437 74.683 86.368 73.803C87.694 73.199 89.283 71.5989 89.898 70.2489L91.017 67.793L93.556 69.79C94.952 70.888 97.423 72.079 99.047 72.435C102.332 73.157 102.928 75.3059 100.258 76.8C99.3 77.336 98.855 78.113 99.269 78.527C100.229 79.488 105.661 74.3279 106.313 71.836C106.894 69.616 103.521 64.925 101.344 64.925C99.04 64.925 100.335 62.554 102.979 61.93C106.539 61.09 107.952 58.143 105.625 56.414C104.593 55.648 104 54.367 104.307 53.5669C104.614 52.767 103.992 51.3229 102.925 50.357C101.038 48.6499 101.002 48.6859 101.608 51.715C102.155 54.451 101.922 54.9059 99.688 55.467C98.289 55.8179 96.901 56.7399 96.604 57.5149C95.538 60.293 93.266 58.951 92.642 55.175C91.133 46.0469 93.085 42.1039 100.735 38.824C105.836 36.638 108.857 36.4469 112.453 38.086C114.868 39.1859 115.933 40.925 114.191 40.925C112.186 40.925 109.929 43.5779 110.553 45.201C111.527 47.742 116.639 47.4679 118.068 44.799Z" fill="#71421F"/>
<path d="M408.5 45.174C404.1 41.8579 398.707 38.195 396.515 37.0349C390.446 33.8219 382.321 34.5149 377.771 38.633C374.143 41.9159 376.459 47.425 381.185 46.752C384.21 46.321 384.881 42.9679 382.087 42.237C377.716 41.095 380.989 36.925 386.256 36.925C390.475 36.925 397.944 40.038 400.002 42.654C402.632 45.998 402.922 57.6339 400.399 58.602C399.519 58.94 398.454 58.6599 398.034 57.98C397.614 57.3 396.197 56.2 394.885 55.534C393.391 54.777 392.531 53.492 392.582 52.097C392.628 50.872 392.178 50.034 391.582 50.235C390.987 50.4359 390.485 51.522 390.468 52.648C390.45 53.774 389.837 55.4159 389.106 56.2969C387.641 58.0619 388.239 60.756 390.227 61.352C392.95 62.1678 394.277 62.526 394.414 63.1474C394.547 63.7483 393.567 64.5955 391.662 66.341C389.648 68.185 388 70.3329 388 71.1139C388 72.533 393.972 78.925 395.298 78.925C396.925 78.925 395.828 77.113 393.895 76.6079C391.015 75.855 391.989 73.644 395.749 72.399C397.453 71.835 399.847 70.485 401.07 69.399C402.94 67.738 403.374 67.663 403.811 68.925C404.097 69.7499 405.64 71.6499 407.241 73.147C409.343 75.113 409.974 76.433 409.509 77.897C408.458 81.2069 410.529 80.212 413.443 76.007C416.837 71.1089 415.928 68.8269 409.622 66.418L405.221 64.738L404.759 58.081C404.481 54.0829 404.76 50.503 405.457 49.117C406.608 46.8269 406.668 46.8539 412.987 52.492C420.231 58.956 424.196 60.925 429.968 60.925C434.043 60.925 434.867 60.1919 432.949 58.274C432.214 57.539 432.665 56.72 434.449 55.5509C437.61 53.4789 438.134 49.248 435.023 50.913C433.306 51.8319 432.858 51.5209 431.614 48.544C430.827 46.6599 429.208 44.808 428.016 44.43C425.386 43.595 424.196 44.5209 425.817 46.142C427.654 47.9789 427.213 51.741 425.023 52.913C422.256 54.394 418.229 52.508 408.5 45.174Z" fill="#71421F"/>
<path d="M254.588 49.878C251.538 51.5099 249 50.637 249 47.956C249 46.8389 248.4 45.925 247.667 45.925C245.838 45.925 245 46.92 245 49.092C245 51.2179 242.856 51.4639 239.926 49.675C238.183 48.611 237.664 48.714 236.439 50.366C234.815 52.5569 234.47 59.925 235.992 59.925C236.538 59.925 238.187 58.575 239.658 56.925C244.659 51.3119 248.084 54.132 244.292 60.7389C242.885 63.191 242.793 64.175 243.77 66.32C245.027 69.0769 247.801 69.7239 249.8 67.725C251.485 66.04 251.293 61.788 249.411 59.101C247.682 56.633 248.138 53.925 250.282 53.925C251.021 53.925 252.919 55.2749 254.5 56.925C258.764 61.3749 260.087 60.898 259.351 55.175C258.58 49.1709 257.712 48.206 254.588 49.878Z" fill="#71421F"/>
<path fill-rule="evenodd" clip-rule="evenodd" d="M203.516 57.976C203.176 56.904 202.048 55.757 201.009 55.428C199.779 55.0369 199.011 53.711 198.81 51.627L198.5 48.425L196.149 52.403C193.404 57.049 193.929 58.5729 199.178 61.19C202.495 62.8439 202.758 63.331 203.34 68.907C203.99 75.1239 203.498 77.925 201.755 77.925C201.188 77.925 198.727 76.085 196.288 73.836C190.846 68.821 183.769 65.5149 180.323 66.3799C178.379 66.868 178.069 67.304 178.929 68.34C179.778 69.363 179.45 70.055 177.517 71.3219C176.133 72.2289 175 73.726 175 74.648C175 75.9519 175.267 76.058 176.2 75.1249C178.064 73.2609 179.018 73.679 180.122 76.845C180.682 78.451 181.848 80.0359 182.713 80.368C184.866 81.195 185.538 80.278 184.073 78.513C183.17 77.425 183.143 76.5259 183.966 74.9889C186.083 71.032 189.876 72.5109 203.127 82.4589C206.082 84.678 209.625 87.0099 211 87.642C213.021 88.57 210.665 88.803 198.71 88.857C181.561 88.936 181.163 88.804 167.755 78.6189C163.215 75.17 157.925 71.3909 156 70.221C152.102 67.851 145.726 66.3579 144.016 67.415C142.028 68.644 145.005 70.925 148.596 70.925C152.028 70.925 161 74.685 161 76.1239C161 76.565 159.59 76.925 157.866 76.925C150.537 76.925 144.157 80.597 138.285 88.194C137.21 89.584 131.335 89.779 87.768 89.877C34.018 89.998 34.012 89.997 35.355 84.647C36.113 81.627 39.085 80.3649 41.896 81.8699C46.817 84.503 51 81.653 51 75.668C51 69.462 45.878 66.84 41.564 70.8379C39.476 72.774 37.968 73.2589 34.699 73.043C31.983 72.8649 29.513 66.29 30.964 63.1039C32.554 59.6149 30.88 58.445 27.784 60.881C21.748 65.628 23.742 71.9049 31.955 74.0099C34.73 74.721 37 75.6449 37 76.0619C37 76.4789 34.642 76.956 31.759 77.123C27.709 77.356 26.443 77.8219 26.186 79.175C25.945 80.444 26.506 80.925 28.227 80.925C29.532 80.925 31.028 80.5259 31.55 80.037C32.073 79.549 33.513 78.8439 34.75 78.47C37.825 77.5409 37.719 79.9009 34.553 82.8749C33.208 84.139 31.97 86.1299 31.803 87.299C31.511 89.351 30.949 89.435 15.682 89.701C1.32898 89.951 -0.106017 90.136 0.194993 91.701C0.507981 93.3279 14.461 93.425 247.014 93.425C492.833 93.425 493.5 93.42 493.5 91.425C493.5 89.533 492.667 89.398 478.094 88.925C463.646 88.456 462.669 88.3009 462.396 86.425C462.236 85.325 460.876 83.444 459.373 82.2439C457.054 80.393 456.837 79.826 457.943 78.4939C458.888 77.356 458.921 76.925 458.063 76.925C455.631 76.925 458.108 75.127 461.388 74.512C469.584 72.9739 472.63 66.267 467.354 61.377C463.626 57.9219 462.951 58.29 463.651 63.399C464.764 71.518 459.491 75.892 454.079 71.3379C449.672 67.6299 445.968 68.2489 444.163 72.996C441.809 79.1879 445.559 83.972 451.22 81.998C452.913 81.408 454.896 80.925 455.626 80.925C457.528 80.925 460.161 85.3429 459.416 87.284C458.843 88.7759 454.14 88.924 407.643 88.913L356.5 88.8999L354.256 85.436C351.447 81.0989 345.115 77.7969 338.121 77.0209L332.743 76.425L336.974 74.053C339.301 72.7489 343.522 71.399 346.353 71.053C349.982 70.61 351.5 69.9829 351.5 68.925C351.5 66.6509 346.652 66.5419 341.786 68.706C339.429 69.7549 333.675 73.535 329 77.106C320.485 83.6101 316.869 86.545 312.737 87.8551C309.002 89.0395 304.847 88.8962 296.27 88.862C285.78 88.819 281.256 88.4939 282.758 87.891C283.999 87.392 289.113 84.0409 294.122 80.445C299.131 76.8479 304.308 73.6349 305.627 73.304C309.828 72.2489 312.762 76.763 309.8 79.725C308.867 80.658 308.988 80.925 310.347 80.925C311.307 80.925 312.86 79.5619 313.797 77.8949C315.125 75.533 315.995 74.987 317.75 75.415C320.832 76.1659 320.715 73.632 317.553 71.1449C315.866 69.819 315.427 68.898 316.14 68.185C319.132 65.1929 309.465 65.659 304.759 68.7339C303.335 69.664 300.095 72.1759 297.56 74.316C295.024 76.456 292.628 77.886 292.236 77.4939C291.843 77.102 291.517 73.784 291.511 70.122L291.5 63.464L295.75 61.1199C300.416 58.5459 301.047 56.4529 298.385 52.3899C296.638 49.7229 294.714 49.0149 295.618 51.372C295.941 52.215 294.71 54.2809 292.669 56.3229C289.693 59.298 288.982 59.6079 287.96 58.376C287.297 57.5779 285.91 56.925 284.878 56.925C283.845 56.925 282.145 56.07 281.1 55.0249C278.884 52.809 277 53.971 277 57.554C277 59.8069 279.363 62.925 281.071 62.925C282.957 62.925 281.923 65.0039 279.597 65.888C276.475 67.075 275.707 68.423 276.893 70.6339C277.422 71.6189 278.191 73.325 278.603 74.425C279.326 76.355 279.365 76.3479 279.739 74.222C279.952 73.0109 281.109 71.7079 282.31 71.3269C283.51 70.946 285.048 69.9119 285.727 69.029C286.817 67.6139 287.08 67.602 287.966 68.925C289.314 70.941 289.267 78.246 287.885 81.278C285.608 86.2759 273.809 89.163 270.242 85.595C268.602 83.955 268.631 83.834 270.804 83.266C274.22 82.373 273.208 79.425 269.486 79.425C267.129 79.425 266.431 79.9109 266.173 81.73C265.803 84.34 267.465 86.757 270.465 87.9729C271.712 88.4789 267.9 88.8229 260.628 88.862L248.756 88.925L250.225 86.675C251.033 85.4379 254.07 83.206 256.973 81.716C263.439 78.397 263.66 78.185 262.183 76.7079C260.392 74.9169 260.765 72.925 262.893 72.925C263.934 72.925 265.045 72.2499 265.362 71.425C265.678 70.6 266.664 69.925 267.552 69.925C270.176 69.925 268.581 67.4529 265.739 67.1149C258.982 66.311 250.84 73.777 249.042 82.425C248.134 86.79 246.895 86.111 245.461 80.461C244.594 77.0459 243.104 74.492 240.687 72.277C236.946 68.8479 230.18 66.258 227.575 67.258C225.557 68.032 225.526 69.925 227.531 69.925C228.374 69.925 229.322 70.6 229.638 71.425C229.955 72.2499 231.066 72.925 232.107 72.925C234.122 72.925 234.707 75.3699 232.951 76.455C231.348 77.446 233.698 79.738 239.151 82.502C241.779 83.8329 244.41 85.8229 244.999 86.924C246.043 88.8739 245.769 88.924 234.285 88.8849C223.395 88.8479 222.704 88.7339 225.181 87.389C228.735 85.459 229.673 82.326 227.435 79.8529C225.301 77.4949 224.609 77.459 222.472 79.596C220.911 81.157 220.956 81.386 223.151 83.0879C225.15 84.639 225.277 85.058 224 85.902C221.83 87.3379 215.467 87.147 211.599 85.5309C205.633 83.038 203.457 77.1139 206.025 70.3579C206.953 67.918 207.215 67.8019 208.775 69.141C209.724 69.955 211.288 70.8999 212.25 71.242C213.212 71.5829 214 72.7759 214 73.894C214 75.011 214.45 75.925 215 75.925C215.55 75.925 216 74.855 216 73.5469C216 72.2399 216.686 70.6 217.525 69.904C218.887 68.774 218.87 68.439 217.37 66.782C216.446 65.7599 214.86 64.925 213.845 64.925C211.205 64.925 211.567 63.04 214.414 61.9579C217.838 60.6559 218.649 57.272 216.295 54.118C215.241 52.706 213.832 51.444 213.164 51.3129C212.496 51.1819 212.411 51.304 212.975 51.5829C215.089 52.632 213.883 55.076 210.568 56.461C208.681 57.2489 206.854 58.352 206.509 58.9099C205.518 60.513 204.19 60.0989 203.516 57.976ZM141.552 88.81C140.634 87.892 148.854 80.0879 151.216 79.6349C158.976 78.148 164.124 79.389 171.63 84.559C174.584 86.5929 176.884 88.3749 176.741 88.518C176.226 89.032 142.058 89.316 141.552 88.81ZM322.828 84.8019C326.205 82.534 330.437 80.308 332.234 79.8539C336.501 78.7759 343.789 79.5559 346.588 81.391C347.808 82.19 349.78 84.212 350.971 85.8849L353.136 88.925H316.687L322.828 84.8019Z" fill="#71421F"/>
<path d="M428 68.0469C428 65.716 426.589 64.5619 421.587 62.8019C419.435 62.045 415.396 59.3999 412.612 56.925C407.672 52.534 407.601 52.507 409.655 55.8C410.814 57.657 414.133 61.5939 417.033 64.55C420.963 68.558 423.029 69.925 425.152 69.925C427.271 69.925 428 69.445 428 68.0469Z" fill="#71421F"/>
<path d="M67.18 67.679C66.333 73.6349 76.096 67.934 82.812 58.5519C86.29 53.6929 85.653 52.008 82.063 56.5719C80.918 58.027 77.173 60.616 73.741 62.325C69.225 64.574 67.412 66.054 67.18 67.679Z" fill="#71421F"/>
<path d="M59.871 76.925C62.692 76.925 64.113 70.4379 61.8 68.1249C60.493 66.8179 57.728 66.5299 56.667 67.592C54.637 69.621 57.145 76.925 59.871 76.925Z" fill="#71421F"/>
<path d="M437 75.425C439.399 73.2539 439.657 68.3909 437.418 67.532C435.049 66.623 434.295 66.773 432.571 68.496C430.435 70.633 430.597 73.2499 433 75.425C434.93 77.1719 435.07 77.1719 437 75.425Z" fill="#71421F"/>
<path d="M462.756 79.9589C466.107 81.8319 469.233 81.383 468.798 79.091C468.575 77.9109 467.246 77.335 464.241 77.118C459.354 76.763 458.831 77.764 462.756 79.9589Z" fill="#71421F"/>
<path d="M25.141 98.399C25.902 99.1609 491.883 99.3749 492.644 98.6149C493.023 98.235 387.883 97.925 259 97.925C130.117 97.925 24.88 98.138 25.141 98.399Z" fill="#71421F"/>
</svg>
