<svg width="500" height="200" xmlns="http://www.w3.org/2000/svg">

 <g>
  <title>background</title>
  <rect fill="none" id="canvas_background" height="202" width="502" y="-1" x="-1"/>
 </g>
 <g>
  <title>Layer 1</title>
  <path id="svg_36" fill="#bbb8b8" d="m196.961,49.267c3.618,0.724 4.712,-0.71704 2.988,-3.93701c-1.647,-3.078 -4.385,-3.06006 -7.494,0.04993c-2.713,2.71204 -3.182,7.00403 -1.071,9.78408c1.816,2.3919 7.829,4.761 12.084,4.761c2.498,0 3.532,0.446 3.532,1.525c0,1.681 -3.841,3.475 -7.443,3.475c-1.272,0 -2.866,0.6679 -3.543,1.483c-1.022,1.231 -0.776,1.657 1.442,2.5c4.634,1.762 6.547,1.1429 10.756,-3.483c2.253,-2.475 4.653,-4.5 5.335,-4.5c1.942,0 2.458,2.618 0.916,4.6529c-2.104,2.7771 -1.747,4.3471 0.99,4.3471c1.349,0 3.611,0.5279 5.027,1.1729c4.08,1.859 5.102,-0.1119 2.601,-5.0139c-2.63,-5.156 -2.612,-6.159 0.11,-6.159c2.146,0 2.151,-0.032 0.25,-1.527c-1.908,-1.501 -1.903,-1.5541 0.309,-3.1221c3.198,-2.267 2.791,-4.01695 -1.242,-5.34789c-1.921,-0.63403 -3.918,-1.9071 -4.438,-2.828c-0.768,-1.36108 -1.188,-1.43506 -2.235,-0.39709c-1.028,1.01806 -1.039,1.62707 -0.056,3c2.048,2.85901 2.463,4.14808 1.851,5.74498c-0.895,2.332 -4.288,-0.2119 -6.007,-4.50292c-1.838,-4.59204 -5.271,-7.77197 -6.77,-6.27307c-0.799,0.79907 -0.246,2.36304 2.024,5.72608c4.976,7.37291 3.741,9.34591 -4.669,7.46091c-5.612,-1.2569 -8.208,-3.381 -8.208,-6.71397c0,-2.20398 0.319,-2.406 2.961,-1.87793z"/>
  <path id="svg_37" fill="#bbb8b8" d="m307,50.33695c0,-1.17798 -0.933,-3.328 -2.073,-4.77698c-2.515,-3.198 -6.255,-3.432 -8.295,-0.52002c-2.149,3.06897 -1.069,4.922 2.458,4.21704c2.606,-0.52099 2.91,-0.31506 2.91,1.97193c0,3.40098 -2.261,5.48208 -6.782,6.24308c-6.493,1.093 -9.227,0.8559 -9.19,-0.797c0.015,-0.687 1.365,-3.018 3,-5.17802c2.647,-3.49804 3.941,-7.57202 2.406,-7.57202c-2.063,0 -4.827,2.75196 -6.363,6.33496c-2.19,5.10808 -4.68,7.45608 -6.246,5.88998c-1.153,-1.1529 -0.783,-2.4589 1.621,-5.73092c0.968,-1.31799 1.163,-2.50903 0.567,-3.474c-0.773,-1.25 -1.249,-1.16601 -3.21,0.56494c-1.267,1.11805 -3.602,2.58704 -5.189,3.26502l-2.886,1.23108l2.36,2.51198c2.801,2.9819 1.941,3.876 -4.683,4.869c-8.016,1.202 -13.405,8.236 -13.405,17.4979c0,4.775 -0.138,5.0401 -2.628,5.0401l-2.629,0l0.453,-11c0.395,-9.58 0.248,-11 -1.137,-11c-1.381,0 -1.541,1.452 -1.214,11c0.364,10.644 0.308,11 -1.734,11c-1.772,0 -2.112,-0.6031 -2.117,-3.75c-0.013,-9.3061 -6.17,-18.298 -12.465,-18.2061l-3.029,0.0441l3.629,1.9179c6.033,3.188 8.871,7.37 8.871,13.0711c0,5.334 -0.559,5.719 -4.979,3.4339c-3.351,-1.733 -4.433,-4.359 -3.516,-8.5329c0.815,-3.713 -1.07,-4.0281 -2.699,-0.452c-1.718,3.7719 1.039,8.844 6.253,11.504c3.989,2.0349 4.069,2.171 2.379,4.038c-3.187,3.5219 -11.438,1.521 -11.438,-2.7741c0,-0.5769 -0.67,-1.605 -1.488,-2.2839c-1.206,-1.001 -1.606,-0.928 -2.11,0.385c-0.89,2.3199 2.236,6.583 5.717,7.797c4.324,1.5069 2.954,3.318 -2.454,3.2459c-5.764,-0.077 -9.303,-3.0549 -10.951,-9.217c-0.926,-3.4629 -1.547,-4.246 -3.182,-4.012c-2.951,0.423 -3.09,4.6661 -0.29,8.825c5.83,8.6621 18.745,9.104 26.693,0.9131c3.705,-3.817 4.05,-3.947 10.488,-3.947c6.436,0 6.781,0.13 10.367,3.896c8.149,8.5579 22.392,7.5479 27.228,-1.9311c1.606,-3.1479 1.805,-4.426 0.942,-6.0399c-1.625,-3.036 -4.268,-1.9651 -5.092,2.065c-0.433,2.117 -2.13,4.7779 -4.338,6.802c-2.971,2.723 -4.295,3.2669 -7.328,3.0159c-4.687,-0.39 -4.77,-2.2819 -0.202,-4.561c2.805,-1.3999 3.564,-2.413 3.821,-5.104c0.233,-2.433 -0.042,-3.2369 -1,-2.922c-0.726,0.2401 -1.464,1.4091 -1.639,2.599c-0.849,5.7631 -13.182,7.2611 -13.182,1.6011c0,-0.6481 1.365,-1.744 3.034,-2.4351c6.012,-2.49 9.098,-9.9709 5.385,-13.053c-1.408,-1.1689 -1.506,-0.9129 -0.894,2.3481c0.602,3.207 0.311,4.036 -2.342,6.6899c-1.666,1.666 -3.964,3.0291 -5.106,3.0291c-1.761,0 -2.077,-0.617 -2.077,-4.0501c0,-2.2269 0.644,-5.2939 1.43,-6.8149c2.714,-5.2491 12.777,-10.421 17.07,-8.7741c1.374,0.5281 1.318,1.0761 -0.47,4.579c-2.007,3.9351 -2.625,7.0601 -1.396,7.0601c0.552,0 6.157,-1.439 10.224,-2.6241c1.094,-0.3189 1.031,-0.896 -0.326,-2.9669c-1.737,-2.6521 -1.46,-5.409 0.545,-5.409c0.627,0 3.061,2.093 5.41,4.651c3.978,4.332 4.526,4.609 8.015,4.042c2.06,-0.334 3.971,-0.8321 4.245,-1.1071c1.199,-1.199 -0.899,-3.5859 -3.151,-3.5859c-3.738,0 -7.596,-1.7651 -7.596,-3.475c0,-1.079 1.034,-1.525 3.532,-1.525c7.126,0 13.468,-4.5151 13.468,-9.58805z"/>
  <path id="svg_38" fill="#bbb8b8" d="m102.482,54.918c-1.385,-0.526 -2.949,-2.09008 -3.475,-3.47509c-1.07,-2.81397 -3.477,-3.34192 -4.39,-0.96192c-0.909,2.36902 3.731,6.44401 7.338,6.44401c3.703,0 3.894,-0.7271 0.527,-2.007z"/>
  <path id="svg_39" fill="#bbb8b8" d="m161.441,51.34501c0.857,-0.62708 1.559,-1.4281 1.559,-1.78003c0,-1.01197 -2.285,-0.72107 -4.904,0.625c-4.511,2.31799 -6.355,6.06992 -6.841,13.91892c-1.041,16.8301 8.216,27.437 25.654,29.3921c5.712,0.6399 6.208,0.865 4.559,2.0709c-2.162,1.5811 -10.489,1.781 -15.408,0.37c-4.38,-1.256 -5.066,-0.63 -1.19,1.0861c3.49,1.5439 3.162,2.897 -0.702,2.897c-3.508,0 -12.589,-5.428 -22.668,-13.549c-8.071,-6.503 -12.771,-8.7161 -16.465,-7.75c-2.635,0.689 -1.593,2.299 1.489,2.299c1.396,0 2.863,0.854 3.495,2.035c0.599,1.12 3.202,3.0389 5.785,4.265c2.583,1.226 4.696,2.898 4.696,3.715c0,1.452 -0.94,1.5489 -7.5,0.7789c-3.466,-0.407 -4.09,3.552 -0.834,5.2951c5.742,3.0729 14.834,3.1829 14.834,0.1789c0,-1.0249 0.54,-1.2549 1.75,-0.7469c7.968,3.3459 12.156,4.617 15.662,4.753c6.103,0.2369 19.273,-2.931 26.228,-6.3091c6.529,-3.171 8.523,-5.8349 9.888,-13.2149c0.771,-4.163 -0.476,-4.86 -3.969,-2.2181c-2.682,2.0281 -5.188,1.8361 -6.842,-0.526c-1.298,-1.853 -2.717,-1.7689 -2.717,0.1611c0,1.77 4.119,4.833 6.5,4.833c3.226,0 3.194,2 -0.081,5.076c-2.411,2.2639 -3.189,2.402 -11.75,2.089c-13.69,-0.5 -15.312,-2.178 -12.158,-12.5741c2.027,-6.6819 1.906,-7.5909 -1.011,-7.5909c-2.577,0 -3.147,-0.891 -1.632,-2.5501c0.477,-0.5229 1.147,-2.443 1.488,-4.2679c0.564,-3.011 0.414,-3.2891 -1.617,-3c-5.719,0.812 -8.208,15.087 -3.858,22.125c2.992,4.842 1.278,4.719 -3.192,-0.229c-5.263,-5.8261 -6.213,-15.605 -1.972,-20.3101c0.859,-0.953 1.697,-3.6399 1.863,-5.9709c0.17,-2.385 0.983,-4.736 1.861,-5.37699z"/>
  <path id="svg_40" fill="#bbb8b8" d="m345.355,66.9739c0.109,-8.547 -1.71,-13.6849 -5.708,-16.12291c-3.542,-2.15906 -4.291,-2.31104 -5.082,-1.03101c-0.305,0.49292 0.134,1.15894 0.973,1.48096c1.004,0.38501 1.458,1.70706 1.327,3.85496c-0.233,3.796 0.873,7.7691 2.164,7.7691c0.492,0 1.373,1.779 1.959,3.9539c1.472,5.469 -0.356,12.234 -4.494,16.621c-4.259,4.516 -6.085,4.384 -2.964,-0.215c4.058,-5.979 2.437,-18.702 -2.736,-21.4699c-2.629,-1.407 -2.754,-1.121 -1.797,4.1009c0.911,4.9731 0.5,6.4141 -1.598,5.609c-1.876,-0.7199 -1.832,2.9201 0.101,8.4001c1.917,5.4329 1.887,6.301 -0.313,9.0179c-1.636,2.02 -2.813,2.2631 -12.02,2.4821c-10.195,0.2419 -10.208,0.239 -12.686,-2.705c-1.365,-1.6221 -2.481,-3.285 -2.481,-3.6951c0,-0.411 1.643,-1.1639 3.652,-1.6739c3.735,-0.947 6.409,-3.699 4.981,-5.126c-0.438,-0.4381 -1.372,-0.01 -2.075,0.9519c-1.56,2.1331 -4.513,2.249 -7.117,0.28c-3.107,-2.3509 -3.74,-1.8029 -3.032,2.6271c1.342,8.387 6.033,12.684 16.806,15.393c3.457,0.87 8.579,2.227 11.383,3.0179c5.824,1.6411 11.835,0.89 19.628,-2.4519c4.408,-1.89 4.79,-1.912 5.681,-0.322c1.272,2.272 9.405,2.1639 13.905,-0.184c2.457,-1.281 3.231,-2.2931 3,-3.92c-0.317,-2.23 -0.761,-2.314 -7.812,-1.486c-4.238,0.4979 -2.913,-2.509 2.178,-4.942c2.573,-1.229 4.966,-3.1421 5.317,-4.25c0.446,-1.4031 1.511,-2.014 3.513,-2.014c3.463,0 4.797,-1.61 2.056,-2.48c-3.568,-1.1321 -9.505,1.3559 -15.578,6.53c-9.862,8.401 -20.458,14.95 -24.19,14.95c-3.59,0 -4.439,-1.502 -1.396,-2.4681c5.901,-1.8729 13.943,-8.5679 18.377,-15.2989c3.863,-5.863 5.577,-7.504 10.206,-9.7681c6.135,-3.0019 12.14,-3.021 15.423,-0.0499c2.026,1.833 6.45,2.153 5.874,0.4249c-1.416,-4.2469 -14.943,-6.359 -20.923,-3.266c-1.673,0.865 -3.263,1.354 -3.531,1.0851c-1.495,-1.4951 4.32,-7.467 10.613,-10.9c3.331,-1.817 3.333,-3.759 0.005,-3.759c-3.55,0 -9.464,6.74 -15.953,18.181c-7.834,13.8099 -12.525,19.131 -18.728,21.245c-5.669,1.932 -15.224,2.0539 -17.722,0.2269c-1.633,-1.193 -1.076,-1.4239 4.898,-2.037c16.251,-1.6639 25.722,-11.374 25.916,-26.567z"/>
  <path id="svg_41" fill="#bbb8b8" d="m398.473,56.5209c3.119,-0.7829 5.527,-3.2519 5.527,-5.66698c0,-2.90198 -2.748,-2.31702 -4.434,0.94409c-0.817,1.57999 -2.516,3.18489 -3.776,3.56689c-3.005,0.911 -0.552,1.968 2.683,1.156z"/>
  <path id="svg_42" fill="#bbb8b8" d="m114.517,53.871c0.381,-1.19909 -0.1,-2.18798 -1.403,-2.885c-2.06,-1.10303 -2.461,-1.13001 -5.364,-0.37207c-2.743,0.71704 -2.048,3.14407 1,3.49497c2.146,0.2461 2.818,0.9091 3.062,3.0171c0.171,1.485 -0.182,3.622 -0.786,4.75c-0.927,1.7329 -0.802,2.049 0.816,2.049c3.149,0 4.66,-2.604 3.274,-5.6451c-0.648,-1.421 -0.917,-3.406 -0.599,-4.4089z"/>
  <path id="svg_43" fill="#bbb8b8" d="m387.77,54.105c2.568,-0.368 2.986,-2.67601 0.648,-3.57298c-3.878,-1.48804 -6.047,0.74597 -6.822,7.02888c-0.658,5.3261 0.017,6.3641 4.141,6.3641c1.344,0 1.306,-0.2961 -0.264,-2.0301c-2.392,-2.6429 -1.014,-7.3149 2.297,-7.7899z"/>
  <path id="svg_44" fill="#bbb8b8" d="m123.929,57.058c0.585,-1.093 0.806,-2.661 0.49,-3.483c-1.496,-3.89906 -6.863,-1.83705 -6.264,2.406c0.448,3.176 4.269,3.8889 5.774,1.077z"/>
  <path id="svg_45" fill="#bbb8b8" d="m377.364,58.616c2.281,-0.8761 2.079,-5.384 -0.298,-6.656c-2.477,-1.32605 -2.59,-1.31409 -4.026,0.41699c-2.44,2.93991 0.787,7.59591 4.324,6.23901z"/>
  <path id="svg_46" fill="#bbb8b8" d="m147,76.4949c-3.025,-5.4289 -7.703,-12.2779 -10.395,-15.22c-4.658,-5.0909 -7.74,-6.5589 -9.111,-4.3409c-0.343,0.5549 0.868,1.793 2.691,2.75c4.155,2.182 10.815,8.8369 10.815,10.8059c0,1.2981 -0.287,1.2931 -2.315,-0.0359c-5.166,-3.385 -16.003,-3.1621 -20.67,0.424c-3.789,2.9129 -1.538,3.6999 3.534,1.2359c5.516,-2.6809 9.708,-2.7429 14.951,-0.2219c5.471,2.63 6.606,3.6969 10.687,10.033c3.749,5.822 6.428,8.568 11.313,11.593c2.391,1.4809 2.087,0.9439 -1.5,-2.647c-2.475,-2.478 -6.975,-8.948 -10,-14.3761z"/>
  <path id="svg_47" fill="#bbb8b8" d="m104.077,60.3849c1.607,-0.8309 2.923,-1.725 2.923,-1.9859c0,-1.016 -1.933,-0.35 -8.049,2.776c-7.148,3.6529 -11.118,7.983 -9.136,9.9649c0.946,0.9461 2.313,0.0721 6.274,-4.0169c2.785,-2.8741 6.38,-5.906 7.988,-6.7381z"/>
  <path id="svg_48" fill="#bbb8b8" d="m407,70.121c0,-2.614 -5.741,-7.748 -11.333,-10.134c-5.747,-2.4521 -7.106,-2.5711 -3.667,-0.322c1.375,0.899 4.824,4.025 7.664,6.947c5.429,5.5859 7.336,6.498 7.336,3.509z"/>
  <path id="svg_49" fill="#bbb8b8" d="m107.415,68.8539c-0.992,-0.823 -1.431,-2.365 -1.173,-4.1219c0.474,-3.235 -0.695,-3.698 -2.207,-0.8731c-2.163,4.041 -0.583,8.0661 3.165,8.0661c2.223,0 2.316,-1.3271 0.215,-3.0711z"/>
  <path id="svg_50" fill="#bbb8b8" d="m390.025,71.925c2.999,0 4.484,-4.574 2.479,-7.635c-2.079,-3.172 -2.504,-2.9891 -2.504,1.076c0,1.8929 -0.45,3.719 -1,4.059c-1.699,1.05 -1.105,2.5 1.025,2.5z"/>
  <path id="svg_51" fill="#bbb8b8" d="m119.068,87.799c1.639,-3.064 -0.293,-6.652 -4.538,-8.426c-7.687,-3.2121 -16.249,-0.642 -26.53,7.963c-3.025,2.532 -7.83,5.8239 -10.679,7.316c-5.083,2.662 -5.216,2.678 -7.25,0.8379c-2.502,-2.2649 -2.627,-4.293 -0.416,-6.736c1.54,-1.702 1.54,-1.8289 0,-1.8289c-2.037,0 -5.655,3.4809 -5.655,5.441c0,2.13 -1.688,2.796 -3.979,1.5699c-1.192,-0.6379 -2.021,-0.6899 -2.021,-0.1279c0,2.3469 1.476,4.3479 3.886,5.268c2.4,0.917 2.472,1.103 0.88,2.2729c-2.309,1.6951 -1.217,2.5811 3.151,2.5541c4.343,-0.027 10.523,-2.798 14.583,-6.541c1.65,-1.521 4.222,-3.886 5.716,-5.256l2.716,-2.49l0.999,2.627c0.549,1.445 0.733,5.478 0.407,8.963c-0.59,6.323 -0.6,6.339 -5.211,8.7769c-2.54,1.3431 -4.754,3.167 -4.92,4.053c-0.327,1.755 3.762,8.7781 5.151,8.8471c0.473,0.0229 0.575,-1.088 0.228,-2.469c-0.504,-2.012 -0.149,-2.731 1.782,-3.611c1.326,-0.604 2.915,-2.2041 3.53,-3.5541l1.119,-2.4559l2.539,1.997c1.396,1.098 3.867,2.289 5.491,2.645c3.285,0.722 3.881,2.8709 1.211,4.365c-0.958,0.536 -1.403,1.313 -0.989,1.727c0.96,0.961 6.392,-4.1991 7.044,-6.691c0.581,-2.22 -2.792,-6.911 -4.969,-6.911c-2.304,0 -1.009,-2.371 1.635,-2.995c3.56,-0.84 4.973,-3.787 2.646,-5.516c-1.032,-0.766 -1.625,-2.047 -1.318,-2.8471c0.307,-0.7999 -0.315,-2.244 -1.382,-3.2099c-1.887,-1.7071 -1.923,-1.6711 -1.317,1.358c0.547,2.736 0.314,3.1909 -1.92,3.752c-1.399,0.3509 -2.787,1.2729 -3.084,2.0479c-1.066,2.7781 -3.338,1.4361 -3.962,-2.3399c-1.509,-9.1281 0.443,-13.0711 8.093,-16.351c5.101,-2.186 8.122,-2.3771 11.718,-0.738c2.415,1.0999 3.48,2.839 1.738,2.839c-2.005,0 -4.262,2.6529 -3.638,4.276c0.974,2.541 6.086,2.2669 7.515,-0.402z"/>
  <path id="svg_52" fill="#bbb8b8" d="m409.5,88.174c-4.4,-3.3161 -9.793,-6.979 -11.985,-8.1391c-6.069,-3.213 -14.194,-2.52 -18.744,1.5981c-3.628,3.2829 -1.312,8.792 3.414,8.119c3.025,-0.431 3.696,-3.7841 0.902,-4.515c-4.371,-1.142 -1.098,-5.312 4.169,-5.312c4.219,0 11.688,3.113 13.746,5.729c2.63,3.344 2.92,14.9799 0.397,15.948c-0.88,0.338 -1.945,0.0579 -2.365,-0.622c-0.42,-0.68 -1.837,-1.78 -3.149,-2.446c-1.494,-0.757 -2.354,-2.042 -2.303,-3.437c0.046,-1.225 -0.404,-2.063 -1,-1.862c-0.595,0.2009 -1.097,1.287 -1.114,2.413c-0.018,1.126 -0.631,2.7679 -1.362,3.6489c-1.465,1.765 -0.867,4.4591 1.121,5.0551c2.723,0.8158 4.05,1.174 4.187,1.7954c0.133,0.6009 -0.847,1.4481 -2.752,3.1936c-2.014,1.844 -3.662,3.9919 -3.662,4.7729c0,1.4191 5.972,7.8111 7.298,7.8111c1.627,0 0.53,-1.812 -1.403,-2.3171c-2.88,-0.7529 -1.906,-2.9639 1.854,-4.2089c1.704,-0.564 4.098,-1.914 5.321,-3c1.87,-1.661 2.304,-1.736 2.741,-0.474c0.286,0.8249 1.829,2.7249 3.43,4.222c2.102,1.966 2.733,3.286 2.268,4.75c-1.051,3.3099 1.02,2.315 3.934,-1.89c3.394,-4.8981 2.485,-7.1801 -3.821,-9.589l-4.401,-1.68l-0.462,-6.657c-0.278,-3.9981 0.001,-7.578 0.698,-8.964c1.151,-2.2901 1.211,-2.2631 7.53,3.375c7.244,6.464 11.209,8.433 16.981,8.433c4.075,0 4.899,-0.7331 2.981,-2.651c-0.735,-0.735 -0.284,-1.554 1.5,-2.7231c3.161,-2.072 3.685,-6.3029 0.574,-4.6379c-1.717,0.9189 -2.165,0.6079 -3.409,-2.369c-0.787,-1.8841 -2.406,-3.736 -3.598,-4.114c-2.63,-0.835 -3.82,0.0909 -2.199,1.712c1.837,1.8369 1.396,5.599 -0.794,6.771c-2.767,1.481 -6.794,-0.405 -16.523,-7.739z"/>
  <path id="svg_53" fill="#bbb8b8" d="m255.588,92.878c-3.05,1.6319 -5.588,0.759 -5.588,-1.922c0,-1.1171 -0.6,-2.031 -1.333,-2.031c-1.829,0 -2.667,0.995 -2.667,3.167c0,2.1259 -2.144,2.3719 -5.074,0.583c-1.743,-1.064 -2.262,-0.961 -3.487,0.691c-1.624,2.1909 -1.969,9.559 -0.447,9.559c0.546,0 2.195,-1.35 3.666,-3c5.001,-5.6131 8.426,-2.793 4.634,3.8139c-1.407,2.4521 -1.499,3.4361 -0.522,5.5811c1.257,2.7569 4.031,3.4039 6.03,1.405c1.685,-1.685 1.493,-5.937 -0.389,-8.624c-1.729,-2.468 -1.273,-5.176 0.871,-5.176c0.739,0 2.637,1.3499 4.218,3c4.264,4.4499 5.587,3.973 4.851,-1.75c-0.771,-6.0041 -1.639,-6.969 -4.763,-5.297z"/>
  <path id="svg_54" fill="#bbb8b8" d="m204.516,100.976c-0.34,-1.072 -1.468,-2.219 -2.507,-2.548c-1.23,-0.3911 -1.998,-1.717 -2.199,-3.801l-0.31,-3.202l-2.351,3.978c-2.745,4.646 -2.22,6.1699 3.029,8.787c3.317,1.6539 3.58,2.141 4.162,7.717c0.65,6.2169 0.158,9.018 -1.585,9.018c-0.567,0 -3.028,-1.84 -5.467,-4.089c-5.442,-5.015 -12.519,-8.3211 -15.965,-7.4561c-1.944,0.4881 -2.254,0.9241 -1.394,1.9601c0.849,1.023 0.521,1.715 -1.412,2.9819c-1.384,0.907 -2.517,2.4041 -2.517,3.3261c0,1.3039 0.267,1.41 1.2,0.4769c1.864,-1.864 2.818,-1.4459 3.922,1.7201c0.56,1.606 1.726,3.1909 2.591,3.523c2.153,0.827 2.825,-0.09 1.36,-1.855c-0.903,-1.088 -0.93,-1.9871 -0.107,-3.5241c2.117,-3.9569 5.91,-2.478 19.161,7.47c2.955,2.2191 6.498,4.551 7.873,5.1831c2.021,0.928 -0.335,1.161 -12.29,1.215c-17.149,0.079 -17.547,-0.053 -30.955,-10.2381c-4.54,-3.4489 -9.83,-7.228 -11.755,-8.3979c-3.898,-2.37 -10.274,-3.8631 -11.984,-2.806c-1.988,1.229 0.989,3.51 4.58,3.51c3.432,0 12.404,3.76 12.404,5.1989c0,0.4411 -1.41,0.8011 -3.134,0.8011c-7.329,0 -13.709,3.672 -19.581,11.269c-1.075,1.39 -6.95,1.585 -50.517,1.683c-53.75,0.121 -53.756,0.12 -52.413,-5.23c0.758,-3.02 3.73,-4.2821 6.541,-2.7771c4.921,2.6331 9.104,-0.2169 9.104,-6.2019c0,-6.206 -5.122,-8.828 -9.436,-4.8301c-2.088,1.9361 -3.596,2.421 -6.865,2.2051c-2.716,-0.1781 -5.186,-6.753 -3.735,-9.9391c1.59,-3.489 -0.084,-4.6589 -3.18,-2.2229c-6.036,4.747 -4.042,11.0239 4.171,13.1289c2.775,0.7111 5.045,1.635 5.045,2.052c0,0.417 -2.358,0.8941 -5.241,1.0611c-4.05,0.233 -5.316,0.6989 -5.573,2.052c-0.241,1.269 0.32,1.75 2.041,1.75c1.305,0 2.801,-0.3991 3.323,-0.888c0.523,-0.488 1.963,-1.1931 3.2,-1.567c3.075,-0.9291 2.969,1.4309 -0.197,4.4049c-1.345,1.2641 -2.583,3.255 -2.75,4.4241c-0.292,2.052 -0.854,2.136 -16.121,2.402c-14.35302,0.25 -15.78802,0.435 -15.48701,2c0.31299,1.6269 14.26601,1.724 246.81901,1.724c245.819,0 246.486,-0.005 246.486,-2c0,-1.892 -0.833,-2.027 -15.406,-2.5c-14.448,-0.469 -15.425,-0.6241 -15.698,-2.5c-0.16,-1.1 -1.52,-2.981 -3.023,-4.1811c-2.319,-1.8509 -2.536,-2.4179 -1.43,-3.75c0.945,-1.1379 0.978,-1.5689 0.12,-1.5689c-2.432,0 0.045,-1.798 3.325,-2.413c8.196,-1.5381 11.242,-8.245 5.966,-13.135c-3.728,-3.4551 -4.403,-3.087 -3.703,2.022c1.113,8.119 -4.16,12.493 -9.572,7.9389c-4.407,-3.708 -8.111,-3.089 -9.916,1.6581c-2.354,6.1919 1.396,10.976 7.057,9.002c1.693,-0.59 3.676,-1.073 4.406,-1.073c1.902,0 4.535,4.4179 3.79,6.359c-0.573,1.4919 -5.276,1.64 -51.773,1.629l-51.143,-0.0131l-2.244,-3.4639c-2.809,-4.3371 -9.141,-7.6391 -16.135,-8.4151l-5.378,-0.5959l4.231,-2.372c2.327,-1.3041 6.548,-2.654 9.379,-3c3.629,-0.443 5.147,-1.0701 5.147,-2.128c0,-2.2741 -4.848,-2.3831 -9.714,-0.219c-2.357,1.0489 -8.111,4.829 -12.786,8.4c-8.515,6.5041 -12.131,9.439 -16.263,10.7491c-3.735,1.1844 -7.89,1.0411 -16.467,1.0069c-10.49,-0.043 -15.014,-0.3681 -13.512,-0.971c1.241,-0.499 6.355,-3.8501 11.364,-7.446c5.009,-3.5971 10.186,-6.8101 11.505,-7.141c4.201,-1.0551 7.135,3.459 4.173,6.421c-0.933,0.933 -0.812,1.2 0.547,1.2c0.96,0 2.513,-1.3631 3.45,-3.0301c1.328,-2.3619 2.198,-2.9079 3.953,-2.4799c3.082,0.7509 2.965,-1.783 -0.197,-4.2701c-1.687,-1.3259 -2.126,-2.2469 -1.413,-2.9599c2.992,-2.9921 -6.675,-2.526 -11.381,0.5489c-1.424,0.9301 -4.664,3.442 -7.199,5.5821c-2.536,2.14 -4.932,3.57 -5.324,3.1779c-0.393,-0.3919 -0.719,-3.7099 -0.725,-7.3719l-0.011,-6.658l4.25,-2.3441c4.666,-2.574 5.297,-4.667 2.635,-8.73c-1.747,-2.667 -3.671,-3.375 -2.767,-1.0179c0.323,0.843 -0.908,2.9089 -2.949,4.9509c-2.976,2.9751 -3.687,3.285 -4.709,2.0531c-0.663,-0.7981 -2.05,-1.451 -3.082,-1.451c-1.033,0 -2.733,-0.855 -3.778,-1.9001c-2.216,-2.2159 -4.1,-1.0539 -4.1,2.5291c0,2.2529 2.363,5.371 4.071,5.371c1.886,0 0.852,2.0789 -1.474,2.963c-3.122,1.187 -3.89,2.535 -2.704,4.7459c0.529,0.985 1.298,2.6911 1.71,3.7911c0.723,1.93 0.762,1.9229 1.136,-0.203c0.213,-1.2111 1.37,-2.5141 2.571,-2.8951c1.2,-0.3809 2.738,-1.415 3.417,-2.2979c1.09,-1.4151 1.353,-1.427 2.239,-0.104c1.348,2.016 1.301,9.321 -0.081,12.353c-2.277,4.9979 -14.076,7.885 -17.643,4.317c-1.64,-1.64 -1.611,-1.761 0.562,-2.329c3.416,-0.893 2.404,-3.841 -1.318,-3.841c-2.357,0 -3.055,0.4859 -3.313,2.305c-0.37,2.61 1.292,5.027 4.292,6.2429c1.247,0.506 -2.565,0.85 -9.837,0.8891l-11.872,0.063l1.469,-2.25c0.808,-1.2371 3.845,-3.469 6.748,-4.959c6.466,-3.319 6.687,-3.531 5.21,-5.0081c-1.791,-1.791 -1.418,-3.7829 0.71,-3.7829c1.041,0 2.152,-0.6751 2.469,-1.5c0.316,-0.825 1.302,-1.5 2.19,-1.5c2.624,0 1.029,-2.4721 -1.813,-2.8101c-6.757,-0.8039 -14.899,6.6621 -16.697,15.3101c-0.908,4.365 -2.147,3.686 -3.581,-1.964c-0.867,-3.4151 -2.357,-5.969 -4.774,-8.184c-3.741,-3.4291 -10.507,-6.019 -13.112,-5.019c-2.018,0.774 -2.049,2.667 -0.044,2.667c0.843,0 1.791,0.675 2.107,1.5c0.317,0.8249 1.428,1.5 2.469,1.5c2.015,0 2.6,2.4449 0.844,3.53c-1.603,0.991 0.747,3.283 6.2,6.047c2.628,1.3309 5.259,3.3209 5.848,4.422c1.044,1.9499 0.77,2 -10.714,1.9609c-10.89,-0.037 -11.581,-0.151 -9.104,-1.4959c3.554,-1.93 4.492,-5.063 2.254,-7.5361c-2.134,-2.358 -2.826,-2.3939 -4.963,-0.2569c-1.561,1.561 -1.516,1.79 0.679,3.4919c1.999,1.5511 2.126,1.9701 0.849,2.8141c-2.17,1.4359 -8.533,1.245 -12.401,-0.3711c-5.966,-2.4929 -8.142,-8.417 -5.574,-15.173c0.928,-2.4399 1.19,-2.556 2.75,-1.2169c0.949,0.814 2.513,1.7589 3.475,2.101c0.962,0.3409 1.75,1.5339 1.75,2.652c0,1.117 0.45,2.031 1,2.031c0.55,0 1,-1.07 1,-2.3781c0,-1.307 0.686,-2.9469 1.525,-3.6429c1.362,-1.13 1.345,-1.465 -0.155,-3.122c-0.924,-1.0221 -2.51,-1.857 -3.525,-1.857c-2.64,0 -2.278,-1.885 0.569,-2.9671c3.424,-1.302 4.235,-4.6859 1.881,-7.8399c-1.054,-1.412 -2.463,-2.674 -3.131,-2.8051c-0.668,-0.131 -0.753,-0.0089 -0.189,0.27c2.114,1.0491 0.908,3.4931 -2.407,4.8781c-1.887,0.7879 -3.714,1.891 -4.059,2.4489c-0.991,1.6031 -2.319,1.189 -2.993,-0.9339zm-61.964,30.834c-0.918,-0.918 7.302,-8.7221 9.664,-9.1751c7.76,-1.4869 12.908,-0.2459 20.414,4.9241c2.954,2.0339 5.254,3.8159 5.111,3.959c-0.515,0.514 -34.683,0.798 -35.189,0.292zm181.276,-4.0081c3.377,-2.2679 7.609,-4.4939 9.406,-4.948c4.267,-1.078 11.555,-0.298 14.354,1.5371c1.22,0.799 3.192,2.821 4.383,4.4939l2.165,3.0401l-36.449,0l6.141,-4.1231z" clip-rule="evenodd" fill-rule="evenodd"/>
  <path id="svg_55" fill="#bbb8b8" d="m429,111.0469c0,-2.3309 -1.411,-3.485 -6.413,-5.245c-2.152,-0.7569 -6.191,-3.402 -8.975,-5.8769c-4.94,-4.391 -5.011,-4.418 -2.957,-1.125c1.159,1.857 4.478,5.7939 7.378,8.75c3.93,4.008 5.996,5.375 8.119,5.375c2.119,0 2.848,-0.48 2.848,-1.8781z"/>
  <path id="svg_56" fill="#bbb8b8" d="m68.18,110.679c-0.847,5.9559 8.916,0.255 15.632,-9.1271c3.478,-4.859 2.841,-6.5439 -0.749,-1.98c-1.145,1.4551 -4.89,4.0441 -8.322,5.7531c-4.516,2.249 -6.329,3.729 -6.561,5.354z"/>
  <path id="svg_57" fill="#bbb8b8" d="m60.871,119.925c2.821,0 4.242,-6.4871 1.929,-8.8001c-1.307,-1.307 -4.072,-1.595 -5.133,-0.5329c-2.03,2.029 0.478,9.333 3.204,9.333z"/>
  <path id="svg_58" fill="#bbb8b8" d="m438,118.425c2.399,-2.1711 2.657,-7.0341 0.418,-7.893c-2.369,-0.909 -3.123,-0.759 -4.847,0.964c-2.136,2.137 -1.974,4.7539 0.429,6.929c1.93,1.7469 2.07,1.7469 4,0z"/>
  <path id="svg_59" fill="#bbb8b8" d="m463.756,122.9589c3.351,1.873 6.477,1.4241 6.042,-0.8679c-0.223,-1.1801 -1.552,-1.756 -4.557,-1.973c-4.887,-0.355 -5.41,0.646 -1.485,2.8409z"/>
 </g>
</svg>